<?xml version="1.0" encoding="UTF-8"?>
<!DOCTYPE svg PUBLIC "-//W3C//DTD SVG 1.0//EN" "http://www.w3.org/TR/2001/REC-SVG-20010904/DTD/svg10.dtd">
<svg xmlns:xlink="http://www.w3.org/1999/xlink" xmlns="http://www.w3.org/2000/svg" fill-opacity="0" color-rendering="auto" color-interpolation="auto" text-rendering="auto" stroke="rgb(0,0,0)" stroke-linecap="square" width="1827" stroke-miterlimit="10" shape-rendering="auto" stroke-opacity="0" fill="rgb(0,0,0)" stroke-dasharray="none" font-weight="normal" stroke-width="1" height="634" font-family="'Dialog'" font-style="normal" stroke-linejoin="miter" font-size="12px" stroke-dashoffset="0" image-rendering="auto">
  <!--Generated by the Batik Graphics2D SVG Generator-->
  <defs id="genericDefs"/>
  <g>
    <defs id="defs1">
      <clipPath clipPathUnits="userSpaceOnUse" id="clipPath1">
        <path d="M-7 -7 L1141 -7 L1141 375 L-7 375 L-7 -7 Z"/>
      </clipPath>
      <clipPath clipPathUnits="userSpaceOnUse" id="clipPath2">
        <path d="M0 0 L0 344 L1130 344 L1130 0 Z"/>
      </clipPath>
      <clipPath clipPathUnits="userSpaceOnUse" id="clipPath3">
        <path d="M-7 -7 L632 -7 L632 98 L-7 98 L-7 -7 Z"/>
      </clipPath>
      <clipPath clipPathUnits="userSpaceOnUse" id="clipPath4">
        <path d="M0 0 L0 72 L621 72 L621 0 Z"/>
      </clipPath>
      <clipPath clipPathUnits="userSpaceOnUse" id="clipPath5">
        <path d="M0 0 L0 15 L622 15 L622 0 Z"/>
      </clipPath>
      <clipPath clipPathUnits="userSpaceOnUse" id="clipPath6">
        <path d="M-7 -7 L334 -7 L334 108 L-7 108 L-7 -7 Z"/>
      </clipPath>
      <clipPath clipPathUnits="userSpaceOnUse" id="clipPath7">
        <path d="M0 0 L0 82 L323 82 L323 0 Z"/>
      </clipPath>
      <clipPath clipPathUnits="userSpaceOnUse" id="clipPath8">
        <path d="M0 0 L0 15 L324 15 L324 0 Z"/>
      </clipPath>
      <clipPath clipPathUnits="userSpaceOnUse" id="clipPath9">
        <path d="M-7 -7 L464 -7 L464 108 L-7 108 L-7 -7 Z"/>
      </clipPath>
      <clipPath clipPathUnits="userSpaceOnUse" id="clipPath10">
        <path d="M0 0 L0 82 L453 82 L453 0 Z"/>
      </clipPath>
      <clipPath clipPathUnits="userSpaceOnUse" id="clipPath11">
        <path d="M0 0 L0 15 L454 15 L454 0 Z"/>
      </clipPath>
      <clipPath clipPathUnits="userSpaceOnUse" id="clipPath12">
        <path d="M-7 -7 L60 -7 L60 31 L-7 31 L-7 -7 Z"/>
      </clipPath>
      <clipPath clipPathUnits="userSpaceOnUse" id="clipPath13">
        <path d="M0 0 L0 18 L47 18 L47 0 Z"/>
      </clipPath>
      <clipPath clipPathUnits="userSpaceOnUse" id="clipPath14">
        <path d="M-7 -7 L66 -7 L66 31 L-7 31 L-7 -7 Z"/>
      </clipPath>
      <clipPath clipPathUnits="userSpaceOnUse" id="clipPath15">
        <path d="M0 0 L0 18 L53 18 L53 0 Z"/>
      </clipPath>
      <clipPath clipPathUnits="userSpaceOnUse" id="clipPath16">
        <path d="M-7 -7 L450 -7 L450 341 L-7 341 L-7 -7 Z"/>
      </clipPath>
      <clipPath clipPathUnits="userSpaceOnUse" id="clipPath17">
        <path d="M0 0 L0 310 L439 310 L439 0 Z"/>
      </clipPath>
      <clipPath clipPathUnits="userSpaceOnUse" id="clipPath18">
        <path d="M-7 -7 L308 -7 L308 89 L-7 89 L-7 -7 Z"/>
      </clipPath>
      <clipPath clipPathUnits="userSpaceOnUse" id="clipPath19">
        <path d="M0 0 L0 64 L297 64 L297 0 Z"/>
      </clipPath>
      <clipPath clipPathUnits="userSpaceOnUse" id="clipPath20">
        <path d="M0 0 L0 14 L297 14 L297 0 Z"/>
      </clipPath>
      <clipPath clipPathUnits="userSpaceOnUse" id="clipPath21">
        <path d="M-7 -7 L453 -7 L453 204 L-7 204 L-7 -7 Z"/>
      </clipPath>
      <clipPath clipPathUnits="userSpaceOnUse" id="clipPath22">
        <path d="M0 0 L0 173 L442 173 L442 0 Z"/>
      </clipPath>
      <clipPath clipPathUnits="userSpaceOnUse" id="clipPath23">
        <path d="M-7 -7 L157 -7 L157 75 L-7 75 L-7 -7 Z"/>
      </clipPath>
      <clipPath clipPathUnits="userSpaceOnUse" id="clipPath24">
        <path d="M0 0 L0 50 L146 50 L146 0 Z"/>
      </clipPath>
      <clipPath clipPathUnits="userSpaceOnUse" id="clipPath25">
        <path d="M0 0 L0 14 L146 14 L146 0 Z"/>
      </clipPath>
      <clipPath clipPathUnits="userSpaceOnUse" id="clipPath26">
        <path d="M-7 -7 L177 -7 L177 75 L-7 75 L-7 -7 Z"/>
      </clipPath>
      <clipPath clipPathUnits="userSpaceOnUse" id="clipPath27">
        <path d="M0 0 L0 50 L166 50 L166 0 Z"/>
      </clipPath>
      <clipPath clipPathUnits="userSpaceOnUse" id="clipPath28">
        <path d="M0 0 L0 14 L166 14 L166 0 Z"/>
      </clipPath>
      <clipPath clipPathUnits="userSpaceOnUse" id="clipPath29">
        <path d="M-7 -7 L302 -7 L302 103 L-7 103 L-7 -7 Z"/>
      </clipPath>
      <clipPath clipPathUnits="userSpaceOnUse" id="clipPath30">
        <path d="M0 0 L0 78 L291 78 L291 0 Z"/>
      </clipPath>
      <clipPath clipPathUnits="userSpaceOnUse" id="clipPath31">
        <path d="M0 0 L0 14 L291 14 L291 0 Z"/>
      </clipPath>
      <clipPath clipPathUnits="userSpaceOnUse" id="clipPath32">
        <path d="M-7 -7 L93 -7 L93 93 L-7 93 L-7 -7 Z"/>
      </clipPath>
      <clipPath clipPathUnits="userSpaceOnUse" id="clipPath33">
        <path d="M0 0 L0 82 L82 82 L82 0 Z"/>
      </clipPath>
      <clipPath clipPathUnits="userSpaceOnUse" id="clipPath34">
        <path d="M-7 -7 L53 -7 L53 53 L-7 53 L-7 -7 Z"/>
      </clipPath>
      <clipPath clipPathUnits="userSpaceOnUse" id="clipPath35">
        <path d="M0 0 L0 42 L42 42 L42 0 Z"/>
      </clipPath>
      <clipPath clipPathUnits="userSpaceOnUse" id="clipPath36">
        <path d="M-7 -7 L67 -7 L67 67 L-7 67 L-7 -7 Z"/>
      </clipPath>
      <clipPath clipPathUnits="userSpaceOnUse" id="clipPath37">
        <path d="M0 0 L0 56 L56 56 L56 0 Z"/>
      </clipPath>
      <clipPath clipPathUnits="userSpaceOnUse" id="clipPath38">
        <path d="M-7 -7 L51 -7 L51 51 L-7 51 L-7 -7 Z"/>
      </clipPath>
      <clipPath clipPathUnits="userSpaceOnUse" id="clipPath39">
        <path d="M0 0 L0 40 L40 40 L40 0 Z"/>
      </clipPath>
      <clipPath clipPathUnits="userSpaceOnUse" id="clipPath40">
        <path d="M-7 -7 L119 -7 L119 119 L-7 119 L-7 -7 Z"/>
      </clipPath>
      <clipPath clipPathUnits="userSpaceOnUse" id="clipPath41">
        <path d="M0 0 L0 108 L108 108 L108 0 Z"/>
      </clipPath>
      <clipPath clipPathUnits="userSpaceOnUse" id="clipPath42">
        <path d="M-7 -7 L165 -7 L165 25 L-7 25 L-7 -7 Z"/>
      </clipPath>
      <clipPath clipPathUnits="userSpaceOnUse" id="clipPath43">
        <path d="M0 0 L0 14 L154 14 L154 0 Z"/>
      </clipPath>
      <clipPath clipPathUnits="userSpaceOnUse" id="clipPath44">
        <path d="M-7 -7 L99 -7 L99 99 L-7 99 L-7 -7 Z"/>
      </clipPath>
      <clipPath clipPathUnits="userSpaceOnUse" id="clipPath45">
        <path d="M0 0 L0 88 L88 88 L88 0 Z"/>
      </clipPath>
      <clipPath clipPathUnits="userSpaceOnUse" id="clipPath46">
        <path d="M-7 -7 L84 -7 L84 25 L-7 25 L-7 -7 Z"/>
      </clipPath>
      <clipPath clipPathUnits="userSpaceOnUse" id="clipPath47">
        <path d="M0 0 L0 14 L73 14 L73 0 Z"/>
      </clipPath>
      <clipPath clipPathUnits="userSpaceOnUse" id="clipPath48">
        <path d="M-7 -7 L38 -7 L38 25 L-7 25 L-7 -7 Z"/>
      </clipPath>
      <clipPath clipPathUnits="userSpaceOnUse" id="clipPath49">
        <path d="M0 0 L0 14 L27 14 L27 0 Z"/>
      </clipPath>
      <clipPath clipPathUnits="userSpaceOnUse" id="clipPath50">
        <path d="M0 0 L341 0 L341 115 L0 115 L0 0 Z"/>
      </clipPath>
      <clipPath clipPathUnits="userSpaceOnUse" id="clipPath51">
        <path d="M0 0 L0 115 L341 115 L341 0 Z"/>
      </clipPath>
      <clipPath clipPathUnits="userSpaceOnUse" id="clipPath52">
        <path d="M0 0 L104 0 L104 199 L0 199 L0 0 Z"/>
      </clipPath>
      <clipPath clipPathUnits="userSpaceOnUse" id="clipPath53">
        <path d="M0 0 L0 199 L104 199 L104 0 Z"/>
      </clipPath>
      <clipPath clipPathUnits="userSpaceOnUse" id="clipPath54">
        <path d="M0 0 L115 0 L115 211 L0 211 L0 0 Z"/>
      </clipPath>
      <clipPath clipPathUnits="userSpaceOnUse" id="clipPath55">
        <path d="M0 0 L0 211 L115 211 L115 0 Z"/>
      </clipPath>
      <clipPath clipPathUnits="userSpaceOnUse" id="clipPath56">
        <path d="M0 0 L104 0 L104 236 L0 236 L0 0 Z"/>
      </clipPath>
      <clipPath clipPathUnits="userSpaceOnUse" id="clipPath57">
        <path d="M0 0 L0 236 L104 236 L104 0 Z"/>
      </clipPath>
      <clipPath clipPathUnits="userSpaceOnUse" id="clipPath58">
        <path d="M0 0 L209 0 L209 104 L0 104 L0 0 Z"/>
      </clipPath>
      <clipPath clipPathUnits="userSpaceOnUse" id="clipPath59">
        <path d="M0 0 L0 104 L209 104 L209 0 Z"/>
      </clipPath>
      <clipPath clipPathUnits="userSpaceOnUse" id="clipPath60">
        <path d="M0 0 L269 0 L269 290 L0 290 L0 0 Z"/>
      </clipPath>
      <clipPath clipPathUnits="userSpaceOnUse" id="clipPath61">
        <path d="M0 0 L0 290 L269 290 L269 0 Z"/>
      </clipPath>
      <clipPath clipPathUnits="userSpaceOnUse" id="clipPath62">
        <path d="M0 0 L411 0 L411 301 L0 301 L0 0 Z"/>
      </clipPath>
      <clipPath clipPathUnits="userSpaceOnUse" id="clipPath63">
        <path d="M0 0 L0 301 L411 301 L411 0 Z"/>
      </clipPath>
    </defs>
    <g stroke-linecap="butt" font-size="11px" transform="translate(693,266)" fill-opacity="1" fill="black" text-rendering="geometricPrecision" image-rendering="optimizeQuality" font-family="sans-serif" stroke-linejoin="round" stroke="black" stroke-opacity="1" stroke-miterlimit="0">
      <path fill="none" d="M0 20 L1129 20 L1129 363 L0 363 L0 0 L225 0 L225 20" clip-path="url(#clipPath1)"/>
    </g>
    <g font-size="11px" transform="translate(693,286)" fill-opacity="1" fill="black" text-rendering="geometricPrecision" image-rendering="optimizeQuality" font-family="sans-serif" stroke="black" stroke-opacity="1">
      <text x="543" xml:space="preserve" y="11" clip-path="url(#clipPath2)" stroke="none">modele</text>
    </g>
    <g font-size="11px" transform="translate(924,310)" fill-opacity="1" fill="rgb(86,180,233)" text-rendering="geometricPrecision" image-rendering="optimizeQuality" font-family="sans-serif" stroke="rgb(86,180,233)" font-weight="bold" stroke-opacity="1">
      <rect x="0" width="621" height="87" y="0" clip-path="url(#clipPath3)" stroke="none"/>
    </g>
    <g fill-opacity="1" text-rendering="geometricPrecision" stroke="black" stroke-linecap="butt" transform="translate(924,310)" stroke-miterlimit="0" stroke-opacity="1" fill="black" font-weight="bold" font-family="sans-serif" stroke-linejoin="round" font-size="11px" image-rendering="optimizeQuality">
      <rect fill="none" x="0" width="621" height="87" y="0" clip-path="url(#clipPath3)"/>
      <line y2="15" fill="none" x1="0" clip-path="url(#clipPath3)" x2="621" y1="15"/>
    </g>
    <g font-size="11px" transform="matrix(1,0,0,1,924,325)" fill-opacity="1" fill="black" text-rendering="geometricPrecision" image-rendering="optimizeQuality" font-family="sans-serif" stroke="black" stroke-opacity="1">
      <text x="2" xml:space="preserve" y="13" clip-path="url(#clipPath4)" stroke="none">+ajouteUtilisateur(email : String, nom : String, prenom : String) : boolean</text>
    </g>
    <g font-size="11px" transform="matrix(1,0,0,1,924,325)" fill-opacity="1" fill="black" text-rendering="geometricPrecision" image-rendering="optimizeQuality" font-family="sans-serif" stroke="black" stroke-opacity="1">
      <text x="2" xml:space="preserve" y="27" clip-path="url(#clipPath4)" stroke="none">+nouvelEvenement(nom : String, dateDebut : Date, dateFin : Date, adminEmail : String)</text>
    </g>
    <g font-size="11px" transform="matrix(1,0,0,1,924,325)" fill-opacity="1" fill="black" text-rendering="geometricPrecision" image-rendering="optimizeQuality" font-family="sans-serif" stroke="black" stroke-opacity="1">
      <text x="2" xml:space="preserve" y="41" clip-path="url(#clipPath4)" stroke="none">+getEvenements() : Map&lt;String, Evenement&gt;</text>
    </g>
    <g font-size="11px" transform="translate(924,310)" fill-opacity="1" fill="black" text-rendering="geometricPrecision" image-rendering="optimizeQuality" font-family="sans-serif" stroke="black" font-weight="bold" stroke-opacity="1">
      <text x="281" xml:space="preserve" y="11" clip-path="url(#clipPath5)" stroke="none">GenEvent</text>
    </g>
    <g font-size="11px" transform="translate(707,514)" fill-opacity="1" fill="rgb(86,180,233)" text-rendering="geometricPrecision" image-rendering="optimizeQuality" font-family="sans-serif" stroke="rgb(86,180,233)" font-weight="bold" stroke-opacity="1">
      <rect x="0" width="323" height="97" y="0" clip-path="url(#clipPath6)" stroke="none"/>
    </g>
    <g fill-opacity="1" text-rendering="geometricPrecision" stroke="black" stroke-linecap="butt" transform="translate(707,514)" stroke-miterlimit="0" stroke-opacity="1" fill="black" font-weight="bold" font-family="sans-serif" stroke-linejoin="round" font-size="11px" image-rendering="optimizeQuality">
      <rect fill="none" x="0" width="323" height="97" y="0" clip-path="url(#clipPath6)"/>
      <line y2="15" fill="none" x1="0" clip-path="url(#clipPath6)" x2="323" y1="15"/>
    </g>
    <g font-size="11px" transform="matrix(1,0,0,1,707,529)" fill-opacity="1" fill="black" text-rendering="geometricPrecision" image-rendering="optimizeQuality" font-family="sans-serif" stroke="black" stroke-opacity="1">
      <text x="2" xml:space="preserve" y="13" clip-path="url(#clipPath7)" stroke="none">-email : String {unique}</text>
    </g>
    <g font-size="11px" transform="matrix(1,0,0,1,707,529)" fill-opacity="1" fill="black" text-rendering="geometricPrecision" image-rendering="optimizeQuality" font-family="sans-serif" stroke="black" stroke-opacity="1">
      <text x="2" xml:space="preserve" y="27" clip-path="url(#clipPath7)" stroke="none">-nom : String</text>
    </g>
    <g font-size="11px" transform="matrix(1,0,0,1,707,529)" fill-opacity="1" fill="black" text-rendering="geometricPrecision" image-rendering="optimizeQuality" font-family="sans-serif" stroke="black" stroke-opacity="1">
      <text x="2" xml:space="preserve" y="41" clip-path="url(#clipPath7)" stroke="none">-prenom : String</text>
      <line stroke-linecap="butt" clip-path="url(#clipPath7)" fill="none" x1="0" x2="323" y1="46" y2="46" stroke-linejoin="bevel" stroke-miterlimit="0"/>
    </g>
    <g font-size="11px" transform="matrix(1,0,0,1,707,529)" fill-opacity="1" fill="black" text-rendering="geometricPrecision" image-rendering="optimizeQuality" font-family="sans-serif" stroke="black" stroke-opacity="1">
      <text x="2" xml:space="preserve" y="59" clip-path="url(#clipPath7)" stroke="none">+Utilisateur(email : String, nom : String, prenom : String)</text>
    </g>
    <g font-size="11px" transform="matrix(1,0,0,1,707,529)" fill-opacity="1" fill="black" text-rendering="geometricPrecision" image-rendering="optimizeQuality" font-family="sans-serif" stroke="black" stroke-opacity="1">
      <text x="2" xml:space="preserve" y="73" clip-path="url(#clipPath7)" stroke="none">+ajouteEvenementAdministre(evt : Evenement)</text>
    </g>
    <g font-size="11px" transform="translate(707,514)" fill-opacity="1" fill="black" text-rendering="geometricPrecision" image-rendering="optimizeQuality" font-family="sans-serif" stroke="black" font-weight="bold" stroke-opacity="1">
      <text x="128" xml:space="preserve" y="11" clip-path="url(#clipPath8)" stroke="none">Utilisateur</text>
    </g>
    <g font-size="11px" transform="translate(1360,514)" fill-opacity="1" fill="rgb(86,180,233)" text-rendering="geometricPrecision" image-rendering="optimizeQuality" font-family="sans-serif" stroke="rgb(86,180,233)" font-weight="bold" stroke-opacity="1">
      <rect x="0" width="453" height="97" y="0" clip-path="url(#clipPath9)" stroke="none"/>
    </g>
    <g fill-opacity="1" text-rendering="geometricPrecision" stroke="black" stroke-linecap="butt" transform="translate(1360,514)" stroke-miterlimit="0" stroke-opacity="1" fill="black" font-weight="bold" font-family="sans-serif" stroke-linejoin="round" font-size="11px" image-rendering="optimizeQuality">
      <rect fill="none" x="0" width="453" height="97" y="0" clip-path="url(#clipPath9)"/>
      <line y2="15" fill="none" x1="0" clip-path="url(#clipPath9)" x2="453" y1="15"/>
    </g>
    <g font-size="11px" transform="matrix(1,0,0,1,1360,529)" fill-opacity="1" fill="black" text-rendering="geometricPrecision" image-rendering="optimizeQuality" font-family="sans-serif" stroke="black" stroke-opacity="1">
      <text x="2" xml:space="preserve" y="13" clip-path="url(#clipPath10)" stroke="none">-nom : String {unique}</text>
    </g>
    <g font-size="11px" transform="matrix(1,0,0,1,1360,529)" fill-opacity="1" fill="black" text-rendering="geometricPrecision" image-rendering="optimizeQuality" font-family="sans-serif" stroke="black" stroke-opacity="1">
      <text x="2" xml:space="preserve" y="27" clip-path="url(#clipPath10)" stroke="none">-dateDebut : Date</text>
    </g>
    <g font-size="11px" transform="matrix(1,0,0,1,1360,529)" fill-opacity="1" fill="black" text-rendering="geometricPrecision" image-rendering="optimizeQuality" font-family="sans-serif" stroke="black" stroke-opacity="1">
      <text x="2" xml:space="preserve" y="41" clip-path="url(#clipPath10)" stroke="none">-dateFin : Date</text>
      <line stroke-linecap="butt" clip-path="url(#clipPath10)" fill="none" x1="0" x2="453" y1="46" y2="46" stroke-linejoin="bevel" stroke-miterlimit="0"/>
    </g>
    <g font-size="11px" transform="matrix(1,0,0,1,1360,529)" fill-opacity="1" fill="black" text-rendering="geometricPrecision" image-rendering="optimizeQuality" font-family="sans-serif" stroke="black" stroke-opacity="1">
      <text x="2" xml:space="preserve" y="59" clip-path="url(#clipPath10)" stroke="none">+Evenement(genevent : GenEvent, nom : String, dateDebut : Date, dateFin : D...</text>
    </g>
    <g font-size="11px" transform="matrix(1,0,0,1,1360,529)" fill-opacity="1" fill="black" text-rendering="geometricPrecision" image-rendering="optimizeQuality" font-family="sans-serif" stroke="black" stroke-opacity="1">
      <text x="2" xml:space="preserve" y="73" clip-path="url(#clipPath10)" stroke="none">+ajouteAdministrateur(admin : Utilisateur)</text>
    </g>
    <g font-size="11px" transform="translate(1360,514)" fill-opacity="1" fill="black" text-rendering="geometricPrecision" image-rendering="optimizeQuality" font-family="sans-serif" stroke="black" font-weight="bold" stroke-opacity="1">
      <text x="191" xml:space="preserve" y="11" clip-path="url(#clipPath11)" stroke="none">Evenement</text>
    </g>
    <g font-size="11px" transform="translate(1030,541)" fill-opacity="1" fill="rgb(86,180,233)" text-rendering="geometricPrecision" image-rendering="optimizeQuality" font-family="sans-serif" stroke="rgb(86,180,233)" stroke-opacity="1">
      <rect x="0" width="49" height="20" y="0" clip-path="url(#clipPath12)" stroke="none"/>
    </g>
    <g stroke-linecap="butt" font-size="11px" transform="translate(1030,541)" fill-opacity="1" fill="black" text-rendering="geometricPrecision" image-rendering="optimizeQuality" font-family="sans-serif" stroke-linejoin="round" stroke="black" stroke-opacity="1" stroke-miterlimit="0">
      <rect fill="none" x="0" width="49" height="20" y="0" clip-path="url(#clipPath12)"/>
    </g>
    <g font-size="11px" transform="translate(1031,542)" fill-opacity="1" fill="black" text-rendering="geometricPrecision" image-rendering="optimizeQuality" font-family="sans-serif" stroke="black" stroke-opacity="1">
      <text x="9" xml:space="preserve" y="11" clip-path="url(#clipPath13)" stroke="none">-nom</text>
    </g>
    <g font-size="11px" transform="translate(1305,540)" fill-opacity="1" fill="rgb(86,180,233)" text-rendering="geometricPrecision" image-rendering="optimizeQuality" font-family="sans-serif" stroke="rgb(86,180,233)" stroke-opacity="1">
      <rect x="0" width="55" height="20" y="0" clip-path="url(#clipPath14)" stroke="none"/>
    </g>
    <g stroke-linecap="butt" font-size="11px" transform="translate(1305,540)" fill-opacity="1" fill="black" text-rendering="geometricPrecision" image-rendering="optimizeQuality" font-family="sans-serif" stroke-linejoin="round" stroke="black" stroke-opacity="1" stroke-miterlimit="0">
      <rect fill="none" x="0" width="55" height="20" y="0" clip-path="url(#clipPath14)"/>
    </g>
    <g font-size="11px" transform="translate(1306,541)" fill-opacity="1" fill="black" text-rendering="geometricPrecision" image-rendering="optimizeQuality" font-family="sans-serif" stroke="black" stroke-opacity="1">
      <text x="9" xml:space="preserve" y="11" clip-path="url(#clipPath15)" stroke="none">-email</text>
    </g>
    <g font-size="11px" transform="translate(939,397)" fill-opacity="1" fill="rgb(86,180,233)" text-rendering="geometricPrecision" image-rendering="optimizeQuality" font-family="sans-serif" stroke="rgb(86,180,233)" stroke-opacity="1">
      <rect x="0" width="55" height="20" y="0" clip-path="url(#clipPath14)" stroke="none"/>
    </g>
    <g stroke-linecap="butt" font-size="11px" transform="translate(939,397)" fill-opacity="1" fill="black" text-rendering="geometricPrecision" image-rendering="optimizeQuality" font-family="sans-serif" stroke-linejoin="round" stroke="black" stroke-opacity="1" stroke-miterlimit="0">
      <rect fill="none" x="0" width="55" height="20" y="0" clip-path="url(#clipPath14)"/>
    </g>
    <g font-size="11px" transform="translate(940,398)" fill-opacity="1" fill="black" text-rendering="geometricPrecision" image-rendering="optimizeQuality" font-family="sans-serif" stroke="black" stroke-opacity="1">
      <text x="9" xml:space="preserve" y="11" clip-path="url(#clipPath15)" stroke="none">-email</text>
    </g>
    <g stroke-linecap="butt" font-size="11px" transform="translate(2,266)" fill-opacity="1" fill="black" text-rendering="geometricPrecision" image-rendering="optimizeQuality" font-family="sans-serif" stroke-linejoin="round" stroke="black" stroke-opacity="1" stroke-miterlimit="0">
      <path fill="none" d="M0 20 L438 20 L438 329 L0 329 L0 0 L87 0 L87 20" clip-path="url(#clipPath16)"/>
    </g>
    <g font-size="11px" transform="translate(2,286)" fill-opacity="1" fill="black" text-rendering="geometricPrecision" image-rendering="optimizeQuality" font-family="sans-serif" stroke="black" stroke-opacity="1">
      <text x="208" xml:space="preserve" y="11" clip-path="url(#clipPath17)" stroke="none">vue</text>
    </g>
    <g font-size="11px" transform="translate(1427,398)" fill-opacity="1" fill="rgb(86,180,233)" text-rendering="geometricPrecision" image-rendering="optimizeQuality" font-family="sans-serif" stroke="rgb(86,180,233)" stroke-opacity="1">
      <rect x="0" width="49" height="20" y="0" clip-path="url(#clipPath12)" stroke="none"/>
    </g>
    <g stroke-linecap="butt" font-size="11px" transform="translate(1427,398)" fill-opacity="1" fill="black" text-rendering="geometricPrecision" image-rendering="optimizeQuality" font-family="sans-serif" stroke-linejoin="round" stroke="black" stroke-opacity="1" stroke-miterlimit="0">
      <rect fill="none" x="0" width="49" height="20" y="0" clip-path="url(#clipPath12)"/>
    </g>
    <g font-size="11px" transform="translate(1428,399)" fill-opacity="1" fill="black" text-rendering="geometricPrecision" image-rendering="optimizeQuality" font-family="sans-serif" stroke="black" stroke-opacity="1">
      <text x="9" xml:space="preserve" y="11" clip-path="url(#clipPath13)" stroke="none">-nom</text>
    </g>
    <g font-size="11px" transform="translate(69,310)" fill-opacity="1" fill="rgb(230,159,0)" text-rendering="geometricPrecision" image-rendering="optimizeQuality" font-family="sans-serif" stroke="rgb(230,159,0)" font-weight="bold" stroke-opacity="1">
      <rect x="0" width="297" height="78" y="0" clip-path="url(#clipPath18)" stroke="none"/>
    </g>
    <g fill-opacity="1" text-rendering="geometricPrecision" stroke="black" stroke-linecap="butt" transform="translate(69,310)" stroke-miterlimit="0" stroke-opacity="1" fill="black" font-weight="bold" font-family="sans-serif" stroke-linejoin="round" font-size="11px" image-rendering="optimizeQuality">
      <rect fill="none" x="0" width="297" height="78" y="0" clip-path="url(#clipPath18)"/>
      <line y2="14" fill="none" x1="0" clip-path="url(#clipPath18)" x2="297" y1="14"/>
    </g>
    <g font-size="11px" transform="matrix(1,0,0,1,69,324)" fill-opacity="1" fill="black" text-rendering="geometricPrecision" image-rendering="optimizeQuality" font-family="sans-serif" font-style="italic" stroke="black" stroke-opacity="1">
      <text x="2" xml:space="preserve" y="13" clip-path="url(#clipPath19)" stroke="none">+demarrerInteraction()</text>
    </g>
    <g font-size="11px" transform="matrix(1,0,0,1,69,324)" fill-opacity="1" fill="black" text-rendering="geometricPrecision" image-rendering="optimizeQuality" font-family="sans-serif" font-style="italic" stroke="black" stroke-opacity="1">
      <text x="2" xml:space="preserve" y="27" clip-path="url(#clipPath19)" stroke="none">+informerUtilisateur(msg : String, succes : boolean)</text>
    </g>
    <g font-size="11px" transform="matrix(1,0,0,1,69,324)" fill-opacity="1" fill="black" text-rendering="geometricPrecision" image-rendering="optimizeQuality" font-family="sans-serif" font-style="italic" stroke="black" stroke-opacity="1">
      <text x="2" xml:space="preserve" y="41" clip-path="url(#clipPath19)" stroke="none">+saisirUtilisateur()</text>
    </g>
    <g font-size="11px" transform="matrix(1,0,0,1,69,324)" fill-opacity="1" fill="black" text-rendering="geometricPrecision" image-rendering="optimizeQuality" font-family="sans-serif" font-style="italic" stroke="black" stroke-opacity="1">
      <text x="2" xml:space="preserve" y="55" clip-path="url(#clipPath19)" stroke="none">+saisirNouvelEvenement(nomsExistants : String[])</text>
    </g>
    <g font-size="11px" transform="translate(69,310)" fill-opacity="1" fill="black" text-rendering="geometricPrecision" image-rendering="optimizeQuality" font-family="sans-serif" font-style="italic" stroke="black" font-weight="bold" stroke-opacity="1">
      <text x="135" xml:space="preserve" y="11" clip-path="url(#clipPath20)" stroke="none">IHM</text>
    </g>
    <g stroke-linecap="butt" font-size="11px" transform="translate(356,2)" fill-opacity="1" fill="black" text-rendering="geometricPrecision" image-rendering="optimizeQuality" font-family="sans-serif" stroke-linejoin="round" stroke="black" stroke-opacity="1" stroke-miterlimit="0">
      <path fill="none" d="M0 20 L441 20 L441 192 L0 192 L0 0 L88 0 L88 20" clip-path="url(#clipPath21)"/>
    </g>
    <g font-size="11px" transform="translate(356,22)" fill-opacity="1" fill="black" text-rendering="geometricPrecision" image-rendering="optimizeQuality" font-family="sans-serif" stroke="black" stroke-opacity="1">
      <text x="192" xml:space="preserve" y="11" clip-path="url(#clipPath22)" stroke="none">controleur</text>
    </g>
    <g font-size="11px" transform="translate(12,522)" fill-opacity="1" fill="rgb(230,159,0)" text-rendering="geometricPrecision" image-rendering="optimizeQuality" font-family="sans-serif" stroke="rgb(230,159,0)" font-weight="bold" stroke-opacity="1">
      <rect x="0" width="146" height="64" y="0" clip-path="url(#clipPath23)" stroke="none"/>
    </g>
    <g fill-opacity="1" text-rendering="geometricPrecision" stroke="black" stroke-linecap="butt" transform="translate(12,522)" stroke-miterlimit="0" stroke-opacity="1" fill="black" font-weight="bold" font-family="sans-serif" stroke-linejoin="round" font-size="11px" image-rendering="optimizeQuality">
      <rect fill="none" x="0" width="146" height="64" y="0" clip-path="url(#clipPath23)"/>
      <line y2="14" fill="none" x1="0" clip-path="url(#clipPath23)" x2="146" y1="14"/>
    </g>
    <g font-size="11px" transform="matrix(1,0,0,1,12,536)" fill-opacity="1" fill="black" text-rendering="geometricPrecision" image-rendering="optimizeQuality" font-family="sans-serif" stroke="black" stroke-opacity="1">
      <text x="2" xml:space="preserve" y="13" clip-path="url(#clipPath24)" stroke="none">+email : String</text>
    </g>
    <g font-size="11px" transform="matrix(1,0,0,1,12,536)" fill-opacity="1" fill="black" text-rendering="geometricPrecision" image-rendering="optimizeQuality" font-family="sans-serif" stroke="black" stroke-opacity="1">
      <text x="2" xml:space="preserve" y="27" clip-path="url(#clipPath24)" stroke="none">+nom : String</text>
    </g>
    <g font-size="11px" transform="matrix(1,0,0,1,12,536)" fill-opacity="1" fill="black" text-rendering="geometricPrecision" image-rendering="optimizeQuality" font-family="sans-serif" stroke="black" stroke-opacity="1">
      <text x="2" xml:space="preserve" y="41" clip-path="url(#clipPath24)" stroke="none">+prenom : String</text>
    </g>
    <g font-size="11px" transform="translate(12,522)" fill-opacity="1" fill="black" text-rendering="geometricPrecision" image-rendering="optimizeQuality" font-family="sans-serif" stroke="black" font-weight="bold" stroke-opacity="1">
      <text x="24" xml:space="preserve" y="11" clip-path="url(#clipPath25)" stroke="none">InfosUtilisateur</text>
    </g>
    <g font-size="11px" transform="translate(265,522)" fill-opacity="1" fill="rgb(230,159,0)" text-rendering="geometricPrecision" image-rendering="optimizeQuality" font-family="sans-serif" stroke="rgb(230,159,0)" font-weight="bold" stroke-opacity="1">
      <rect x="0" width="166" height="64" y="0" clip-path="url(#clipPath26)" stroke="none"/>
    </g>
    <g fill-opacity="1" text-rendering="geometricPrecision" stroke="black" stroke-linecap="butt" transform="translate(265,522)" stroke-miterlimit="0" stroke-opacity="1" fill="black" font-weight="bold" font-family="sans-serif" stroke-linejoin="round" font-size="11px" image-rendering="optimizeQuality">
      <rect fill="none" x="0" width="166" height="64" y="0" clip-path="url(#clipPath26)"/>
      <line y2="14" fill="none" x1="0" clip-path="url(#clipPath26)" x2="166" y1="14"/>
    </g>
    <g font-size="11px" transform="matrix(1,0,0,1,265,536)" fill-opacity="1" fill="black" text-rendering="geometricPrecision" image-rendering="optimizeQuality" font-family="sans-serif" stroke="black" stroke-opacity="1">
      <text x="2" xml:space="preserve" y="13" clip-path="url(#clipPath27)" stroke="none">+nom : String</text>
    </g>
    <g font-size="11px" transform="matrix(1,0,0,1,265,536)" fill-opacity="1" fill="black" text-rendering="geometricPrecision" image-rendering="optimizeQuality" font-family="sans-serif" stroke="black" stroke-opacity="1">
      <text x="2" xml:space="preserve" y="27" clip-path="url(#clipPath27)" stroke="none">+dateDebut : Date</text>
    </g>
    <g font-size="11px" transform="matrix(1,0,0,1,265,536)" fill-opacity="1" fill="black" text-rendering="geometricPrecision" image-rendering="optimizeQuality" font-family="sans-serif" stroke="black" stroke-opacity="1">
      <text x="2" xml:space="preserve" y="41" clip-path="url(#clipPath27)" stroke="none">+dateFin : Date</text>
    </g>
    <g font-size="11px" transform="translate(265,522)" fill-opacity="1" fill="black" text-rendering="geometricPrecision" image-rendering="optimizeQuality" font-family="sans-serif" stroke="black" font-weight="bold" stroke-opacity="1">
      <text x="10" xml:space="preserve" y="11" clip-path="url(#clipPath28)" stroke="none">InfosNouvelEvenement</text>
    </g>
    <g font-size="11px" transform="translate(432,70)" fill-opacity="1" fill="rgb(0,158,115)" text-rendering="geometricPrecision" image-rendering="optimizeQuality" font-family="sans-serif" stroke="rgb(0,158,115)" font-weight="bold" stroke-opacity="1">
      <rect x="0" width="291" height="92" y="0" clip-path="url(#clipPath29)" stroke="none"/>
    </g>
    <g fill-opacity="1" text-rendering="geometricPrecision" stroke="black" stroke-linecap="butt" transform="translate(432,70)" stroke-miterlimit="0" stroke-opacity="1" fill="black" font-weight="bold" font-family="sans-serif" stroke-linejoin="round" font-size="11px" image-rendering="optimizeQuality">
      <rect fill="none" x="0" width="291" height="92" y="0" clip-path="url(#clipPath29)"/>
      <line y2="14" fill="none" x1="0" clip-path="url(#clipPath29)" x2="291" y1="14"/>
    </g>
    <g font-size="11px" transform="matrix(1,0,0,1,432,84)" fill-opacity="1" fill="black" text-rendering="geometricPrecision" image-rendering="optimizeQuality" font-family="sans-serif" stroke="black" stroke-opacity="1">
      <text x="2" xml:space="preserve" y="13" clip-path="url(#clipPath30)" stroke="none">+demarrer()</text>
    </g>
    <g font-size="11px" transform="matrix(1,0,0,1,432,84)" fill-opacity="1" fill="black" text-rendering="geometricPrecision" image-rendering="optimizeQuality" font-family="sans-serif" stroke="black" stroke-opacity="1">
      <text x="2" xml:space="preserve" y="27" clip-path="url(#clipPath30)" stroke="none">+saisirUtilisateur()</text>
    </g>
    <g font-size="11px" transform="matrix(1,0,0,1,432,84)" fill-opacity="1" fill="black" text-rendering="geometricPrecision" image-rendering="optimizeQuality" font-family="sans-serif" stroke="black" stroke-opacity="1">
      <text x="2" xml:space="preserve" y="41" clip-path="url(#clipPath30)" stroke="none">+creerUtilisateur(infos : InfosUtilisateur)</text>
    </g>
    <g font-size="11px" transform="matrix(1,0,0,1,432,84)" fill-opacity="1" fill="black" text-rendering="geometricPrecision" image-rendering="optimizeQuality" font-family="sans-serif" stroke="black" stroke-opacity="1">
      <text x="2" xml:space="preserve" y="55" clip-path="url(#clipPath30)" stroke="none">+saisirEvenement()</text>
    </g>
    <g font-size="11px" transform="matrix(1,0,0,1,432,84)" fill-opacity="1" fill="black" text-rendering="geometricPrecision" image-rendering="optimizeQuality" font-family="sans-serif" stroke="black" stroke-opacity="1">
      <text x="2" xml:space="preserve" y="69" clip-path="url(#clipPath30)" stroke="none">+creerEvenement(infos : InfosNouvelEvenement)</text>
    </g>
    <g font-size="11px" transform="translate(432,70)" fill-opacity="1" fill="black" text-rendering="geometricPrecision" image-rendering="optimizeQuality" font-family="sans-serif" stroke="black" font-weight="bold" stroke-opacity="1">
      <text x="111" xml:space="preserve" y="11" clip-path="url(#clipPath31)" stroke="none">Controleur</text>
    </g>
    <g font-size="11px" transform="translate(964,461)" fill-opacity="1" fill="black" text-rendering="geometricPrecision" image-rendering="optimizeQuality" font-family="sans-serif" stroke="black" stroke-opacity="1">
      <text x="10" xml:space="preserve" y="45" clip-path="url(#clipPath33)" stroke="none">utilisateurs</text>
    </g>
    <g font-size="11px" transform="translate(920,481)" fill-opacity="1" fill="black" text-rendering="geometricPrecision" image-rendering="optimizeQuality" font-family="sans-serif" stroke="black" stroke-opacity="1">
      <text x="10" xml:space="preserve" y="25" clip-path="url(#clipPath35)" stroke="none">0..1</text>
    </g>
    <g font-size="11px" transform="translate(159,534)" fill-opacity="1" fill="black" text-rendering="geometricPrecision" image-rendering="optimizeQuality" font-family="sans-serif" stroke="black" stroke-opacity="1">
      <text x="10" xml:space="preserve" y="32" clip-path="url(#clipPath37)" stroke="none">admin</text>
    </g>
    <g font-size="11px" transform="translate(152,526)" fill-opacity="1" fill="black" text-rendering="geometricPrecision" image-rendering="optimizeQuality" font-family="sans-serif" stroke="black" stroke-opacity="1">
      <text x="16" xml:space="preserve" y="24" clip-path="url(#clipPath39)" stroke="none">1</text>
    </g>
    <g font-size="11px" transform="translate(1084,503)" fill-opacity="1" fill="black" text-rendering="geometricPrecision" image-rendering="optimizeQuality" font-family="sans-serif" stroke="black" stroke-opacity="1">
      <text x="10" xml:space="preserve" y="58" clip-path="url(#clipPath41)" stroke="none">administrateurs</text>
    </g>
    <g font-size="11px" transform="translate(1144,534)" fill-opacity="1" fill="black" text-rendering="geometricPrecision" image-rendering="optimizeQuality" font-family="sans-serif" stroke="black" stroke-opacity="1">
      <text x="10" xml:space="preserve" y="11" clip-path="url(#clipPath43)" stroke="none">evenementsAdministres</text>
    </g>
    <g font-size="11px" transform="translate(1078,520)" fill-opacity="1" fill="black" text-rendering="geometricPrecision" image-rendering="optimizeQuality" font-family="sans-serif" stroke="black" stroke-opacity="1">
      <text x="10" xml:space="preserve" y="25" clip-path="url(#clipPath35)" stroke="none">0..1</text>
    </g>
    <g font-size="11px" transform="translate(1259,536)" fill-opacity="1" fill="black" text-rendering="geometricPrecision" image-rendering="optimizeQuality" font-family="sans-serif" stroke="black" stroke-opacity="1">
      <text x="10" xml:space="preserve" y="25" clip-path="url(#clipPath35)" stroke="none">0..1</text>
    </g>
    <g font-size="11px" transform="translate(370,336)" fill-opacity="1" fill="black" text-rendering="geometricPrecision" image-rendering="optimizeQuality" font-family="sans-serif" stroke="black" stroke-opacity="1">
      <text x="10" xml:space="preserve" y="25" clip-path="url(#clipPath35)" stroke="none">ihm</text>
    </g>
    <g font-size="11px" transform="translate(364,321)" fill-opacity="1" fill="black" text-rendering="geometricPrecision" image-rendering="optimizeQuality" font-family="sans-serif" stroke="black" stroke-opacity="1">
      <text x="16" xml:space="preserve" y="24" clip-path="url(#clipPath39)" stroke="none">1</text>
    </g>
    <g font-size="11px" transform="translate(1449,460)" fill-opacity="1" fill="black" text-rendering="geometricPrecision" image-rendering="optimizeQuality" font-family="sans-serif" stroke="black" stroke-opacity="1">
      <text x="9" xml:space="preserve" y="48" clip-path="url(#clipPath45)" stroke="none">evenements</text>
    </g>
    <g font-size="11px" transform="translate(1407,480)" fill-opacity="1" fill="black" text-rendering="geometricPrecision" image-rendering="optimizeQuality" font-family="sans-serif" stroke="black" stroke-opacity="1">
      <text x="10" xml:space="preserve" y="25" clip-path="url(#clipPath35)" stroke="none">0..1</text>
    </g>
    <g font-size="11px" transform="translate(850,333)" fill-opacity="1" fill="black" text-rendering="geometricPrecision" image-rendering="optimizeQuality" font-family="sans-serif" stroke="black" stroke-opacity="1">
      <text x="10" xml:space="preserve" y="11" clip-path="url(#clipPath47)" stroke="none">genevent</text>
    </g>
    <g font-size="11px" transform="translate(893,352)" fill-opacity="1" fill="black" text-rendering="geometricPrecision" image-rendering="optimizeQuality" font-family="sans-serif" stroke="black" stroke-opacity="1">
      <text x="10" xml:space="preserve" y="11" clip-path="url(#clipPath49)" stroke="none">1</text>
    </g>
    <g stroke-linecap="butt" font-size="11px" transform="translate(1023,493)" fill-opacity="1" fill="black" text-rendering="geometricPrecision" image-rendering="optimizeQuality" font-family="sans-serif" stroke-linejoin="round" stroke="black" stroke-opacity="1">
      <line y2="56" fill="none" x1="56" clip-path="url(#clipPath51)" x2="282" y1="56"/>
    </g>
    <g stroke-linecap="butt" font-size="11px" transform="translate(915,368)" fill-opacity="1" fill="black" text-rendering="geometricPrecision" image-rendering="optimizeQuality" font-family="sans-serif" stroke-linejoin="round" stroke="black" stroke-opacity="1">
      <line y2="145" fill="none" x1="50" clip-path="url(#clipPath53)" x2="50" y1="50"/>
      <line y2="63" fill="none" x1="44" clip-path="url(#clipPath53)" x2="56" y1="54"/>
      <line y2="63" fill="none" x1="56" clip-path="url(#clipPath53)" x2="44" y1="54"/>
      <line y2="133" fill="none" x1="50" clip-path="url(#clipPath53)" x2="56" y1="145"/>
      <line y2="133" fill="none" x1="50" clip-path="url(#clipPath53)" x2="44" y1="145"/>
    </g>
    <g stroke-linecap="butt" font-size="11px" transform="translate(1394,362)" fill-opacity="1" fill="black" text-rendering="geometricPrecision" image-rendering="optimizeQuality" font-family="sans-serif" stroke-linejoin="round" stroke="black" stroke-opacity="1">
      <line y2="152" fill="none" x1="56" clip-path="url(#clipPath55)" x2="56" y1="79"/>
      <polygon points=" 56 55 50 67 56 79 62 67" clip-path="url(#clipPath55)" stroke="none"/>
      <polygon fill="none" points=" 56 55 50 67 56 79 62 67" clip-path="url(#clipPath55)"/>
    </g>
    <g stroke-linecap="butt" font-size="11px" transform="translate(103,339)" fill-opacity="1" fill="black" text-rendering="geometricPrecision" image-rendering="optimizeQuality" font-family="sans-serif" stroke-linejoin="round" stroke="black" stroke-opacity="1">
      <line y2="182" fill="none" x1="50" clip-path="url(#clipPath57)" x2="50" y1="50"/>
      <circle fill="none" r="6" clip-path="url(#clipPath57)" cx="50" cy="56"/>
      <line y2="56" fill="none" x1="55" clip-path="url(#clipPath57)" x2="45" y1="56"/>
    </g>
    <g stroke-linecap="butt" font-size="11px" transform="translate(220,339)" fill-opacity="1" fill="black" text-rendering="geometricPrecision" image-rendering="optimizeQuality" font-family="sans-serif" stroke-linejoin="round" stroke="black" stroke-opacity="1">
      <line y2="182" fill="none" x1="50" clip-path="url(#clipPath57)" x2="50" y1="50"/>
      <circle fill="none" r="6" clip-path="url(#clipPath57)" cx="50" cy="56"/>
      <line y2="56" fill="none" x1="55" clip-path="url(#clipPath57)" x2="45" y1="56"/>
    </g>
    <g stroke-linecap="butt" font-size="11px" transform="translate(109,504)" fill-opacity="1" fill="black" text-rendering="geometricPrecision" image-rendering="optimizeQuality" font-family="sans-serif" stroke-linejoin="round" stroke="black" stroke-opacity="1">
      <line y2="50" fill="none" x1="50" clip-path="url(#clipPath59)" x2="155" y1="50"/>
      <line y2="56" fill="none" x1="50" clip-path="url(#clipPath59)" x2="62" y1="50"/>
      <line y2="44" fill="none" x1="50" clip-path="url(#clipPath59)" x2="62" y1="50"/>
      <line y2="56" fill="none" x1="150" clip-path="url(#clipPath59)" x2="141" y1="44"/>
      <line y2="44" fill="none" x1="150" clip-path="url(#clipPath59)" x2="141" y1="56"/>
    </g>
    <g stroke-linecap="butt" font-size="11px" transform="translate(317,113)" fill-opacity="1" fill="black" text-rendering="geometricPrecision" image-rendering="optimizeQuality" font-family="sans-serif" stroke-linejoin="round" stroke="black" stroke-opacity="1">
      <line y2="236" fill="none" x1="215" clip-path="url(#clipPath61)" x2="215" y1="50"/>
      <line y2="236" fill="none" x1="215" clip-path="url(#clipPath61)" x2="50" y1="236"/>
      <line y2="63" fill="none" x1="209" clip-path="url(#clipPath61)" x2="221" y1="54"/>
      <line y2="63" fill="none" x1="221" clip-path="url(#clipPath61)" x2="209" y1="54"/>
      <line y2="242" fill="none" x1="50" clip-path="url(#clipPath61)" x2="62" y1="236"/>
      <line y2="230" fill="none" x1="50" clip-path="url(#clipPath61)" x2="62" y1="236"/>
    </g>
    <g stroke-linecap="butt" font-size="11px" transform="translate(572,106)" fill-opacity="1" fill="black" text-rendering="geometricPrecision" image-rendering="optimizeQuality" font-family="sans-serif" stroke-linejoin="round" stroke="black" stroke-opacity="1">
      <line y2="243" fill="none" x1="56" clip-path="url(#clipPath63)" x2="56" y1="56"/>
      <line y2="243" fill="none" x1="56" clip-path="url(#clipPath63)" x2="352" y1="243"/>
      <line y2="69" fill="none" x1="50" clip-path="url(#clipPath63)" x2="62" y1="60"/>
      <line y2="69" fill="none" x1="62" clip-path="url(#clipPath63)" x2="50" y1="60"/>
      <line y2="237" fill="none" x1="352" clip-path="url(#clipPath63)" x2="340" y1="243"/>
      <line y2="249" fill="none" x1="352" clip-path="url(#clipPath63)" x2="340" y1="243"/>
    </g>
  </g>
</svg>
