<?xml version="1.0" encoding="UTF-8"?>
<!DOCTYPE svg PUBLIC "-//W3C//DTD SVG 1.0//EN" "http://www.w3.org/TR/2001/REC-SVG-20010904/DTD/svg10.dtd">
<svg xmlns:xlink="http://www.w3.org/1999/xlink" xmlns="http://www.w3.org/2000/svg" fill-opacity="0" color-rendering="auto" color-interpolation="auto" text-rendering="auto" stroke="rgb(0,0,0)" stroke-linecap="square" width="715" stroke-miterlimit="10" shape-rendering="auto" stroke-opacity="0" fill="rgb(0,0,0)" stroke-dasharray="none" font-weight="normal" stroke-width="1" height="261" font-family="'Dialog'" font-style="normal" stroke-linejoin="miter" font-size="12px" stroke-dashoffset="0" image-rendering="auto">
  <!--Generated by the Batik Graphics2D SVG Generator-->
  <defs id="genericDefs"/>
  <g>
    <defs id="defs1">
      <clipPath clipPathUnits="userSpaceOnUse" id="clipPath1">
        <path d="M-7 -7 L163 -7 L163 76 L-7 76 L-7 -7 Z"/>
      </clipPath>
      <clipPath clipPathUnits="userSpaceOnUse" id="clipPath2">
        <path d="M0 0 L0 51 L152 51 L152 0 Z"/>
      </clipPath>
      <clipPath clipPathUnits="userSpaceOnUse" id="clipPath3">
        <path d="M0 0 L0 14 L152 14 L152 0 Z"/>
      </clipPath>
      <clipPath clipPathUnits="userSpaceOnUse" id="clipPath4">
        <path d="M-7 -7 L151 -7 L151 75 L-7 75 L-7 -7 Z"/>
      </clipPath>
      <clipPath clipPathUnits="userSpaceOnUse" id="clipPath5">
        <path d="M0 0 L0 50 L140 50 L140 0 Z"/>
      </clipPath>
      <clipPath clipPathUnits="userSpaceOnUse" id="clipPath6">
        <path d="M0 0 L0 14 L140 14 L140 0 Z"/>
      </clipPath>
      <clipPath clipPathUnits="userSpaceOnUse" id="clipPath7">
        <path d="M-7 -7 L145 -7 L145 75 L-7 75 L-7 -7 Z"/>
      </clipPath>
      <clipPath clipPathUnits="userSpaceOnUse" id="clipPath8">
        <path d="M0 0 L0 50 L134 50 L134 0 Z"/>
      </clipPath>
      <clipPath clipPathUnits="userSpaceOnUse" id="clipPath9">
        <path d="M0 0 L0 14 L134 14 L134 0 Z"/>
      </clipPath>
      <clipPath clipPathUnits="userSpaceOnUse" id="clipPath10">
        <path d="M-7 -7 L60 -7 L60 31 L-7 31 L-7 -7 Z"/>
      </clipPath>
      <clipPath clipPathUnits="userSpaceOnUse" id="clipPath11">
        <path d="M0 0 L0 18 L47 18 L47 0 Z"/>
      </clipPath>
      <clipPath clipPathUnits="userSpaceOnUse" id="clipPath12">
        <path d="M-7 -7 L66 -7 L66 31 L-7 31 L-7 -7 Z"/>
      </clipPath>
      <clipPath clipPathUnits="userSpaceOnUse" id="clipPath13">
        <path d="M0 0 L0 18 L53 18 L53 0 Z"/>
      </clipPath>
      <clipPath clipPathUnits="userSpaceOnUse" id="clipPath14">
        <path d="M-7 -7 L119 -7 L119 119 L-7 119 L-7 -7 Z"/>
      </clipPath>
      <clipPath clipPathUnits="userSpaceOnUse" id="clipPath15">
        <path d="M0 0 L0 108 L108 108 L108 0 Z"/>
      </clipPath>
      <clipPath clipPathUnits="userSpaceOnUse" id="clipPath16">
        <path d="M-7 -7 L164 -7 L164 25 L-7 25 L-7 -7 Z"/>
      </clipPath>
      <clipPath clipPathUnits="userSpaceOnUse" id="clipPath17">
        <path d="M0 0 L0 14 L154 14 L154 0 Z"/>
      </clipPath>
      <clipPath clipPathUnits="userSpaceOnUse" id="clipPath18">
        <path d="M-7 -7 L53 -7 L53 53 L-7 53 L-7 -7 Z"/>
      </clipPath>
      <clipPath clipPathUnits="userSpaceOnUse" id="clipPath19">
        <path d="M0 0 L0 42 L42 42 L42 0 Z"/>
      </clipPath>
      <clipPath clipPathUnits="userSpaceOnUse" id="clipPath20">
        <path d="M-7 -7 L93 -7 L93 93 L-7 93 L-7 -7 Z"/>
      </clipPath>
      <clipPath clipPathUnits="userSpaceOnUse" id="clipPath21">
        <path d="M0 0 L0 82 L82 82 L82 0 Z"/>
      </clipPath>
      <clipPath clipPathUnits="userSpaceOnUse" id="clipPath22">
        <path d="M-7 -7 L101 -7 L101 25 L-7 25 L-7 -7 Z"/>
      </clipPath>
      <clipPath clipPathUnits="userSpaceOnUse" id="clipPath23">
        <path d="M0 0 L0 14 L90 14 L90 0 Z"/>
      </clipPath>
      <clipPath clipPathUnits="userSpaceOnUse" id="clipPath24">
        <path d="M0 0 L411 0 L411 104 L0 104 L0 0 Z"/>
      </clipPath>
      <clipPath clipPathUnits="userSpaceOnUse" id="clipPath25">
        <path d="M0 0 L0 104 L411 104 L411 0 Z"/>
      </clipPath>
      <clipPath clipPathUnits="userSpaceOnUse" id="clipPath26">
        <path d="M0 0 L302 0 L302 185 L0 185 L0 0 Z"/>
      </clipPath>
      <clipPath clipPathUnits="userSpaceOnUse" id="clipPath27">
        <path d="M0 0 L0 185 L302 185 L302 0 Z"/>
      </clipPath>
      <clipPath clipPathUnits="userSpaceOnUse" id="clipPath28">
        <path d="M0 0 L303 0 L303 184 L0 184 L0 0 Z"/>
      </clipPath>
      <clipPath clipPathUnits="userSpaceOnUse" id="clipPath29">
        <path d="M0 0 L0 184 L303 184 L303 0 Z"/>
      </clipPath>
    </defs>
    <g font-size="11px" transform="translate(271,2)" fill-opacity="1" fill="white" text-rendering="geometricPrecision" image-rendering="optimizeQuality" font-family="sans-serif" stroke="white" font-weight="bold" stroke-opacity="1">
      <rect x="0" width="152" height="65" y="0" clip-path="url(#clipPath1)" stroke="none"/>
    </g>
    <g fill-opacity="1" text-rendering="geometricPrecision" stroke="black" stroke-linecap="butt" transform="translate(271,2)" stroke-miterlimit="0" stroke-opacity="1" fill="black" font-weight="bold" font-family="sans-serif" stroke-linejoin="round" font-size="11px" image-rendering="optimizeQuality">
      <rect fill="none" x="0" width="152" height="65" y="0" clip-path="url(#clipPath1)"/>
      <line y2="14" fill="none" x1="0" clip-path="url(#clipPath1)" x2="152" y1="14"/>
    </g>
    <g font-size="11px" transform="translate(271,2)" fill-opacity="1" fill="black" text-rendering="geometricPrecision" image-rendering="optimizeQuality" font-family="sans-serif" stroke="black" font-weight="bold" stroke-opacity="1">
      <text x="46" xml:space="preserve" y="11" clip-path="url(#clipPath3)" stroke="none">GenEvent</text>
    </g>
    <g font-size="11px" transform="translate(2,159)" fill-opacity="1" fill="white" text-rendering="geometricPrecision" image-rendering="optimizeQuality" font-family="sans-serif" stroke="white" font-weight="bold" stroke-opacity="1">
      <rect x="0" width="140" height="64" y="0" clip-path="url(#clipPath4)" stroke="none"/>
    </g>
    <g fill-opacity="1" text-rendering="geometricPrecision" stroke="black" stroke-linecap="butt" transform="translate(2,159)" stroke-miterlimit="0" stroke-opacity="1" fill="black" font-weight="bold" font-family="sans-serif" stroke-linejoin="round" font-size="11px" image-rendering="optimizeQuality">
      <rect fill="none" x="0" width="140" height="64" y="0" clip-path="url(#clipPath4)"/>
      <line y2="14" fill="none" x1="0" clip-path="url(#clipPath4)" x2="140" y1="14"/>
    </g>
    <g font-size="11px" transform="matrix(1,0,0,1,2,173)" fill-opacity="1" fill="black" text-rendering="geometricPrecision" image-rendering="optimizeQuality" font-family="sans-serif" stroke="black" stroke-opacity="1">
      <text x="2" xml:space="preserve" y="13" clip-path="url(#clipPath5)" stroke="none">-email : String {unique}</text>
    </g>
    <g font-size="11px" transform="matrix(1,0,0,1,2,173)" fill-opacity="1" fill="black" text-rendering="geometricPrecision" image-rendering="optimizeQuality" font-family="sans-serif" stroke="black" stroke-opacity="1">
      <text x="2" xml:space="preserve" y="27" clip-path="url(#clipPath5)" stroke="none">-nom : String</text>
    </g>
    <g font-size="11px" transform="matrix(1,0,0,1,2,173)" fill-opacity="1" fill="black" text-rendering="geometricPrecision" image-rendering="optimizeQuality" font-family="sans-serif" stroke="black" stroke-opacity="1">
      <text x="2" xml:space="preserve" y="41" clip-path="url(#clipPath5)" stroke="none">-prenom : String</text>
    </g>
    <g font-size="11px" transform="translate(2,159)" fill-opacity="1" fill="black" text-rendering="geometricPrecision" image-rendering="optimizeQuality" font-family="sans-serif" stroke="black" font-weight="bold" stroke-opacity="1">
      <text x="36" xml:space="preserve" y="11" clip-path="url(#clipPath6)" stroke="none">Utilisateur</text>
    </g>
    <g font-size="11px" transform="translate(555,159)" fill-opacity="1" fill="white" text-rendering="geometricPrecision" image-rendering="optimizeQuality" font-family="sans-serif" stroke="white" font-weight="bold" stroke-opacity="1">
      <rect x="0" width="134" height="64" y="0" clip-path="url(#clipPath7)" stroke="none"/>
    </g>
    <g fill-opacity="1" text-rendering="geometricPrecision" stroke="black" stroke-linecap="butt" transform="translate(555,159)" stroke-miterlimit="0" stroke-opacity="1" fill="black" font-weight="bold" font-family="sans-serif" stroke-linejoin="round" font-size="11px" image-rendering="optimizeQuality">
      <rect fill="none" x="0" width="134" height="64" y="0" clip-path="url(#clipPath7)"/>
      <line y2="14" fill="none" x1="0" clip-path="url(#clipPath7)" x2="134" y1="14"/>
    </g>
    <g font-size="11px" transform="matrix(1,0,0,1,555,173)" fill-opacity="1" fill="black" text-rendering="geometricPrecision" image-rendering="optimizeQuality" font-family="sans-serif" stroke="black" stroke-opacity="1">
      <text x="2" xml:space="preserve" y="13" clip-path="url(#clipPath8)" stroke="none">-nom : String {unique}</text>
    </g>
    <g font-size="11px" transform="matrix(1,0,0,1,555,173)" fill-opacity="1" fill="black" text-rendering="geometricPrecision" image-rendering="optimizeQuality" font-family="sans-serif" stroke="black" stroke-opacity="1">
      <text x="2" xml:space="preserve" y="27" clip-path="url(#clipPath8)" stroke="none">-dateDebut : Date</text>
    </g>
    <g font-size="11px" transform="matrix(1,0,0,1,555,173)" fill-opacity="1" fill="black" text-rendering="geometricPrecision" image-rendering="optimizeQuality" font-family="sans-serif" stroke="black" stroke-opacity="1">
      <text x="2" xml:space="preserve" y="41" clip-path="url(#clipPath8)" stroke="none">-dateFin : Date</text>
    </g>
    <g font-size="11px" transform="translate(555,159)" fill-opacity="1" fill="black" text-rendering="geometricPrecision" image-rendering="optimizeQuality" font-family="sans-serif" stroke="black" font-weight="bold" stroke-opacity="1">
      <text x="31" xml:space="preserve" y="11" clip-path="url(#clipPath9)" stroke="none">Evenement</text>
    </g>
    <g font-size="11px" transform="translate(142,185)" fill-opacity="1" fill="white" text-rendering="geometricPrecision" image-rendering="optimizeQuality" font-family="sans-serif" stroke="white" stroke-opacity="1">
      <rect x="0" width="49" height="20" y="0" clip-path="url(#clipPath10)" stroke="none"/>
    </g>
    <g stroke-linecap="butt" font-size="11px" transform="translate(142,185)" fill-opacity="1" fill="black" text-rendering="geometricPrecision" image-rendering="optimizeQuality" font-family="sans-serif" stroke-linejoin="round" stroke="black" stroke-opacity="1" stroke-miterlimit="0">
      <rect fill="none" x="0" width="49" height="20" y="0" clip-path="url(#clipPath10)"/>
    </g>
    <g font-size="11px" transform="translate(143,186)" fill-opacity="1" fill="black" text-rendering="geometricPrecision" image-rendering="optimizeQuality" font-family="sans-serif" stroke="black" stroke-opacity="1">
      <text x="9" xml:space="preserve" y="11" clip-path="url(#clipPath11)" stroke="none">-nom</text>
    </g>
    <g font-size="11px" transform="translate(500,184)" fill-opacity="1" fill="white" text-rendering="geometricPrecision" image-rendering="optimizeQuality" font-family="sans-serif" stroke="white" stroke-opacity="1">
      <rect x="0" width="55" height="20" y="0" clip-path="url(#clipPath12)" stroke="none"/>
    </g>
    <g stroke-linecap="butt" font-size="11px" transform="translate(500,184)" fill-opacity="1" fill="black" text-rendering="geometricPrecision" image-rendering="optimizeQuality" font-family="sans-serif" stroke-linejoin="round" stroke="black" stroke-opacity="1" stroke-miterlimit="0">
      <rect fill="none" x="0" width="55" height="20" y="0" clip-path="url(#clipPath12)"/>
    </g>
    <g font-size="11px" transform="translate(501,185)" fill-opacity="1" fill="black" text-rendering="geometricPrecision" image-rendering="optimizeQuality" font-family="sans-serif" stroke="black" stroke-opacity="1">
      <text x="9" xml:space="preserve" y="11" clip-path="url(#clipPath13)" stroke="none">-email</text>
    </g>
    <g font-size="11px" transform="translate(271,67)" fill-opacity="1" fill="white" text-rendering="geometricPrecision" image-rendering="optimizeQuality" font-family="sans-serif" stroke="white" stroke-opacity="1">
      <rect x="0" width="55" height="20" y="0" clip-path="url(#clipPath12)" stroke="none"/>
    </g>
    <g stroke-linecap="butt" font-size="11px" transform="translate(271,67)" fill-opacity="1" fill="black" text-rendering="geometricPrecision" image-rendering="optimizeQuality" font-family="sans-serif" stroke-linejoin="round" stroke="black" stroke-opacity="1" stroke-miterlimit="0">
      <rect fill="none" x="0" width="55" height="20" y="0" clip-path="url(#clipPath12)"/>
    </g>
    <g font-size="11px" transform="translate(272,68)" fill-opacity="1" fill="black" text-rendering="geometricPrecision" image-rendering="optimizeQuality" font-family="sans-serif" stroke="black" stroke-opacity="1">
      <text x="9" xml:space="preserve" y="11" clip-path="url(#clipPath13)" stroke="none">-email</text>
    </g>
    <g font-size="11px" transform="translate(373,67)" fill-opacity="1" fill="white" text-rendering="geometricPrecision" image-rendering="optimizeQuality" font-family="sans-serif" stroke="white" stroke-opacity="1">
      <rect x="0" width="49" height="20" y="0" clip-path="url(#clipPath10)" stroke="none"/>
    </g>
    <g stroke-linecap="butt" font-size="11px" transform="translate(373,67)" fill-opacity="1" fill="black" text-rendering="geometricPrecision" image-rendering="optimizeQuality" font-family="sans-serif" stroke-linejoin="round" stroke="black" stroke-opacity="1" stroke-miterlimit="0">
      <rect fill="none" x="0" width="49" height="20" y="0" clip-path="url(#clipPath10)"/>
    </g>
    <g font-size="11px" transform="translate(374,68)" fill-opacity="1" fill="black" text-rendering="geometricPrecision" image-rendering="optimizeQuality" font-family="sans-serif" stroke="black" stroke-opacity="1">
      <text x="9" xml:space="preserve" y="11" clip-path="url(#clipPath11)" stroke="none">-nom</text>
    </g>
    <g font-size="11px" transform="translate(192,149)" fill-opacity="1" fill="black" text-rendering="geometricPrecision" image-rendering="optimizeQuality" font-family="sans-serif" stroke="black" stroke-opacity="1">
      <text x="10" xml:space="preserve" y="58" clip-path="url(#clipPath15)" stroke="none">administrateurs</text>
    </g>
    <g font-size="11px" transform="translate(341,179)" fill-opacity="1" fill="black" text-rendering="geometricPrecision" image-rendering="optimizeQuality" font-family="sans-serif" stroke="black" stroke-opacity="1">
      <text x="10" xml:space="preserve" y="11" clip-path="url(#clipPath17)" stroke="none">evenementsAdministres</text>
    </g>
    <g font-size="11px" transform="translate(192,166)" fill-opacity="1" fill="black" text-rendering="geometricPrecision" image-rendering="optimizeQuality" font-family="sans-serif" stroke="black" stroke-opacity="1">
      <text x="10" xml:space="preserve" y="25" clip-path="url(#clipPath19)" stroke="none">0..1</text>
    </g>
    <g font-size="11px" transform="translate(458,182)" fill-opacity="1" fill="black" text-rendering="geometricPrecision" image-rendering="optimizeQuality" font-family="sans-serif" stroke="black" stroke-opacity="1">
      <text x="10" xml:space="preserve" y="25" clip-path="url(#clipPath19)" stroke="none">0..1</text>
    </g>
    <g font-size="11px" transform="translate(74,111)" fill-opacity="1" fill="black" text-rendering="geometricPrecision" image-rendering="optimizeQuality" font-family="sans-serif" stroke="black" stroke-opacity="1">
      <text x="10" xml:space="preserve" y="45" clip-path="url(#clipPath21)" stroke="none">utilisateurs</text>
    </g>
    <g font-size="11px" transform="translate(31,131)" fill-opacity="1" fill="black" text-rendering="geometricPrecision" image-rendering="optimizeQuality" font-family="sans-serif" stroke="black" stroke-opacity="1">
      <text x="10" xml:space="preserve" y="25" clip-path="url(#clipPath19)" stroke="none">0..1</text>
    </g>
    <g font-size="11px" transform="translate(621,143)" fill-opacity="1" fill="black" text-rendering="geometricPrecision" image-rendering="optimizeQuality" font-family="sans-serif" stroke="black" stroke-opacity="1">
      <text x="10" xml:space="preserve" y="11" clip-path="url(#clipPath23)" stroke="none">evenements</text>
    </g>
    <g font-size="11px" transform="translate(580,130)" fill-opacity="1" fill="black" text-rendering="geometricPrecision" image-rendering="optimizeQuality" font-family="sans-serif" stroke="black" stroke-opacity="1">
      <text x="10" xml:space="preserve" y="25" clip-path="url(#clipPath19)" stroke="none">0..1</text>
    </g>
    <g stroke-linecap="butt" font-size="11px" transform="translate(142,145)" fill-opacity="1" fill="black" text-rendering="geometricPrecision" image-rendering="optimizeQuality" font-family="sans-serif" stroke-linejoin="round" stroke="black" stroke-opacity="1">
      <line y2="50" fill="none" x1="50" clip-path="url(#clipPath25)" x2="357" y1="50"/>
    </g>
    <g stroke-linecap="butt" font-size="11px" transform="translate(23,28)" fill-opacity="1" fill="black" text-rendering="geometricPrecision" image-rendering="optimizeQuality" font-family="sans-serif" stroke-linejoin="round" stroke="black" stroke-opacity="1">
      <line y2="50" fill="none" x1="248" clip-path="url(#clipPath27)" x2="50" y1="50"/>
      <line y2="131" fill="none" x1="50" clip-path="url(#clipPath27)" x2="50" y1="50"/>
      <line y2="56" fill="none" x1="243" clip-path="url(#clipPath27)" x2="234" y1="44"/>
      <line y2="44" fill="none" x1="243" clip-path="url(#clipPath27)" x2="234" y1="56"/>
      <line y2="119" fill="none" x1="50" clip-path="url(#clipPath27)" x2="56" y1="131"/>
      <line y2="119" fill="none" x1="50" clip-path="url(#clipPath27)" x2="44" y1="131"/>
    </g>
    <g stroke-linecap="butt" font-size="11px" transform="translate(373,28)" fill-opacity="1" fill="black" text-rendering="geometricPrecision" image-rendering="optimizeQuality" font-family="sans-serif" stroke-linejoin="round" stroke="black" stroke-opacity="1">
      <line y2="50" fill="none" x1="74" clip-path="url(#clipPath29)" x2="249" y1="50"/>
      <line y2="130" fill="none" x1="249" clip-path="url(#clipPath29)" x2="249" y1="50"/>
      <polygon points=" 50 50 62 56 74 50 62 44" clip-path="url(#clipPath29)" stroke="none"/>
      <polygon fill="none" points=" 50 50 62 56 74 50 62 44" clip-path="url(#clipPath29)"/>
    </g>
  </g>
</svg>
