<?xml version="1.0" encoding="UTF-8"?>
<!DOCTYPE svg PUBLIC "-//W3C//DTD SVG 1.0//EN" "http://www.w3.org/TR/2001/REC-SVG-20010904/DTD/svg10.dtd">
<svg xmlns:xlink="http://www.w3.org/1999/xlink" xmlns="http://www.w3.org/2000/svg" fill-opacity="0" color-rendering="auto" color-interpolation="auto" text-rendering="auto" stroke="rgb(0,0,0)" stroke-linecap="square" width="635" stroke-miterlimit="10" shape-rendering="auto" stroke-opacity="0" fill="rgb(0,0,0)" stroke-dasharray="none" font-weight="normal" stroke-width="1" height="688" font-family="'Dialog'" font-style="normal" stroke-linejoin="miter" font-size="12px" stroke-dashoffset="0" image-rendering="auto">
  <!--Generated by the Batik Graphics2D SVG Generator-->
  <defs id="genericDefs"/>
  <g>
    <defs id="defs1">
      <clipPath clipPathUnits="userSpaceOnUse" id="clipPath1">
        <path d="M-7 -7 L81 -7 L81 693 L-7 693 L-7 -7 Z"/>
      </clipPath>
      <clipPath clipPathUnits="userSpaceOnUse" id="clipPath2">
        <path d="M-7 -7 L100 -7 L100 693 L-7 693 L-7 -7 Z"/>
      </clipPath>
      <clipPath clipPathUnits="userSpaceOnUse" id="clipPath3">
        <path d="M-7 -7 L19 -7 L19 35 L-7 35 L-7 -7 Z"/>
      </clipPath>
      <clipPath clipPathUnits="userSpaceOnUse" id="clipPath4">
        <path d="M-7 -7 L19 -7 L19 85 L-7 85 L-7 -7 Z"/>
      </clipPath>
      <clipPath clipPathUnits="userSpaceOnUse" id="clipPath5">
        <path d="M-7 -7 L19 -7 L19 89 L-7 89 L-7 -7 Z"/>
      </clipPath>
      <clipPath clipPathUnits="userSpaceOnUse" id="clipPath6">
        <path d="M-7 -7 L19 -7 L19 590 L-7 590 L-7 -7 Z"/>
      </clipPath>
      <clipPath clipPathUnits="userSpaceOnUse" id="clipPath7">
        <path d="M-7 -7 L375 -7 L375 197 L-7 197 L-7 -7 Z"/>
      </clipPath>
      <clipPath clipPathUnits="userSpaceOnUse" id="clipPath8">
        <path d="M0 0 L0 14 L161 14 L161 0 Z"/>
      </clipPath>
      <clipPath clipPathUnits="userSpaceOnUse" id="clipPath9">
        <path d="M0 0 L0 4 L364 4 L364 0 Z"/>
      </clipPath>
      <clipPath clipPathUnits="userSpaceOnUse" id="clipPath10">
        <path d="M-7 -7 L355 -7 L355 61 L-7 61 L-7 -7 Z"/>
      </clipPath>
      <clipPath clipPathUnits="userSpaceOnUse" id="clipPath11">
        <path d="M0 0 L0 17 L28 17 L28 0 Z"/>
      </clipPath>
      <clipPath clipPathUnits="userSpaceOnUse" id="clipPath12">
        <path d="M0 0 L0 50 L344 50 L344 0 Z"/>
      </clipPath>
      <clipPath clipPathUnits="userSpaceOnUse" id="clipPath13">
        <path d="M-7 -7 L375 -7 L375 211 L-7 211 L-7 -7 Z"/>
      </clipPath>
      <clipPath clipPathUnits="userSpaceOnUse" id="clipPath14">
        <path d="M0 0 L0 14 L168 14 L168 0 Z"/>
      </clipPath>
      <clipPath clipPathUnits="userSpaceOnUse" id="clipPath15">
        <path d="M-7 -7 L375 -7 L375 86 L-7 86 L-7 -7 Z"/>
      </clipPath>
      <clipPath clipPathUnits="userSpaceOnUse" id="clipPath16">
        <path d="M-7 -7 L113 -7 L113 57 L-7 57 L-7 -7 Z"/>
      </clipPath>
      <clipPath clipPathUnits="userSpaceOnUse" id="clipPath17">
        <path d="M0 0 L0 46 L87 46 L87 0 Z"/>
      </clipPath>
      <clipPath clipPathUnits="userSpaceOnUse" id="clipPath18">
        <path d="M-7 -7 L91 -7 L91 57 L-7 57 L-7 -7 Z"/>
      </clipPath>
      <clipPath clipPathUnits="userSpaceOnUse" id="clipPath19">
        <path d="M0 0 L0 46 L65 46 L65 0 Z"/>
      </clipPath>
      <clipPath clipPathUnits="userSpaceOnUse" id="clipPath20">
        <path d="M-7 -7 L395 -7 L395 550 L-7 550 L-7 -7 Z"/>
      </clipPath>
      <clipPath clipPathUnits="userSpaceOnUse" id="clipPath21">
        <path d="M265 22 L265 36 L38 36 L38 22 ZM-7 -7 L-7 550 L395 550 L395 -7 Z"/>
      </clipPath>
      <clipPath clipPathUnits="userSpaceOnUse" id="clipPath22">
        <path d="M0 0 L0 17 L37 17 L37 0 Z"/>
      </clipPath>
      <clipPath clipPathUnits="userSpaceOnUse" id="clipPath23">
        <path d="M-7 -7 L395 -7 L395 533 L-7 533 L-7 -7 Z"/>
      </clipPath>
      <clipPath clipPathUnits="userSpaceOnUse" id="clipPath24">
        <path d="M0 0 L0 14 L247 14 L247 0 Z"/>
      </clipPath>
      <clipPath clipPathUnits="userSpaceOnUse" id="clipPath25">
        <path d="M0 0 L0 4 L384 4 L384 0 Z"/>
      </clipPath>
      <clipPath clipPathUnits="userSpaceOnUse" id="clipPath26">
        <path d="M-7 -7 L375 -7 L375 489 L-7 489 L-7 -7 Z"/>
      </clipPath>
      <clipPath clipPathUnits="userSpaceOnUse" id="clipPath27">
        <path d="M178 22 L178 36 L38 36 L38 22 ZM185 208 L185 222 L38 222 L38 208 ZM-7 -7 L-7 489 L375 489 L375 -7 Z"/>
      </clipPath>
      <clipPath clipPathUnits="userSpaceOnUse" id="clipPath28">
        <path d="M0 0 L0 17 L27 17 L27 0 Z"/>
      </clipPath>
      <clipPath clipPathUnits="userSpaceOnUse" id="clipPath29">
        <path d="M-70 -14 L140 -14 L140 28 L-70 28 L-70 -14 Z"/>
      </clipPath>
      <clipPath clipPathUnits="userSpaceOnUse" id="clipPath30">
        <path d="M-89 -14 L178 -14 L178 28 L-89 28 L-89 -14 Z"/>
      </clipPath>
      <clipPath clipPathUnits="userSpaceOnUse" id="clipPath31">
        <path d="M0 0 L381 0 L381 104 L0 104 L0 0 Z"/>
      </clipPath>
      <clipPath clipPathUnits="userSpaceOnUse" id="clipPath32">
        <path d="M264 31 L264 45 L109 45 L109 31 ZM0 0 L0 104 L381 104 L381 0 Z"/>
      </clipPath>
      <clipPath clipPathUnits="userSpaceOnUse" id="clipPath33">
        <path d="M250 31 L250 45 L122 45 L122 31 ZM0 0 L0 104 L381 104 L381 0 Z"/>
      </clipPath>
      <clipPath clipPathUnits="userSpaceOnUse" id="clipPath34">
        <path d="M254 31 L254 45 L119 45 L119 31 ZM0 0 L0 104 L381 104 L381 0 Z"/>
      </clipPath>
      <clipPath clipPathUnits="userSpaceOnUse" id="clipPath35">
        <path d="M0 0 L171 0 L171 104 L0 104 L0 0 Z"/>
      </clipPath>
      <clipPath clipPathUnits="userSpaceOnUse" id="clipPath36">
        <path d="M0 0 L0 104 L171 104 L171 0 Z"/>
      </clipPath>
      <clipPath clipPathUnits="userSpaceOnUse" id="clipPath37">
        <path d="M-135 -14 L270 -14 L270 28 L-135 28 L-135 -14 Z"/>
      </clipPath>
      <clipPath clipPathUnits="userSpaceOnUse" id="clipPath38">
        <path d="M-128 -14 L256 -14 L256 28 L-128 28 L-128 -14 Z"/>
      </clipPath>
      <clipPath clipPathUnits="userSpaceOnUse" id="clipPath39">
        <path d="M-155 -14 L310 -14 L310 28 L-155 28 L-155 -14 Z"/>
      </clipPath>
    </defs>
    <g font-size="11px" transform="translate(22,2)" fill-opacity="1" fill="rgb(230,159,0)" text-rendering="geometricPrecision" image-rendering="optimizeQuality" font-family="sans-serif" stroke="rgb(230,159,0)" stroke-opacity="1">
      <rect x="0" width="69" height="35" y="0" clip-path="url(#clipPath1)" stroke="none"/>
    </g>
    <g stroke-linecap="butt" font-size="11px" transform="translate(22,2)" fill-opacity="1" fill="black" text-rendering="geometricPrecision" image-rendering="optimizeQuality" font-family="sans-serif" stroke-linejoin="round" stroke="black" stroke-opacity="1" stroke-miterlimit="0">
      <rect fill="none" x="0" width="69" height="35" y="0" clip-path="url(#clipPath1)"/>
      <line clip-path="url(#clipPath1)" fill="none" x1="34" x2="34" y1="35" y2="682" stroke-linejoin="bevel" stroke-dasharray="8,3"/>
    </g>
    <g font-size="11px" transform="translate(298,2)" fill-opacity="1" fill="rgb(0,158,115)" text-rendering="geometricPrecision" image-rendering="optimizeQuality" font-family="sans-serif" stroke="rgb(0,158,115)" stroke-opacity="1">
      <rect x="0" width="88" height="35" y="0" clip-path="url(#clipPath2)" stroke="none"/>
    </g>
    <g stroke-linecap="butt" font-size="11px" transform="translate(298,2)" fill-opacity="1" fill="black" text-rendering="geometricPrecision" image-rendering="optimizeQuality" font-family="sans-serif" stroke-linejoin="round" stroke="black" stroke-opacity="1" stroke-miterlimit="0">
      <rect fill="none" x="0" width="88" height="35" y="0" clip-path="url(#clipPath2)"/>
      <line clip-path="url(#clipPath2)" fill="none" x1="44" x2="44" y1="35" y2="682" stroke-linejoin="bevel" stroke-dasharray="8,3"/>
    </g>
    <g font-size="11px" transform="translate(338,85)" fill-opacity="1" fill="rgb(0,158,115)" text-rendering="geometricPrecision" image-rendering="optimizeQuality" font-family="sans-serif" stroke="rgb(0,158,115)" stroke-opacity="1">
      <rect x="0" width="8" height="24" y="0" clip-path="url(#clipPath3)" stroke="none"/>
    </g>
    <g stroke-linecap="butt" font-size="11px" transform="translate(338,85)" fill-opacity="1" fill="black" text-rendering="geometricPrecision" image-rendering="optimizeQuality" font-family="sans-serif" stroke-linejoin="round" stroke="black" stroke-opacity="1" stroke-miterlimit="0">
      <rect fill="none" x="0" width="8" height="24" y="0" clip-path="url(#clipPath3)"/>
    </g>
    <g font-size="11px" transform="translate(338,248)" fill-opacity="1" fill="rgb(0,158,115)" text-rendering="geometricPrecision" image-rendering="optimizeQuality" font-family="sans-serif" stroke="rgb(0,158,115)" stroke-opacity="1">
      <rect x="0" width="8" height="74" y="0" clip-path="url(#clipPath4)" stroke="none"/>
    </g>
    <g stroke-linecap="butt" font-size="11px" transform="translate(338,248)" fill-opacity="1" fill="black" text-rendering="geometricPrecision" image-rendering="optimizeQuality" font-family="sans-serif" stroke-linejoin="round" stroke="black" stroke-opacity="1" stroke-miterlimit="0">
      <rect fill="none" x="0" width="8" height="74" y="0" clip-path="url(#clipPath4)"/>
    </g>
    <g font-size="11px" transform="translate(338,440)" fill-opacity="1" fill="rgb(0,158,115)" text-rendering="geometricPrecision" image-rendering="optimizeQuality" font-family="sans-serif" stroke="rgb(0,158,115)" stroke-opacity="1">
      <rect x="0" width="8" height="78" y="0" clip-path="url(#clipPath5)" stroke="none"/>
    </g>
    <g stroke-linecap="butt" font-size="11px" transform="translate(338,440)" fill-opacity="1" fill="black" text-rendering="geometricPrecision" image-rendering="optimizeQuality" font-family="sans-serif" stroke-linejoin="round" stroke="black" stroke-opacity="1" stroke-miterlimit="0">
      <rect fill="none" x="0" width="8" height="78" y="0" clip-path="url(#clipPath5)"/>
    </g>
    <g font-size="11px" transform="translate(53,85)" fill-opacity="1" fill="rgb(230,159,0)" text-rendering="geometricPrecision" image-rendering="optimizeQuality" font-family="sans-serif" stroke="rgb(230,159,0)" stroke-opacity="1">
      <rect x="0" width="8" height="579" y="0" clip-path="url(#clipPath6)" stroke="none"/>
    </g>
    <g stroke-linecap="butt" font-size="11px" transform="translate(53,85)" fill-opacity="1" fill="black" text-rendering="geometricPrecision" image-rendering="optimizeQuality" font-family="sans-serif" stroke-linejoin="round" stroke="black" stroke-opacity="1" stroke-miterlimit="0">
      <rect fill="none" x="0" width="8" height="579" y="0" clip-path="url(#clipPath6)"/>
    </g>
    <g fill-opacity="1" text-rendering="geometricPrecision" stroke="black" stroke-linecap="butt" transform="translate(12,191)" stroke-miterlimit="0" stroke-opacity="1" fill="black" stroke-dasharray="5,2" font-family="sans-serif" stroke-linejoin="bevel" font-size="11px" image-rendering="optimizeQuality">
      <line y2="185" fill="none" x1="0" clip-path="url(#clipPath7)" x2="363" y1="185"/>
    </g>
    <g font-size="11px" transform="translate(40,196)" fill-opacity="1" fill="black" text-rendering="geometricPrecision" image-rendering="optimizeQuality" font-family="sans-serif" stroke="black" stroke-opacity="1">
      <text fill="black" x="10" xml:space="preserve" y="11" clip-path="url(#clipPath8)" stroke="none">[création d'un utilisateur]</text>
    </g>
    <g stroke-linecap="butt" font-size="11px" transform="translate(22,264)" fill-opacity="1" fill="black" text-rendering="geometricPrecision" image-rendering="optimizeQuality" font-family="sans-serif" stroke-linejoin="round" stroke="black" stroke-opacity="1" stroke-miterlimit="0">
      <rect fill="none" x="0" width="344" height="50" y="0" clip-path="url(#clipPath10)"/>
      <path fill="none" d="M27 0 L27 8 L21 16 L0 16" clip-path="url(#clipPath10)"/>
    </g>
    <g font-size="11px" transform="translate(22,264)" fill-opacity="1" fill="black" text-rendering="geometricPrecision" image-rendering="optimizeQuality" font-family="sans-serif" stroke="black" font-weight="bold" stroke-opacity="1">
      <text x="5" xml:space="preserve" y="11" clip-path="url(#clipPath11)" stroke="none">ref</text>
    </g>
    <g fill-opacity="1" text-rendering="geometricPrecision" stroke="black" stroke-linecap="butt" transform="translate(12,377)" stroke-miterlimit="0" stroke-opacity="1" fill="black" stroke-dasharray="5,2" font-family="sans-serif" stroke-linejoin="bevel" font-size="11px" image-rendering="optimizeQuality">
      <line y2="199" fill="none" x1="0" clip-path="url(#clipPath13)" x2="363" y1="199"/>
    </g>
    <g font-size="11px" transform="translate(40,382)" fill-opacity="1" fill="black" text-rendering="geometricPrecision" image-rendering="optimizeQuality" font-family="sans-serif" stroke="black" stroke-opacity="1">
      <text fill="black" x="10" xml:space="preserve" y="11" clip-path="url(#clipPath14)" stroke="none">[création d'un évènement]</text>
    </g>
    <g stroke-linecap="butt" font-size="11px" transform="translate(22,455)" fill-opacity="1" fill="black" text-rendering="geometricPrecision" image-rendering="optimizeQuality" font-family="sans-serif" stroke-linejoin="round" stroke="black" stroke-opacity="1" stroke-miterlimit="0">
      <rect fill="none" x="0" width="344" height="50" y="0" clip-path="url(#clipPath10)"/>
      <path fill="none" d="M27 0 L27 8 L21 16 L0 16" clip-path="url(#clipPath10)"/>
    </g>
    <g font-size="11px" transform="translate(22,455)" fill-opacity="1" fill="black" text-rendering="geometricPrecision" image-rendering="optimizeQuality" font-family="sans-serif" stroke="black" font-weight="bold" stroke-opacity="1">
      <text x="5" xml:space="preserve" y="11" clip-path="url(#clipPath11)" stroke="none">ref</text>
    </g>
    <g font-size="11px" transform="translate(22,455)" fill-opacity="1" fill="black" text-rendering="geometricPrecision" image-rendering="optimizeQuality" font-family="sans-serif" stroke="black" stroke-opacity="1">
      <text x="101" xml:space="preserve" y="29" clip-path="url(#clipPath12)" stroke="none">Création d'un Évènement</text>
    </g>
    <g stroke-linecap="butt" transform="translate(132,596)" fill-opacity="1" fill="black" text-rendering="geometricPrecision" image-rendering="optimizeQuality" font-family="sans-serif" stroke-linejoin="round" stroke="black" stroke-opacity="1" stroke-miterlimit="0">
      <polygon fill="none" points=" 0 0 86 0 101 15 86 15 86 0 101 15 101 45 0 45" clip-path="url(#clipPath16)"/>
    </g>
    <g font-size="15px" transform="translate(132,596)" fill-opacity="1" fill="black" text-rendering="geometricPrecision" image-rendering="optimizeQuality" font-family="'Cantarell'" stroke="black" stroke-opacity="1">
      <path d="M7.1094 6.5605 L5.5 10.9043 L8.7188 10.9043 L7.1094 6.5605 ZM6.4375 5.3887 L7.7812 5.3887 L11.1094 14.1387 L9.875 14.1387 L9.0781 11.8887 L5.1406 11.8887 L4.3438 14.1387 L3.0938 14.1387 L6.4375 5.3887 ZM6.7812 3.0137 L7.9219 4.5605 L7.0312 4.5605 L5.6719 3.0137 L6.7812 3.0137 ZM20.8594 7.8262 L20.8594 8.8418 Q20.3906 8.5762 19.9375 8.4512 Q19.4844 8.3262 19.0156 8.3262 Q17.9531 8.3262 17.375 8.998 Q16.7969 9.6543 16.7969 10.8574 Q16.7969 12.0605 17.375 12.7324 Q17.9531 13.3887 19.0156 13.3887 Q19.4844 13.3887 19.9375 13.2637 Q20.3906 13.1387 20.8594 12.8887 L20.8594 13.8887 Q20.4062 14.0918 19.9219 14.2012 Q19.4375 14.3105 18.8906 14.3105 Q17.4062 14.3105 16.5312 13.3887 Q15.6562 12.4512 15.6562 10.8574 Q15.6562 9.2637 16.5312 8.3418 Q17.4219 7.4199 18.9688 7.4199 Q19.4531 7.4199 19.9219 7.5293 Q20.4062 7.623 20.8594 7.8262 ZM25.6719 8.3262 Q24.8125 8.3262 24.2969 9.0137 Q23.7969 9.6855 23.7969 10.8574 Q23.7969 12.0449 24.2969 12.7168 Q24.7969 13.3887 25.6719 13.3887 Q26.5312 13.3887 27.0312 12.7168 Q27.5469 12.0293 27.5469 10.8574 Q27.5469 9.7012 27.0312 9.0137 Q26.5312 8.3262 25.6719 8.3262 ZM25.6719 7.4199 Q27.0781 7.4199 27.875 8.3418 Q28.6875 9.248 28.6875 10.8574 Q28.6875 12.4668 27.875 13.3887 Q27.0781 14.3105 25.6719 14.3105 Q24.2656 14.3105 23.4531 13.3887 Q22.6562 12.4668 22.6562 10.8574 Q22.6562 9.248 23.4531 8.3418 Q24.2656 7.4199 25.6719 7.4199 ZM36.2344 8.8418 Q36.6406 8.1074 37.2031 7.7637 Q37.7656 7.4199 38.5312 7.4199 Q39.5625 7.4199 40.1094 8.1387 Q40.6719 8.8574 40.6719 10.1699 L40.6719 14.1387 L39.5938 14.1387 L39.5938 10.2168 Q39.5938 9.2637 39.25 8.8105 Q38.9219 8.3574 38.2344 8.3574 Q37.3906 8.3574 36.9062 8.9199 Q36.4219 9.4668 36.4219 10.4355 L36.4219 14.1387 L35.3438 14.1387 L35.3438 10.2168 Q35.3438 9.2637 35 8.8105 Q34.6719 8.3574 33.9688 8.3574 Q33.1406 8.3574 32.6562 8.9199 Q32.1719 9.4668 32.1719 10.4355 L32.1719 14.1387 L31.0938 14.1387 L31.0938 7.5762 L32.1719 7.5762 L32.1719 8.5918 Q32.5469 7.998 33.0625 7.7168 Q33.5781 7.4199 34.2812 7.4199 Q35 7.4199 35.5 7.7793 Q36 8.1387 36.2344 8.8418 ZM43.1719 13.1543 L43.1719 16.6387 L42.0938 16.6387 L42.0938 7.5762 L43.1719 7.5762 L43.1719 8.5762 Q43.5156 7.9824 44.0312 7.7012 Q44.5469 7.4199 45.2656 7.4199 Q46.4688 7.4199 47.2188 8.373 Q47.9688 9.3105 47.9688 10.8574 Q47.9688 12.4043 47.2188 13.3574 Q46.4688 14.3105 45.2656 14.3105 Q44.5469 14.3105 44.0312 14.0293 Q43.5156 13.7324 43.1719 13.1543 ZM46.8438 10.8574 Q46.8438 9.6699 46.3438 8.998 Q45.8594 8.3262 45.0156 8.3262 Q44.1562 8.3262 43.6562 8.998 Q43.1719 9.6699 43.1719 10.8574 Q43.1719 12.0449 43.6562 12.7324 Q44.1562 13.4043 45.0156 13.4043 Q45.8594 13.4043 46.3438 12.7324 Q46.8438 12.0449 46.8438 10.8574 ZM50.125 5.0137 L51.2031 5.0137 L51.2031 14.1387 L50.125 14.1387 L50.125 5.0137 ZM58.75 10.5918 L58.75 11.1074 L53.7812 11.1074 Q53.8594 12.2324 54.4531 12.8105 Q55.0625 13.3887 56.125 13.3887 Q56.75 13.3887 57.3281 13.248 Q57.9219 13.0918 58.5 12.7793 L58.5 13.8105 Q57.9062 14.0449 57.2969 14.1699 Q56.6875 14.3105 56.0625 14.3105 Q54.5 14.3105 53.5781 13.4043 Q52.6562 12.4824 52.6562 10.9199 Q52.6562 9.3105 53.5312 8.373 Q54.4062 7.4199 55.875 7.4199 Q57.2031 7.4199 57.9688 8.2793 Q58.75 9.123 58.75 10.5918 ZM57.6719 10.2637 Q57.6562 9.3887 57.1719 8.8574 Q56.6875 8.3262 55.8906 8.3262 Q54.9844 8.3262 54.4375 8.8418 Q53.9062 9.3574 53.8281 10.2793 L57.6719 10.2637 ZM56.625 4.5449 L57.7969 4.5449 L55.8906 6.748 L54.9844 6.748 L56.625 4.5449 ZM62.2031 5.7168 L62.2031 7.5762 L64.4219 7.5762 L64.4219 8.4199 L62.2031 8.4199 L62.2031 11.9824 Q62.2031 12.7793 62.4219 13.0137 Q62.6406 13.2324 63.3125 13.2324 L64.4219 13.2324 L64.4219 14.1387 L63.3125 14.1387 Q62.0625 14.1387 61.5781 13.6699 Q61.1094 13.2012 61.1094 11.9824 L61.1094 8.4199 L60.3281 8.4199 L60.3281 7.5762 L61.1094 7.5762 L61.1094 5.7168 L62.2031 5.7168 ZM71.75 10.5918 L71.75 11.1074 L66.7812 11.1074 Q66.8594 12.2324 67.4531 12.8105 Q68.0625 13.3887 69.125 13.3887 Q69.75 13.3887 70.3281 13.248 Q70.9219 13.0918 71.5 12.7793 L71.5 13.8105 Q70.9062 14.0449 70.2969 14.1699 Q69.6875 14.3105 69.0625 14.3105 Q67.5 14.3105 66.5781 13.4043 Q65.6562 12.4824 65.6562 10.9199 Q65.6562 9.3105 66.5312 8.373 Q67.4062 7.4199 68.875 7.4199 Q70.2031 7.4199 70.9688 8.2793 Q71.75 9.123 71.75 10.5918 ZM70.6719 10.2637 Q70.6562 9.3887 70.1719 8.8574 Q69.6875 8.3262 68.8906 8.3262 Q67.9844 8.3262 67.4375 8.8418 Q66.9062 9.3574 66.8281 10.2793 L70.6719 10.2637 ZM77.9375 8.5762 Q77.75 8.4824 77.5312 8.4355 Q77.3281 8.373 77.0625 8.373 Q76.1562 8.373 75.6562 8.9668 Q75.1719 9.5605 75.1719 10.6855 L75.1719 14.1387 L74.0938 14.1387 L74.0938 7.5762 L75.1719 7.5762 L75.1719 8.5918 Q75.5156 7.998 76.0625 7.7168 Q76.6094 7.4199 77.3906 7.4199 Q77.5 7.4199 77.625 7.4355 Q77.7656 7.4512 77.9219 7.4824 L77.9375 8.5762 Z" stroke="none" clip-path="url(#clipPath17)"/>
    </g>
    <g stroke-linecap="butt" transform="translate(435,266)" fill-opacity="1" fill="black" text-rendering="geometricPrecision" image-rendering="optimizeQuality" font-family="sans-serif" stroke-linejoin="round" stroke="black" stroke-opacity="1" stroke-miterlimit="0">
      <polygon fill="none" points=" 0 0 64 0 79 15 64 15 64 0 79 15 79 45 0 45" clip-path="url(#clipPath18)"/>
    </g>
    <g font-size="15px" transform="translate(435,266)" fill-opacity="1" fill="black" text-rendering="geometricPrecision" image-rendering="optimizeQuality" font-family="'Cantarell'" stroke="black" stroke-opacity="1">
      <path d="M7.1094 6.5605 L5.5 10.9043 L8.7188 10.9043 L7.1094 6.5605 ZM6.4375 5.3887 L7.7812 5.3887 L11.1094 14.1387 L9.875 14.1387 L9.0781 11.8887 L5.1406 11.8887 L4.3438 14.1387 L3.0938 14.1387 L6.4375 5.3887 ZM6.7812 3.0137 L7.9219 4.5605 L7.0312 4.5605 L5.6719 3.0137 L6.7812 3.0137 ZM19.4531 5.0137 L19.4531 5.9199 L18.4219 5.9199 Q17.8438 5.9199 17.6094 6.1543 Q17.3906 6.3887 17.3906 6.998 L17.3906 7.5762 L19.1719 7.5762 L19.1719 8.4199 L17.3906 8.4199 L17.3906 14.1387 L16.3125 14.1387 L16.3125 8.4199 L15.2812 8.4199 L15.2812 7.5762 L16.3125 7.5762 L16.3125 7.123 Q16.3125 6.0293 16.8125 5.5293 Q17.3281 5.0137 18.4375 5.0137 L19.4531 5.0137 ZM23.1094 10.8418 Q21.8125 10.8418 21.2969 11.1387 Q20.7969 11.4355 20.7969 12.1543 Q20.7969 12.7324 21.1719 13.0762 Q21.5625 13.4043 22.2031 13.4043 Q23.1094 13.4043 23.6406 12.7793 Q24.1875 12.1387 24.1875 11.0762 L24.1875 10.8418 L23.1094 10.8418 ZM25.2656 10.3887 L25.2656 14.1387 L24.1875 14.1387 L24.1875 13.1387 Q23.8125 13.7324 23.2656 14.0293 Q22.7188 14.3105 21.9219 14.3105 Q20.9062 14.3105 20.3125 13.748 Q19.7188 13.1699 19.7188 12.2324 Q19.7188 11.123 20.4531 10.5605 Q21.2031 9.998 22.6719 9.998 L24.1875 9.998 L24.1875 9.8887 Q24.1875 9.1387 23.6875 8.7324 Q23.2031 8.3262 22.3281 8.3262 Q21.7656 8.3262 21.2188 8.4668 Q20.6875 8.6074 20.2031 8.873 L20.2031 7.873 Q20.7969 7.6387 21.3438 7.5293 Q21.9062 7.4199 22.4375 7.4199 Q23.8594 7.4199 24.5625 8.1543 Q25.2656 8.8887 25.2656 10.3887 ZM28.125 7.5762 L29.2031 7.5762 L29.2031 14.1387 L28.125 14.1387 L28.125 7.5762 ZM28.125 5.0137 L29.2031 5.0137 L29.2031 6.3887 L28.125 6.3887 L28.125 5.0137 ZM34.9375 8.5762 Q34.75 8.4824 34.5312 8.4355 Q34.3281 8.373 34.0625 8.373 Q33.1562 8.373 32.6562 8.9668 Q32.1719 9.5605 32.1719 10.6855 L32.1719 14.1387 L31.0938 14.1387 L31.0938 7.5762 L32.1719 7.5762 L32.1719 8.5918 Q32.5156 7.998 33.0625 7.7168 Q33.6094 7.4199 34.3906 7.4199 Q34.5 7.4199 34.625 7.4355 Q34.7656 7.4512 34.9219 7.4824 L34.9375 8.5762 ZM41.75 10.5918 L41.75 11.1074 L36.7812 11.1074 Q36.8594 12.2324 37.4531 12.8105 Q38.0625 13.3887 39.125 13.3887 Q39.75 13.3887 40.3281 13.248 Q40.9219 13.0918 41.5 12.7793 L41.5 13.8105 Q40.9062 14.0449 40.2969 14.1699 Q39.6875 14.3105 39.0625 14.3105 Q37.5 14.3105 36.5781 13.4043 Q35.6562 12.4824 35.6562 10.9199 Q35.6562 9.3105 36.5312 8.373 Q37.4062 7.4199 38.875 7.4199 Q40.2031 7.4199 40.9688 8.2793 Q41.75 9.123 41.75 10.5918 ZM40.6719 10.2637 Q40.6562 9.3887 40.1719 8.8574 Q39.6875 8.3262 38.8906 8.3262 Q37.9844 8.3262 37.4375 8.8418 Q36.9062 9.3574 36.8281 10.2793 L40.6719 10.2637 Z" stroke="none" clip-path="url(#clipPath19)"/>
    </g>
    <g stroke-linecap="butt" transform="translate(529,2)" fill-opacity="1" fill="black" text-rendering="geometricPrecision" image-rendering="optimizeQuality" font-family="sans-serif" stroke-linejoin="round" stroke="black" stroke-opacity="1" stroke-miterlimit="0">
      <polygon fill="none" points=" 0 0 86 0 101 15 86 15 86 0 101 15 101 45 0 45" clip-path="url(#clipPath16)"/>
    </g>
    <g font-size="15px" transform="translate(529,2)" fill-opacity="1" fill="black" text-rendering="geometricPrecision" image-rendering="optimizeQuality" font-family="'Cantarell'" stroke="black" stroke-opacity="1">
      <path d="M7.1094 6.5605 L5.5 10.9043 L8.7188 10.9043 L7.1094 6.5605 ZM6.4375 5.3887 L7.7812 5.3887 L11.1094 14.1387 L9.875 14.1387 L9.0781 11.8887 L5.1406 11.8887 L4.3438 14.1387 L3.0938 14.1387 L6.4375 5.3887 ZM6.7812 3.0137 L7.9219 4.5605 L7.0312 4.5605 L5.6719 3.0137 L6.7812 3.0137 ZM20.8594 7.8262 L20.8594 8.8418 Q20.3906 8.5762 19.9375 8.4512 Q19.4844 8.3262 19.0156 8.3262 Q17.9531 8.3262 17.375 8.998 Q16.7969 9.6543 16.7969 10.8574 Q16.7969 12.0605 17.375 12.7324 Q17.9531 13.3887 19.0156 13.3887 Q19.4844 13.3887 19.9375 13.2637 Q20.3906 13.1387 20.8594 12.8887 L20.8594 13.8887 Q20.4062 14.0918 19.9219 14.2012 Q19.4375 14.3105 18.8906 14.3105 Q17.4062 14.3105 16.5312 13.3887 Q15.6562 12.4512 15.6562 10.8574 Q15.6562 9.2637 16.5312 8.3418 Q17.4219 7.4199 18.9688 7.4199 Q19.4531 7.4199 19.9219 7.5293 Q20.4062 7.623 20.8594 7.8262 ZM25.6719 8.3262 Q24.8125 8.3262 24.2969 9.0137 Q23.7969 9.6855 23.7969 10.8574 Q23.7969 12.0449 24.2969 12.7168 Q24.7969 13.3887 25.6719 13.3887 Q26.5312 13.3887 27.0312 12.7168 Q27.5469 12.0293 27.5469 10.8574 Q27.5469 9.7012 27.0312 9.0137 Q26.5312 8.3262 25.6719 8.3262 ZM25.6719 7.4199 Q27.0781 7.4199 27.875 8.3418 Q28.6875 9.248 28.6875 10.8574 Q28.6875 12.4668 27.875 13.3887 Q27.0781 14.3105 25.6719 14.3105 Q24.2656 14.3105 23.4531 13.3887 Q22.6562 12.4668 22.6562 10.8574 Q22.6562 9.248 23.4531 8.3418 Q24.2656 7.4199 25.6719 7.4199 ZM36.2344 8.8418 Q36.6406 8.1074 37.2031 7.7637 Q37.7656 7.4199 38.5312 7.4199 Q39.5625 7.4199 40.1094 8.1387 Q40.6719 8.8574 40.6719 10.1699 L40.6719 14.1387 L39.5938 14.1387 L39.5938 10.2168 Q39.5938 9.2637 39.25 8.8105 Q38.9219 8.3574 38.2344 8.3574 Q37.3906 8.3574 36.9062 8.9199 Q36.4219 9.4668 36.4219 10.4355 L36.4219 14.1387 L35.3438 14.1387 L35.3438 10.2168 Q35.3438 9.2637 35 8.8105 Q34.6719 8.3574 33.9688 8.3574 Q33.1406 8.3574 32.6562 8.9199 Q32.1719 9.4668 32.1719 10.4355 L32.1719 14.1387 L31.0938 14.1387 L31.0938 7.5762 L32.1719 7.5762 L32.1719 8.5918 Q32.5469 7.998 33.0625 7.7168 Q33.5781 7.4199 34.2812 7.4199 Q35 7.4199 35.5 7.7793 Q36 8.1387 36.2344 8.8418 ZM43.1719 13.1543 L43.1719 16.6387 L42.0938 16.6387 L42.0938 7.5762 L43.1719 7.5762 L43.1719 8.5762 Q43.5156 7.9824 44.0312 7.7012 Q44.5469 7.4199 45.2656 7.4199 Q46.4688 7.4199 47.2188 8.373 Q47.9688 9.3105 47.9688 10.8574 Q47.9688 12.4043 47.2188 13.3574 Q46.4688 14.3105 45.2656 14.3105 Q44.5469 14.3105 44.0312 14.0293 Q43.5156 13.7324 43.1719 13.1543 ZM46.8438 10.8574 Q46.8438 9.6699 46.3438 8.998 Q45.8594 8.3262 45.0156 8.3262 Q44.1562 8.3262 43.6562 8.998 Q43.1719 9.6699 43.1719 10.8574 Q43.1719 12.0449 43.6562 12.7324 Q44.1562 13.4043 45.0156 13.4043 Q45.8594 13.4043 46.3438 12.7324 Q46.8438 12.0449 46.8438 10.8574 ZM50.125 5.0137 L51.2031 5.0137 L51.2031 14.1387 L50.125 14.1387 L50.125 5.0137 ZM58.75 10.5918 L58.75 11.1074 L53.7812 11.1074 Q53.8594 12.2324 54.4531 12.8105 Q55.0625 13.3887 56.125 13.3887 Q56.75 13.3887 57.3281 13.248 Q57.9219 13.0918 58.5 12.7793 L58.5 13.8105 Q57.9062 14.0449 57.2969 14.1699 Q56.6875 14.3105 56.0625 14.3105 Q54.5 14.3105 53.5781 13.4043 Q52.6562 12.4824 52.6562 10.9199 Q52.6562 9.3105 53.5312 8.373 Q54.4062 7.4199 55.875 7.4199 Q57.2031 7.4199 57.9688 8.2793 Q58.75 9.123 58.75 10.5918 ZM57.6719 10.2637 Q57.6562 9.3887 57.1719 8.8574 Q56.6875 8.3262 55.8906 8.3262 Q54.9844 8.3262 54.4375 8.8418 Q53.9062 9.3574 53.8281 10.2793 L57.6719 10.2637 ZM56.625 4.5449 L57.7969 4.5449 L55.8906 6.748 L54.9844 6.748 L56.625 4.5449 ZM62.2031 5.7168 L62.2031 7.5762 L64.4219 7.5762 L64.4219 8.4199 L62.2031 8.4199 L62.2031 11.9824 Q62.2031 12.7793 62.4219 13.0137 Q62.6406 13.2324 63.3125 13.2324 L64.4219 13.2324 L64.4219 14.1387 L63.3125 14.1387 Q62.0625 14.1387 61.5781 13.6699 Q61.1094 13.2012 61.1094 11.9824 L61.1094 8.4199 L60.3281 8.4199 L60.3281 7.5762 L61.1094 7.5762 L61.1094 5.7168 L62.2031 5.7168 ZM71.75 10.5918 L71.75 11.1074 L66.7812 11.1074 Q66.8594 12.2324 67.4531 12.8105 Q68.0625 13.3887 69.125 13.3887 Q69.75 13.3887 70.3281 13.248 Q70.9219 13.0918 71.5 12.7793 L71.5 13.8105 Q70.9062 14.0449 70.2969 14.1699 Q69.6875 14.3105 69.0625 14.3105 Q67.5 14.3105 66.5781 13.4043 Q65.6562 12.4824 65.6562 10.9199 Q65.6562 9.3105 66.5312 8.373 Q67.4062 7.4199 68.875 7.4199 Q70.2031 7.4199 70.9688 8.2793 Q71.75 9.123 71.75 10.5918 ZM70.6719 10.2637 Q70.6562 9.3887 70.1719 8.8574 Q69.6875 8.3262 68.8906 8.3262 Q67.9844 8.3262 67.4375 8.8418 Q66.9062 9.3574 66.8281 10.2793 L70.6719 10.2637 ZM77.9375 8.5762 Q77.75 8.4824 77.5312 8.4355 Q77.3281 8.373 77.0625 8.373 Q76.1562 8.373 75.6562 8.9668 Q75.1719 9.5605 75.1719 10.6855 L75.1719 14.1387 L74.0938 14.1387 L74.0938 7.5762 L75.1719 7.5762 L75.1719 8.5918 Q75.5156 7.998 76.0625 7.7168 Q76.6094 7.4199 77.3906 7.4199 Q77.5 7.4199 77.625 7.4355 Q77.7656 7.4512 77.9219 7.4824 L77.9375 8.5762 Z" stroke="none" clip-path="url(#clipPath17)"/>
    </g>
    <g fill-opacity="1" text-rendering="geometricPrecision" stroke="black" stroke-linecap="butt" transform="translate(2,123)" stroke-miterlimit="0" stroke-opacity="1" fill="black" font-weight="bold" font-family="sans-serif" stroke-linejoin="round" font-size="11px" image-rendering="optimizeQuality">
      <rect fill="none" x="0" width="384" height="539" y="0" clip-path="url(#clipPath21)"/>
    </g>
    <g font-size="11px" transform="translate(2,123)" fill-opacity="1" fill="white" text-rendering="geometricPrecision" image-rendering="optimizeQuality" font-family="sans-serif" stroke="white" font-weight="bold" stroke-opacity="1">
      <path d="M36 0 L36 8 L30 16 L0 16 L0 0 Z" stroke="none" clip-path="url(#clipPath21)"/>
    </g>
    <g fill-opacity="1" text-rendering="geometricPrecision" stroke="black" stroke-linecap="butt" transform="translate(2,123)" stroke-miterlimit="0" stroke-opacity="1" fill="black" font-weight="bold" font-family="sans-serif" stroke-linejoin="round" font-size="11px" image-rendering="optimizeQuality">
      <path fill="none" d="M36 0 L36 8 L30 16 L0 16 L0 0 Z" clip-path="url(#clipPath21)"/>
    </g>
    <g font-size="11px" transform="translate(2,123)" fill-opacity="1" fill="black" text-rendering="geometricPrecision" image-rendering="optimizeQuality" font-family="sans-serif" stroke="black" font-weight="bold" stroke-opacity="1">
      <text x="5" xml:space="preserve" y="11" clip-path="url(#clipPath22)" stroke="none">loop</text>
    </g>
    <g font-size="11px" transform="translate(30,145)" fill-opacity="1" fill="black" text-rendering="geometricPrecision" image-rendering="optimizeQuality" font-family="sans-serif" stroke="black" stroke-opacity="1">
      <text fill="black" x="10" xml:space="preserve" y="11" clip-path="url(#clipPath24)" stroke="none">[tant que l'utilisateur ne quitte pas l'IHM]</text>
    </g>
    <g fill-opacity="1" text-rendering="geometricPrecision" stroke="black" stroke-linecap="butt" transform="translate(12,174)" stroke-miterlimit="0" stroke-opacity="1" fill="black" font-weight="bold" font-family="sans-serif" stroke-linejoin="round" font-size="11px" image-rendering="optimizeQuality">
      <rect fill="none" x="0" width="364" height="478" y="0" clip-path="url(#clipPath27)"/>
    </g>
    <g font-size="11px" transform="translate(12,174)" fill-opacity="1" fill="white" text-rendering="geometricPrecision" image-rendering="optimizeQuality" font-family="sans-serif" stroke="white" font-weight="bold" stroke-opacity="1">
      <path d="M26 0 L26 8 L20 16 L0 16 L0 0 Z" stroke="none" clip-path="url(#clipPath27)"/>
    </g>
    <g fill-opacity="1" text-rendering="geometricPrecision" stroke="black" stroke-linecap="butt" transform="translate(12,174)" stroke-miterlimit="0" stroke-opacity="1" fill="black" font-weight="bold" font-family="sans-serif" stroke-linejoin="round" font-size="11px" image-rendering="optimizeQuality">
      <path fill="none" d="M26 0 L26 8 L20 16 L0 16 L0 0 Z" clip-path="url(#clipPath27)"/>
    </g>
    <g font-size="11px" transform="translate(12,174)" fill-opacity="1" fill="black" text-rendering="geometricPrecision" image-rendering="optimizeQuality" font-family="sans-serif" stroke="black" font-weight="bold" stroke-opacity="1">
      <text x="5" xml:space="preserve" y="11" clip-path="url(#clipPath28)" stroke="none">alt</text>
    </g>
    <g font-size="11px" transform="translate(22,12)" fill-opacity="1" fill="black" text-rendering="geometricPrecision" image-rendering="optimizeQuality" font-family="sans-serif" stroke="black" stroke-opacity="1">
      <text x="20" xml:space="preserve" y="11" clip-path="url(#clipPath29)" stroke="none">: IHM</text>
    </g>
    <g font-size="11px" transform="translate(298,12)" fill-opacity="1" fill="black" text-rendering="geometricPrecision" image-rendering="optimizeQuality" font-family="sans-serif" stroke="black" stroke-opacity="1">
      <text x="11" xml:space="preserve" y="11" clip-path="url(#clipPath30)" stroke="none">: Controleur</text>
    </g>
    <g stroke-linecap="butt" font-size="11px" transform="translate(11,35)" fill-opacity="1" fill="black" text-rendering="geometricPrecision" image-rendering="optimizeQuality" font-family="sans-serif" stroke-linejoin="round" stroke="black" stroke-opacity="1">
      <line y2="50" fill="none" x1="327" clip-path="url(#clipPath32)" x2="50" y1="50"/>
      <polygon points=" 50 50 62 56 62 44" clip-path="url(#clipPath32)" stroke="none"/>
      <polygon fill="none" points=" 50 50 62 56 62 44" clip-path="url(#clipPath32)"/>
    </g>
    <g stroke-linecap="butt" font-size="11px" transform="translate(11,198)" fill-opacity="1" fill="black" text-rendering="geometricPrecision" image-rendering="optimizeQuality" font-family="sans-serif" stroke-linejoin="round" stroke="black" stroke-opacity="1">
      <line y2="50" fill="none" x1="50" clip-path="url(#clipPath33)" x2="327" y1="50"/>
      <polygon points=" 327 50 315 44 315 56" clip-path="url(#clipPath33)" stroke="none"/>
      <polygon fill="none" points=" 327 50 315 44 315 56" clip-path="url(#clipPath33)"/>
    </g>
    <g stroke-linecap="butt" font-size="11px" transform="translate(11,390)" fill-opacity="1" fill="black" text-rendering="geometricPrecision" image-rendering="optimizeQuality" font-family="sans-serif" stroke-linejoin="round" stroke="black" stroke-opacity="1">
      <line y2="50" fill="none" x1="50" clip-path="url(#clipPath34)" x2="327" y1="50"/>
      <polygon points=" 327 50 315 44 315 56" clip-path="url(#clipPath34)" stroke="none"/>
      <polygon fill="none" points=" 327 50 315 44 315 56" clip-path="url(#clipPath34)"/>
    </g>
    <g stroke-linecap="butt" font-size="11px" transform="translate(317,243)" fill-opacity="1" fill="black" text-rendering="geometricPrecision" image-rendering="optimizeQuality" font-family="sans-serif" stroke-linejoin="round" stroke-dasharray="4" stroke="black" stroke-opacity="1">
      <line y2="50" fill="none" x1="117" clip-path="url(#clipPath36)" x2="50" y1="50"/>
    </g>
    <g font-size="11px" transform="translate(130,421)" fill-opacity="1" fill="black" text-rendering="geometricPrecision" image-rendering="optimizeQuality" font-family="sans-serif" stroke="black" stroke-opacity="1">
      <text fill="black" x="9" xml:space="preserve" y="11" clip-path="url(#clipPath37)" stroke="none">3: creerEvenement()</text>
    </g>
    <g font-size="11px" transform="translate(133,229)" fill-opacity="1" fill="black" text-rendering="geometricPrecision" image-rendering="optimizeQuality" font-family="sans-serif" stroke="black" stroke-opacity="1">
      <text fill="black" x="10" xml:space="preserve" y="11" clip-path="url(#clipPath38)" stroke="none">2: creerUtilisateur()</text>
    </g>
    <g font-size="11px" transform="translate(120,66)" fill-opacity="1" fill="black" text-rendering="geometricPrecision" image-rendering="optimizeQuality" font-family="sans-serif" stroke="black" stroke-opacity="1">
      <text fill="black" x="9" xml:space="preserve" y="11" clip-path="url(#clipPath39)" stroke="none">1: demarrerInteraction()</text>
    </g>
  </g>
</svg>
