<?xml version="1.0" encoding="UTF-8"?>
<!DOCTYPE svg PUBLIC "-//W3C//DTD SVG 1.0//EN" "http://www.w3.org/TR/2001/REC-SVG-20010904/DTD/svg10.dtd">
<svg xmlns:xlink="http://www.w3.org/1999/xlink" xmlns="http://www.w3.org/2000/svg" fill-opacity="0" color-rendering="auto" color-interpolation="auto" text-rendering="auto" stroke="rgb(0,0,0)" stroke-linecap="square" width="1447" stroke-miterlimit="10" shape-rendering="auto" stroke-opacity="0" fill="rgb(0,0,0)" stroke-dasharray="none" font-weight="normal" stroke-width="1" height="727" font-family="'Dialog'" font-style="normal" stroke-linejoin="miter" font-size="12px" stroke-dashoffset="0" image-rendering="auto">
  <!--Generated by the Batik Graphics2D SVG Generator-->
  <defs id="genericDefs"/>
  <g>
    <defs id="defs1">
      <clipPath clipPathUnits="userSpaceOnUse" id="clipPath1">
        <path d="M-7 -7 L100 -7 L100 729 L-7 729 L-7 -7 Z"/>
      </clipPath>
      <clipPath clipPathUnits="userSpaceOnUse" id="clipPath2">
        <path d="M-7 -7 L139 -7 L139 729 L-7 729 L-7 -7 Z"/>
      </clipPath>
      <clipPath clipPathUnits="userSpaceOnUse" id="clipPath3">
        <path d="M-7 -7 L133 -7 L133 729 L-7 729 L-7 -7 Z"/>
      </clipPath>
      <clipPath clipPathUnits="userSpaceOnUse" id="clipPath4">
        <path d="M-7 -7 L167 -7 L167 729 L-7 729 L-7 -7 Z"/>
      </clipPath>
      <clipPath clipPathUnits="userSpaceOnUse" id="clipPath5">
        <path d="M-7 -7 L83 -7 L83 729 L-7 729 L-7 -7 Z"/>
      </clipPath>
      <clipPath clipPathUnits="userSpaceOnUse" id="clipPath6">
        <path d="M-7 -7 L19 -7 L19 69 L-7 69 L-7 -7 Z"/>
      </clipPath>
      <clipPath clipPathUnits="userSpaceOnUse" id="clipPath7">
        <path d="M-7 -7 L19 -7 L19 616 L-7 616 L-7 -7 Z"/>
      </clipPath>
      <clipPath clipPathUnits="userSpaceOnUse" id="clipPath8">
        <path d="M-7 -7 L19 -7 L19 250 L-7 250 L-7 -7 Z"/>
      </clipPath>
      <clipPath clipPathUnits="userSpaceOnUse" id="clipPath9">
        <path d="M-7 -7 L543 -7 L543 103 L-7 103 L-7 -7 Z"/>
      </clipPath>
      <clipPath clipPathUnits="userSpaceOnUse" id="clipPath10">
        <path d="M158 22 L158 36 L38 36 L38 22 ZM-7 -7 L-7 103 L543 103 L543 -7 Z"/>
      </clipPath>
      <clipPath clipPathUnits="userSpaceOnUse" id="clipPath11">
        <path d="M0 0 L0 17 L31 17 L31 0 Z"/>
      </clipPath>
      <clipPath clipPathUnits="userSpaceOnUse" id="clipPath12">
        <path d="M-7 -7 L19 -7 L19 23 L-7 23 L-7 -7 Z"/>
      </clipPath>
      <clipPath clipPathUnits="userSpaceOnUse" id="clipPath13">
        <path d="M-7 -7 L19 -7 L19 124 L-7 124 L-7 -7 Z"/>
      </clipPath>
      <clipPath clipPathUnits="userSpaceOnUse" id="clipPath14">
        <path d="M-7 -7 L807 -7 L807 241 L-7 241 L-7 -7 Z"/>
      </clipPath>
      <clipPath clipPathUnits="userSpaceOnUse" id="clipPath15">
        <path d="M264 22 L264 36 L37 36 L37 22 ZM-7 -7 L-7 241 L807 241 L807 -7 Z"/>
      </clipPath>
      <clipPath clipPathUnits="userSpaceOnUse" id="clipPath16">
        <path d="M0 0 L0 17 L27 17 L27 0 Z"/>
      </clipPath>
      <clipPath clipPathUnits="userSpaceOnUse" id="clipPath17">
        <path d="M-7 -7 L19 -7 L19 28 L-7 28 L-7 -7 Z"/>
      </clipPath>
      <clipPath clipPathUnits="userSpaceOnUse" id="clipPath18">
        <path d="M-7 -7 L543 -7 L543 86 L-7 86 L-7 -7 Z"/>
      </clipPath>
      <clipPath clipPathUnits="userSpaceOnUse" id="clipPath19">
        <path d="M0 0 L0 14 L141 14 L141 0 Z"/>
      </clipPath>
      <clipPath clipPathUnits="userSpaceOnUse" id="clipPath20">
        <path d="M0 0 L0 4 L532 4 L532 0 Z"/>
      </clipPath>
      <clipPath clipPathUnits="userSpaceOnUse" id="clipPath21">
        <path d="M-7 -7 L176 -7 L176 67 L-7 67 L-7 -7 Z"/>
      </clipPath>
      <clipPath clipPathUnits="userSpaceOnUse" id="clipPath22">
        <path d="M0 0 L0 56 L150 56 L150 0 Z"/>
      </clipPath>
      <clipPath clipPathUnits="userSpaceOnUse" id="clipPath23">
        <path d="M-7 -7 L19 -7 L19 74 L-7 74 L-7 -7 Z"/>
      </clipPath>
      <clipPath clipPathUnits="userSpaceOnUse" id="clipPath24">
        <path d="M-7 -7 L19 -7 L19 24 L-7 24 L-7 -7 Z"/>
      </clipPath>
      <clipPath clipPathUnits="userSpaceOnUse" id="clipPath25">
        <path d="M-7 -7 L807 -7 L807 157 L-7 157 L-7 -7 Z"/>
      </clipPath>
      <clipPath clipPathUnits="userSpaceOnUse" id="clipPath26">
        <path d="M0 0 L0 4 L796 4 L796 0 Z"/>
      </clipPath>
      <clipPath clipPathUnits="userSpaceOnUse" id="clipPath27">
        <path d="M-7 -7 L807 -7 L807 79 L-7 79 L-7 -7 Z"/>
      </clipPath>
      <clipPath clipPathUnits="userSpaceOnUse" id="clipPath28">
        <path d="M0 0 L0 14 L248 14 L248 0 Z"/>
      </clipPath>
      <clipPath clipPathUnits="userSpaceOnUse" id="clipPath29">
        <path d="M-89 -14 L178 -14 L178 28 L-89 28 L-89 -14 Z"/>
      </clipPath>
      <clipPath clipPathUnits="userSpaceOnUse" id="clipPath30">
        <path d="M-128 -14 L256 -14 L256 28 L-128 28 L-128 -14 Z"/>
      </clipPath>
      <clipPath clipPathUnits="userSpaceOnUse" id="clipPath31">
        <path d="M-122 -14 L244 -14 L244 28 L-122 28 L-122 -14 Z"/>
      </clipPath>
      <clipPath clipPathUnits="userSpaceOnUse" id="clipPath32">
        <path d="M-156 -14 L312 -14 L312 28 L-156 28 L-156 -14 Z"/>
      </clipPath>
      <clipPath clipPathUnits="userSpaceOnUse" id="clipPath33">
        <path d="M-72 -14 L144 -14 L144 28 L-72 28 L-72 -14 Z"/>
      </clipPath>
      <clipPath clipPathUnits="userSpaceOnUse" id="clipPath34">
        <path d="M0 0 L578 0 L578 104 L0 104 L0 0 Z"/>
      </clipPath>
      <clipPath clipPathUnits="userSpaceOnUse" id="clipPath35">
        <path d="M389 30 L389 45 L184 45 L184 30 ZM0 0 L0 104 L578 104 L578 0 Z"/>
      </clipPath>
      <clipPath clipPathUnits="userSpaceOnUse" id="clipPath36">
        <path d="M0 0 L488 0 L488 115 L0 115 L0 0 Z"/>
      </clipPath>
      <clipPath clipPathUnits="userSpaceOnUse" id="clipPath37">
        <path d="M371 36 L371 50 L108 50 L108 36 ZM0 0 L0 115 L488 115 L488 0 Z"/>
      </clipPath>
      <clipPath clipPathUnits="userSpaceOnUse" id="clipPath38">
        <path d="M514 31 L514 45 L54 45 L54 31 ZM0 0 L0 104 L578 104 L578 0 Z"/>
      </clipPath>
      <clipPath clipPathUnits="userSpaceOnUse" id="clipPath39">
        <path d="M316 36 L316 50 L162 50 L162 36 ZM38 0 L38 14 L0 14 L0 115 L488 115 L488 79 L466 79 L466 64 L488 64 L488 0 Z"/>
      </clipPath>
      <clipPath clipPathUnits="userSpaceOnUse" id="clipPath40">
        <path d="M0 0 L589 0 L589 115 L0 115 L0 0 Z"/>
      </clipPath>
      <clipPath clipPathUnits="userSpaceOnUse" id="clipPath41">
        <path d="M505 34 L505 49 L76 49 L76 34 ZM0 0 L0 115 L589 115 L589 0 Z"/>
      </clipPath>
      <clipPath clipPathUnits="userSpaceOnUse" id="clipPath42">
        <path d="M271 35 L271 50 L209 50 L209 35 ZM0 0 L0 115 L488 115 L488 100 L464 100 L464 84 L488 84 L488 0 Z"/>
      </clipPath>
      <clipPath clipPathUnits="userSpaceOnUse" id="clipPath43">
        <path d="M269 35 L269 50 L212 50 L212 35 ZM0 0 L0 115 L488 115 L488 35 L466 35 L466 21 L488 21 L488 0 Z"/>
      </clipPath>
      <clipPath clipPathUnits="userSpaceOnUse" id="clipPath44">
        <path d="M0 0 L145 0 L145 135 L0 135 L0 0 Z"/>
      </clipPath>
      <clipPath clipPathUnits="userSpaceOnUse" id="clipPath45">
        <path d="M0 0 L0 135 L145 135 L145 70 L85 70 L85 56 L145 56 L145 0 Z"/>
      </clipPath>
      <clipPath clipPathUnits="userSpaceOnUse" id="clipPath46">
        <path d="M0 0 L329 0 L329 115 L0 115 L0 0 Z"/>
      </clipPath>
      <clipPath clipPathUnits="userSpaceOnUse" id="clipPath47">
        <path d="M236 34 L236 50 L83 50 L83 34 ZM0 0 L0 115 L85 115 L85 111 L283 111 L283 115 L329 115 L329 0 Z"/>
      </clipPath>
      <clipPath clipPathUnits="userSpaceOnUse" id="clipPath48">
        <path d="M0 0 L0 135 L145 135 L145 71 L85 71 L85 56 L145 56 L145 0 Z"/>
      </clipPath>
      <clipPath clipPathUnits="userSpaceOnUse" id="clipPath49">
        <path d="M0 0 L571 0 L571 115 L0 115 L0 0 Z"/>
      </clipPath>
      <clipPath clipPathUnits="userSpaceOnUse" id="clipPath50">
        <path d="M328 11 L328 26 L85 26 L85 11 ZM340 35 L340 50 L225 50 L225 35 ZM409 80 L409 95 L155 95 L155 80 ZM0 0 L0 115 L571 115 L571 0 Z"/>
      </clipPath>
      <clipPath clipPathUnits="userSpaceOnUse" id="clipPath51">
        <path d="M409 36 L409 51 L155 51 L155 36 ZM509 73 L509 88 L250 88 L250 73 ZM0 0 L0 115 L571 115 L571 0 L340 0 L340 6 L225 6 L225 0 Z"/>
      </clipPath>
      <clipPath clipPathUnits="userSpaceOnUse" id="clipPath52">
        <path d="M0 0 L115 0 L115 204 L0 204 L0 0 Z"/>
      </clipPath>
      <clipPath clipPathUnits="userSpaceOnUse" id="clipPath53">
        <path d="M0 0 L0 204 L115 204 L115 95 L98 95 L98 80 L115 80 L115 26 L28 26 L28 11 L115 11 L115 0 Z"/>
      </clipPath>
      <clipPath clipPathUnits="userSpaceOnUse" id="clipPath54">
        <path d="M0 0 L115 0 L115 159 L0 159 L0 0 Z"/>
      </clipPath>
      <clipPath clipPathUnits="userSpaceOnUse" id="clipPath55">
        <path d="M0 0 L0 159 L115 159 L115 0 Z"/>
      </clipPath>
      <clipPath clipPathUnits="userSpaceOnUse" id="clipPath56">
        <path d="M0 0 L348 0 L348 115 L0 115 L0 0 Z"/>
      </clipPath>
      <clipPath clipPathUnits="userSpaceOnUse" id="clipPath57">
        <path d="M286 33 L286 48 L27 48 L27 33 ZM186 0 L186 11 L0 11 L0 115 L348 115 L348 0 Z"/>
      </clipPath>
      <clipPath clipPathUnits="userSpaceOnUse" id="clipPath58">
        <path d="M-259 -15 L518 -15 L518 30 L-259 30 L-259 -15 Z"/>
      </clipPath>
      <clipPath clipPathUnits="userSpaceOnUse" id="clipPath59">
        <path d="M-254 -15 L508 -15 L508 30 L-254 30 L-254 -15 Z"/>
      </clipPath>
      <clipPath clipPathUnits="userSpaceOnUse" id="clipPath60">
        <path d="M-115 -15 L230 -15 L230 30 L-115 30 L-115 -15 Z"/>
      </clipPath>
      <clipPath clipPathUnits="userSpaceOnUse" id="clipPath61">
        <path d="M-243 -15 L486 -15 L486 30 L-243 30 L-243 -15 Z"/>
      </clipPath>
      <clipPath clipPathUnits="userSpaceOnUse" id="clipPath62">
        <path d="M-153 -16 L306 -16 L306 32 L-153 32 L-153 -16 Z"/>
      </clipPath>
      <clipPath clipPathUnits="userSpaceOnUse" id="clipPath63">
        <path d="M-198 -14 L396 -14 L396 28 L-198 28 L-198 -14 Z"/>
      </clipPath>
      <clipPath clipPathUnits="userSpaceOnUse" id="clipPath64">
        <path d="M-57 -15 L114 -15 L114 30 L-57 30 L-57 -15 Z"/>
      </clipPath>
      <clipPath clipPathUnits="userSpaceOnUse" id="clipPath65">
        <path d="M-62 -15 L124 -15 L124 30 L-62 30 L-62 -15 Z"/>
      </clipPath>
      <clipPath clipPathUnits="userSpaceOnUse" id="clipPath66">
        <path d="M-429 -15 L858 -15 L858 30 L-429 30 L-429 -15 Z"/>
      </clipPath>
      <clipPath clipPathUnits="userSpaceOnUse" id="clipPath67">
        <path d="M-154 -14 L308 -14 L308 28 L-154 28 L-154 -14 Z"/>
      </clipPath>
      <clipPath clipPathUnits="userSpaceOnUse" id="clipPath68">
        <path d="M-460 -14 L920 -14 L920 28 L-460 28 L-460 -14 Z"/>
      </clipPath>
      <clipPath clipPathUnits="userSpaceOnUse" id="clipPath69">
        <path d="M-263 -14 L526 -14 L526 28 L-263 28 L-263 -14 Z"/>
      </clipPath>
      <clipPath clipPathUnits="userSpaceOnUse" id="clipPath70">
        <path d="M-205 -15 L410 -15 L410 30 L-205 30 L-205 -15 Z"/>
      </clipPath>
    </defs>
    <g font-size="11px" transform="translate(476,2)" fill-opacity="1" fill="rgb(0,158,115)" text-rendering="geometricPrecision" image-rendering="optimizeQuality" font-family="sans-serif" stroke="rgb(0,158,115)" stroke-opacity="1">
      <rect x="0" width="88" height="35" y="0" clip-path="url(#clipPath1)" stroke="none"/>
    </g>
    <g stroke-linecap="butt" font-size="11px" transform="translate(476,2)" fill-opacity="1" fill="black" text-rendering="geometricPrecision" image-rendering="optimizeQuality" font-family="sans-serif" stroke-linejoin="round" stroke="black" stroke-opacity="1" stroke-miterlimit="0">
      <rect fill="none" x="0" width="88" height="35" y="0" clip-path="url(#clipPath1)"/>
      <line clip-path="url(#clipPath1)" fill="none" x1="44" x2="44" y1="35" y2="718" stroke-linejoin="bevel" stroke-dasharray="8,3"/>
    </g>
    <g font-size="11px" transform="translate(837,2)" fill-opacity="1" fill="rgb(86,180,233)" text-rendering="geometricPrecision" image-rendering="optimizeQuality" font-family="sans-serif" stroke="rgb(86,180,233)" stroke-opacity="1">
      <rect x="0" width="127" height="35" y="0" clip-path="url(#clipPath2)" stroke="none"/>
    </g>
    <g stroke-linecap="butt" font-size="11px" transform="translate(837,2)" fill-opacity="1" fill="black" text-rendering="geometricPrecision" image-rendering="optimizeQuality" font-family="sans-serif" stroke-linejoin="round" stroke="black" stroke-opacity="1" stroke-miterlimit="0">
      <rect fill="none" x="0" width="127" height="35" y="0" clip-path="url(#clipPath2)"/>
      <line clip-path="url(#clipPath2)" fill="none" x1="63" x2="63" y1="35" y2="718" stroke-linejoin="bevel" stroke-dasharray="8,3"/>
    </g>
    <g font-size="11px" transform="translate(1062,2)" fill-opacity="1" fill="rgb(86,180,233)" text-rendering="geometricPrecision" image-rendering="optimizeQuality" font-family="sans-serif" stroke="rgb(86,180,233)" stroke-opacity="1">
      <rect x="0" width="121" height="35" y="0" clip-path="url(#clipPath3)" stroke="none"/>
    </g>
    <g stroke-linecap="butt" font-size="11px" transform="translate(1062,2)" fill-opacity="1" fill="black" text-rendering="geometricPrecision" image-rendering="optimizeQuality" font-family="sans-serif" stroke-linejoin="round" stroke="black" stroke-opacity="1" stroke-miterlimit="0">
      <rect fill="none" x="0" width="121" height="35" y="0" clip-path="url(#clipPath3)"/>
      <line clip-path="url(#clipPath3)" fill="none" x1="60" x2="60" y1="35" y2="718" stroke-linejoin="bevel" stroke-dasharray="8,3"/>
    </g>
    <g font-size="11px" transform="translate(1287,2)" fill-opacity="1" fill="rgb(86,180,233)" text-rendering="geometricPrecision" image-rendering="optimizeQuality" font-family="sans-serif" stroke="rgb(86,180,233)" stroke-opacity="1">
      <rect x="0" width="155" height="35" y="0" clip-path="url(#clipPath4)" stroke="none"/>
    </g>
    <g stroke-linecap="butt" font-size="11px" transform="translate(1287,2)" fill-opacity="1" fill="black" text-rendering="geometricPrecision" image-rendering="optimizeQuality" font-family="sans-serif" stroke-linejoin="round" stroke="black" stroke-opacity="1" stroke-miterlimit="0">
      <rect fill="none" x="0" width="155" height="35" y="0" clip-path="url(#clipPath4)"/>
      <line clip-path="url(#clipPath4)" fill="none" x1="77" x2="77" y1="35" y2="718" stroke-linejoin="bevel" stroke-dasharray="8,3"/>
    </g>
    <g font-size="11px" transform="translate(2,2)" fill-opacity="1" fill="rgb(230,159,0)" text-rendering="geometricPrecision" image-rendering="optimizeQuality" font-family="sans-serif" stroke="rgb(230,159,0)" stroke-opacity="1">
      <rect x="0" width="71" height="35" y="0" clip-path="url(#clipPath5)" stroke="none"/>
    </g>
    <g stroke-linecap="butt" font-size="11px" transform="translate(2,2)" fill-opacity="1" fill="black" text-rendering="geometricPrecision" image-rendering="optimizeQuality" font-family="sans-serif" stroke-linejoin="round" stroke="black" stroke-opacity="1" stroke-miterlimit="0">
      <rect fill="none" x="0" width="71" height="35" y="0" clip-path="url(#clipPath5)"/>
      <line clip-path="url(#clipPath5)" fill="none" x1="35" x2="35" y1="35" y2="718" stroke-linejoin="bevel" stroke-dasharray="8,3"/>
    </g>
    <g font-size="11px" transform="translate(34,94)" fill-opacity="1" fill="rgb(230,159,0)" text-rendering="geometricPrecision" image-rendering="optimizeQuality" font-family="sans-serif" stroke="rgb(230,159,0)" stroke-opacity="1">
      <rect x="0" width="8" height="58" y="0" clip-path="url(#clipPath6)" stroke="none"/>
    </g>
    <g stroke-linecap="butt" font-size="11px" transform="translate(34,94)" fill-opacity="1" fill="black" text-rendering="geometricPrecision" image-rendering="optimizeQuality" font-family="sans-serif" stroke-linejoin="round" stroke="black" stroke-opacity="1" stroke-miterlimit="0">
      <rect fill="none" x="0" width="8" height="58" y="0" clip-path="url(#clipPath6)"/>
    </g>
    <g font-size="11px" transform="translate(516,94)" fill-opacity="1" fill="rgb(0,158,115)" text-rendering="geometricPrecision" image-rendering="optimizeQuality" font-family="sans-serif" stroke="rgb(0,158,115)" stroke-opacity="1">
      <rect x="0" width="8" height="605" y="0" clip-path="url(#clipPath7)" stroke="none"/>
    </g>
    <g stroke-linecap="butt" font-size="11px" transform="translate(516,94)" fill-opacity="1" fill="black" text-rendering="geometricPrecision" image-rendering="optimizeQuality" font-family="sans-serif" stroke-linejoin="round" stroke="black" stroke-opacity="1" stroke-miterlimit="0">
      <rect fill="none" x="0" width="8" height="605" y="0" clip-path="url(#clipPath7)"/>
    </g>
    <g font-size="11px" transform="translate(897,153)" fill-opacity="1" fill="rgb(122,207,245)" text-rendering="geometricPrecision" image-rendering="optimizeQuality" font-family="sans-serif" stroke="rgb(122,207,245)" stroke-opacity="1">
      <rect x="0" width="8" height="239" y="0" clip-path="url(#clipPath8)" stroke="none"/>
    </g>
    <g stroke-linecap="butt" font-size="11px" transform="translate(897,153)" fill-opacity="1" fill="black" text-rendering="geometricPrecision" image-rendering="optimizeQuality" font-family="sans-serif" stroke-linejoin="round" stroke="black" stroke-opacity="1" stroke-miterlimit="0">
      <rect fill="none" x="0" width="8" height="239" y="0" clip-path="url(#clipPath8)"/>
    </g>
    <g fill-opacity="1" text-rendering="geometricPrecision" stroke="black" stroke-linecap="butt" transform="translate(12,416)" stroke-miterlimit="0" stroke-opacity="1" fill="black" font-weight="bold" font-family="sans-serif" stroke-linejoin="round" font-size="11px" image-rendering="optimizeQuality">
      <rect fill="none" x="0" width="532" height="92" y="0" clip-path="url(#clipPath10)"/>
    </g>
    <g font-size="11px" transform="translate(12,416)" fill-opacity="1" fill="white" text-rendering="geometricPrecision" image-rendering="optimizeQuality" font-family="sans-serif" stroke="white" font-weight="bold" stroke-opacity="1">
      <path d="M30 0 L30 8 L24 16 L0 16 L0 0 Z" stroke="none" clip-path="url(#clipPath10)"/>
    </g>
    <g fill-opacity="1" text-rendering="geometricPrecision" stroke="black" stroke-linecap="butt" transform="translate(12,416)" stroke-miterlimit="0" stroke-opacity="1" fill="black" font-weight="bold" font-family="sans-serif" stroke-linejoin="round" font-size="11px" image-rendering="optimizeQuality">
      <path fill="none" d="M30 0 L30 8 L24 16 L0 16 L0 0 Z" clip-path="url(#clipPath10)"/>
    </g>
    <g font-size="11px" transform="translate(12,416)" fill-opacity="1" fill="black" text-rendering="geometricPrecision" image-rendering="optimizeQuality" font-family="sans-serif" stroke="black" font-weight="bold" stroke-opacity="1">
      <text x="5" xml:space="preserve" y="11" clip-path="url(#clipPath11)" stroke="none">opt</text>
    </g>
    <g font-size="11px" transform="translate(34,488)" fill-opacity="1" fill="rgb(230,159,0)" text-rendering="geometricPrecision" image-rendering="optimizeQuality" font-family="sans-serif" stroke="rgb(230,159,0)" stroke-opacity="1">
      <rect x="0" width="8" height="12" y="0" clip-path="url(#clipPath12)" stroke="none"/>
    </g>
    <g stroke-linecap="butt" font-size="11px" transform="translate(34,488)" fill-opacity="1" fill="black" text-rendering="geometricPrecision" image-rendering="optimizeQuality" font-family="sans-serif" stroke-linejoin="round" stroke="black" stroke-opacity="1" stroke-miterlimit="0">
      <rect fill="none" x="0" width="8" height="12" y="0" clip-path="url(#clipPath12)"/>
    </g>
    <g font-size="11px" transform="translate(897,525)" fill-opacity="1" fill="rgb(122,207,245)" text-rendering="geometricPrecision" image-rendering="optimizeQuality" font-family="sans-serif" stroke="rgb(122,207,245)" stroke-opacity="1">
      <rect x="0" width="8" height="113" y="0" clip-path="url(#clipPath13)" stroke="none"/>
    </g>
    <g stroke-linecap="butt" font-size="11px" transform="translate(897,525)" fill-opacity="1" fill="black" text-rendering="geometricPrecision" image-rendering="optimizeQuality" font-family="sans-serif" stroke-linejoin="round" stroke="black" stroke-opacity="1" stroke-miterlimit="0">
      <rect fill="none" x="0" width="8" height="113" y="0" clip-path="url(#clipPath13)"/>
    </g>
    <g font-size="11px" transform="translate(34,688)" fill-opacity="1" fill="rgb(230,159,0)" text-rendering="geometricPrecision" image-rendering="optimizeQuality" font-family="sans-serif" stroke="rgb(230,159,0)" stroke-opacity="1">
      <rect x="0" width="8" height="12" y="0" clip-path="url(#clipPath12)" stroke="none"/>
    </g>
    <g stroke-linecap="butt" font-size="11px" transform="translate(34,688)" fill-opacity="1" fill="black" text-rendering="geometricPrecision" image-rendering="optimizeQuality" font-family="sans-serif" stroke-linejoin="round" stroke="black" stroke-opacity="1" stroke-miterlimit="0">
      <rect fill="none" x="0" width="8" height="12" y="0" clip-path="url(#clipPath12)"/>
    </g>
    <g fill-opacity="1" text-rendering="geometricPrecision" stroke="black" stroke-linecap="butt" transform="translate(497,173)" stroke-miterlimit="0" stroke-opacity="1" fill="black" font-weight="bold" font-family="sans-serif" stroke-linejoin="round" font-size="11px" image-rendering="optimizeQuality">
      <rect fill="none" x="0" width="796" height="230" y="0" clip-path="url(#clipPath15)"/>
    </g>
    <g font-size="11px" transform="translate(497,173)" fill-opacity="1" fill="white" text-rendering="geometricPrecision" image-rendering="optimizeQuality" font-family="sans-serif" stroke="white" font-weight="bold" stroke-opacity="1">
      <path d="M26 0 L26 8 L20 16 L0 16 L0 0 Z" stroke="none" clip-path="url(#clipPath15)"/>
    </g>
    <g fill-opacity="1" text-rendering="geometricPrecision" stroke="black" stroke-linecap="butt" transform="translate(497,173)" stroke-miterlimit="0" stroke-opacity="1" fill="black" font-weight="bold" font-family="sans-serif" stroke-linejoin="round" font-size="11px" image-rendering="optimizeQuality">
      <path fill="none" d="M26 0 L26 8 L20 16 L0 16 L0 0 Z" clip-path="url(#clipPath15)"/>
    </g>
    <g font-size="11px" transform="translate(497,173)" fill-opacity="1" fill="black" text-rendering="geometricPrecision" image-rendering="optimizeQuality" font-family="sans-serif" stroke="black" font-weight="bold" stroke-opacity="1">
      <text x="5" xml:space="preserve" y="11" clip-path="url(#clipPath16)" stroke="none">alt</text>
    </g>
    <g font-size="11px" transform="translate(1361,577)" fill-opacity="1" fill="rgb(86,180,233)" text-rendering="geometricPrecision" image-rendering="optimizeQuality" font-family="sans-serif" stroke="rgb(86,180,233)" stroke-opacity="1">
      <rect x="0" width="8" height="17" y="0" clip-path="url(#clipPath17)" stroke="none"/>
    </g>
    <g stroke-linecap="butt" font-size="11px" transform="translate(1361,577)" fill-opacity="1" fill="black" text-rendering="geometricPrecision" image-rendering="optimizeQuality" font-family="sans-serif" stroke-linejoin="round" stroke="black" stroke-opacity="1" stroke-miterlimit="0">
      <rect fill="none" x="0" width="8" height="17" y="0" clip-path="url(#clipPath17)"/>
    </g>
    <g font-size="11px" transform="translate(40,438)" fill-opacity="1" fill="black" text-rendering="geometricPrecision" image-rendering="optimizeQuality" font-family="sans-serif" stroke="black" stroke-opacity="1">
      <text fill="black" x="10" xml:space="preserve" y="11" clip-path="url(#clipPath19)" stroke="none">[estNouvelUtilisateur]</text>
    </g>
    <g stroke-linecap="butt" transform="translate(924,667)" fill-opacity="1" fill="black" text-rendering="geometricPrecision" image-rendering="optimizeQuality" font-family="sans-serif" stroke-linejoin="round" stroke="black" stroke-opacity="1" stroke-miterlimit="0">
      <polygon fill="none" points=" 0 0 149 0 164 15 149 15 149 0 164 15 164 55 0 55" clip-path="url(#clipPath21)"/>
    </g>
    <g font-size="15px" transform="translate(924,667)" fill-opacity="1" fill="black" text-rendering="geometricPrecision" image-rendering="optimizeQuality" font-family="'Cantarell'" stroke="black" stroke-opacity="1">
      <path d="M4.1719 5.3887 L5.3594 5.3887 L5.3594 13.1387 L9.625 13.1387 L9.625 14.1387 L4.1719 14.1387 L4.1719 5.3887 ZM15.75 10.5918 L15.75 11.1074 L10.7812 11.1074 Q10.8594 12.2324 11.4531 12.8105 Q12.0625 13.3887 13.125 13.3887 Q13.75 13.3887 14.3281 13.248 Q14.9219 13.0918 15.5 12.7793 L15.5 13.8105 Q14.9062 14.0449 14.2969 14.1699 Q13.6875 14.3105 13.0625 14.3105 Q11.5 14.3105 10.5781 13.4043 Q9.6562 12.4824 9.6562 10.9199 Q9.6562 9.3105 10.5312 8.373 Q11.4062 7.4199 12.875 7.4199 Q14.2031 7.4199 14.9688 8.2793 Q15.75 9.123 15.75 10.5918 ZM14.6719 10.2637 Q14.6562 9.3887 14.1719 8.8574 Q13.6875 8.3262 12.8906 8.3262 Q11.9844 8.3262 11.4375 8.8418 Q10.9062 9.3574 10.8281 10.2793 L14.6719 10.2637 ZM22.3125 7.7637 L22.3125 8.7949 Q21.8594 8.5605 21.3594 8.4512 Q20.875 8.3262 20.3438 8.3262 Q19.5469 8.3262 19.1406 8.5762 Q18.7344 8.8105 18.7344 9.3105 Q18.7344 9.6855 19.0156 9.9043 Q19.3125 10.1074 20.1875 10.2949 L20.5469 10.3887 Q21.7031 10.623 22.1875 11.0762 Q22.6719 11.5293 22.6719 12.3262 Q22.6719 13.248 21.9375 13.7793 Q21.2188 14.3105 19.9531 14.3105 Q19.4219 14.3105 18.8438 14.2012 Q18.2812 14.1074 17.6562 13.9043 L17.6562 12.7793 Q18.25 13.0918 18.8281 13.248 Q19.4062 13.4043 19.9844 13.4043 Q20.7344 13.4043 21.1406 13.1543 Q21.5625 12.8887 21.5625 12.4043 Q21.5625 11.9668 21.2656 11.7324 Q20.9688 11.498 19.9688 11.2793 L19.5938 11.2012 Q18.5938 10.9824 18.1406 10.5449 Q17.7031 10.1074 17.7031 9.3574 Q17.7031 8.4199 18.3594 7.9199 Q19.0156 7.4199 20.2188 7.4199 Q20.8125 7.4199 21.3438 7.5137 Q21.875 7.5918 22.3125 7.7637 ZM33.4531 8.5762 L33.4531 5.0137 L34.5312 5.0137 L34.5312 14.1387 L33.4531 14.1387 L33.4531 13.1543 Q33.1094 13.7324 32.5938 14.0293 Q32.0781 14.3105 31.3438 14.3105 Q30.1562 14.3105 29.4062 13.3574 Q28.6562 12.4043 28.6562 10.8574 Q28.6562 9.3105 29.4062 8.373 Q30.1562 7.4199 31.3438 7.4199 Q32.0781 7.4199 32.5938 7.7012 Q33.1094 7.9824 33.4531 8.5762 ZM29.7812 10.8574 Q29.7812 12.0449 30.2656 12.7324 Q30.75 13.4043 31.6094 13.4043 Q32.4688 13.4043 32.9531 12.7324 Q33.4531 12.0449 33.4531 10.8574 Q33.4531 9.6699 32.9531 8.998 Q32.4688 8.3262 31.6094 8.3262 Q30.75 8.3262 30.2656 8.998 Q29.7812 9.6699 29.7812 10.8574 ZM42.75 10.5918 L42.75 11.1074 L37.7812 11.1074 Q37.8594 12.2324 38.4531 12.8105 Q39.0625 13.3887 40.125 13.3887 Q40.75 13.3887 41.3281 13.248 Q41.9219 13.0918 42.5 12.7793 L42.5 13.8105 Q41.9062 14.0449 41.2969 14.1699 Q40.6875 14.3105 40.0625 14.3105 Q38.5 14.3105 37.5781 13.4043 Q36.6562 12.4824 36.6562 10.9199 Q36.6562 9.3105 37.5312 8.373 Q38.4062 7.4199 39.875 7.4199 Q41.2031 7.4199 41.9688 8.2793 Q42.75 9.123 42.75 10.5918 ZM41.6719 10.2637 Q41.6562 9.3887 41.1719 8.8574 Q40.6875 8.3262 39.8906 8.3262 Q38.9844 8.3262 38.4375 8.8418 Q37.9062 9.3574 37.8281 10.2793 L41.6719 10.2637 ZM45.0156 11.5449 L45.0156 7.5762 L46.0938 7.5762 L46.0938 11.5137 Q46.0938 12.4355 46.4531 12.9043 Q46.8281 13.373 47.5469 13.373 Q48.4219 13.373 48.9219 12.8262 Q49.4375 12.2637 49.4375 11.2949 L49.4375 7.5762 L50.5156 7.5762 L50.5156 14.1387 L49.4375 14.1387 L49.4375 13.123 Q49.0469 13.7324 48.5312 14.0293 Q48.0156 14.3105 47.3281 14.3105 Q46.1875 14.3105 45.5938 13.6074 Q45.0156 12.9043 45.0156 11.5449 ZM47.7344 7.4199 L47.7344 7.4199 ZM58.5938 7.5762 L56.2188 10.7637 L58.7031 14.1387 L57.4375 14.1387 L55.5312 11.5605 L53.625 14.1387 L52.3438 14.1387 L54.8906 10.7012 L52.5625 7.5762 L53.8281 7.5762 L55.5781 9.9199 L57.3125 7.5762 L58.5938 7.5762 ZM66.1094 10.8418 Q64.8125 10.8418 64.2969 11.1387 Q63.7969 11.4355 63.7969 12.1543 Q63.7969 12.7324 64.1719 13.0762 Q64.5625 13.4043 65.2031 13.4043 Q66.1094 13.4043 66.6406 12.7793 Q67.1875 12.1387 67.1875 11.0762 L67.1875 10.8418 L66.1094 10.8418 ZM68.2656 10.3887 L68.2656 14.1387 L67.1875 14.1387 L67.1875 13.1387 Q66.8125 13.7324 66.2656 14.0293 Q65.7188 14.3105 64.9219 14.3105 Q63.9062 14.3105 63.3125 13.748 Q62.7188 13.1699 62.7188 12.2324 Q62.7188 11.123 63.4531 10.5605 Q64.2031 9.998 65.6719 9.998 L67.1875 9.998 L67.1875 9.8887 Q67.1875 9.1387 66.6875 8.7324 Q66.2031 8.3262 65.3281 8.3262 Q64.7656 8.3262 64.2188 8.4668 Q63.6875 8.6074 63.2031 8.873 L63.2031 7.873 Q63.7969 7.6387 64.3438 7.5293 Q64.9062 7.4199 65.4375 7.4199 Q66.8594 7.4199 67.5625 8.1543 Q68.2656 8.8887 68.2656 10.3887 ZM72.1719 13.1543 L72.1719 16.6387 L71.0938 16.6387 L71.0938 7.5762 L72.1719 7.5762 L72.1719 8.5762 Q72.5156 7.9824 73.0312 7.7012 Q73.5469 7.4199 74.2656 7.4199 Q75.4688 7.4199 76.2188 8.373 Q76.9688 9.3105 76.9688 10.8574 Q76.9688 12.4043 76.2188 13.3574 Q75.4688 14.3105 74.2656 14.3105 Q73.5469 14.3105 73.0312 14.0293 Q72.5156 13.7324 72.1719 13.1543 ZM75.8438 10.8574 Q75.8438 9.6699 75.3438 8.998 Q74.8594 8.3262 74.0156 8.3262 Q73.1562 8.3262 72.6562 8.998 Q72.1719 9.6699 72.1719 10.8574 Q72.1719 12.0449 72.6562 12.7324 Q73.1562 13.4043 74.0156 13.4043 Q74.8594 13.4043 75.3438 12.7324 Q75.8438 12.0449 75.8438 10.8574 ZM80.1719 13.1543 L80.1719 16.6387 L79.0938 16.6387 L79.0938 7.5762 L80.1719 7.5762 L80.1719 8.5762 Q80.5156 7.9824 81.0312 7.7012 Q81.5469 7.4199 82.2656 7.4199 Q83.4688 7.4199 84.2188 8.373 Q84.9688 9.3105 84.9688 10.8574 Q84.9688 12.4043 84.2188 13.3574 Q83.4688 14.3105 82.2656 14.3105 Q81.5469 14.3105 81.0312 14.0293 Q80.5156 13.7324 80.1719 13.1543 ZM83.8438 10.8574 Q83.8438 9.6699 83.3438 8.998 Q82.8594 8.3262 82.0156 8.3262 Q81.1562 8.3262 80.6562 8.998 Q80.1719 9.6699 80.1719 10.8574 Q80.1719 12.0449 80.6562 12.7324 Q81.1562 13.4043 82.0156 13.4043 Q82.8594 13.4043 83.3438 12.7324 Q83.8438 12.0449 83.8438 10.8574 ZM92.75 10.5918 L92.75 11.1074 L87.7812 11.1074 Q87.8594 12.2324 88.4531 12.8105 Q89.0625 13.3887 90.125 13.3887 Q90.75 13.3887 91.3281 13.248 Q91.9219 13.0918 92.5 12.7793 L92.5 13.8105 Q91.9062 14.0449 91.2969 14.1699 Q90.6875 14.3105 90.0625 14.3105 Q88.5 14.3105 87.5781 13.4043 Q86.6562 12.4824 86.6562 10.9199 Q86.6562 9.3105 87.5312 8.373 Q88.4062 7.4199 89.875 7.4199 Q91.2031 7.4199 91.9688 8.2793 Q92.75 9.123 92.75 10.5918 ZM91.6719 10.2637 Q91.6562 9.3887 91.1719 8.8574 Q90.6875 8.3262 89.8906 8.3262 Q88.9844 8.3262 88.4375 8.8418 Q87.9062 9.3574 87.8281 10.2793 L91.6719 10.2637 ZM95.125 5.0137 L96.2031 5.0137 L96.2031 14.1387 L95.125 14.1387 L95.125 5.0137 ZM102.3125 7.7637 L102.3125 8.7949 Q101.8594 8.5605 101.3594 8.4512 Q100.875 8.3262 100.3438 8.3262 Q99.5469 8.3262 99.1406 8.5762 Q98.7344 8.8105 98.7344 9.3105 Q98.7344 9.6855 99.0156 9.9043 Q99.3125 10.1074 100.1875 10.2949 L100.5469 10.3887 Q101.7031 10.623 102.1875 11.0762 Q102.6719 11.5293 102.6719 12.3262 Q102.6719 13.248 101.9375 13.7793 Q101.2188 14.3105 99.9531 14.3105 Q99.4219 14.3105 98.8438 14.2012 Q98.2812 14.1074 97.6562 13.9043 L97.6562 12.7793 Q98.25 13.0918 98.8281 13.248 Q99.4062 13.4043 99.9844 13.4043 Q100.7344 13.4043 101.1406 13.1543 Q101.5625 12.8887 101.5625 12.4043 Q101.5625 11.9668 101.2656 11.7324 Q100.9688 11.498 99.9688 11.2793 L99.5938 11.2012 Q98.5938 10.9824 98.1406 10.5449 Q97.7031 10.1074 97.7031 9.3574 Q97.7031 8.4199 98.3594 7.9199 Q99.0156 7.4199 100.2188 7.4199 Q100.8125 7.4199 101.3438 7.5137 Q101.875 7.5918 102.3125 7.7637 ZM113.3125 7.7637 L113.3125 8.7949 Q112.8594 8.5605 112.3594 8.4512 Q111.875 8.3262 111.3438 8.3262 Q110.5469 8.3262 110.1406 8.5762 Q109.7344 8.8105 109.7344 9.3105 Q109.7344 9.6855 110.0156 9.9043 Q110.3125 10.1074 111.1875 10.2949 L111.5469 10.3887 Q112.7031 10.623 113.1875 11.0762 Q113.6719 11.5293 113.6719 12.3262 Q113.6719 13.248 112.9375 13.7793 Q112.2188 14.3105 110.9531 14.3105 Q110.4219 14.3105 109.8438 14.2012 Q109.2812 14.1074 108.6562 13.9043 L108.6562 12.7793 Q109.25 13.0918 109.8281 13.248 Q110.4062 13.4043 110.9844 13.4043 Q111.7344 13.4043 112.1406 13.1543 Q112.5625 12.8887 112.5625 12.4043 Q112.5625 11.9668 112.2656 11.7324 Q111.9688 11.498 110.9688 11.2793 L110.5938 11.2012 Q109.5938 10.9824 109.1406 10.5449 Q108.7031 10.1074 108.7031 9.3574 Q108.7031 8.4199 109.3594 7.9199 Q110.0156 7.4199 111.2188 7.4199 Q111.8125 7.4199 112.3438 7.5137 Q112.875 7.5918 113.3125 7.7637 ZM118.6719 8.3262 Q117.8125 8.3262 117.2969 9.0137 Q116.7969 9.6855 116.7969 10.8574 Q116.7969 12.0449 117.2969 12.7168 Q117.7969 13.3887 118.6719 13.3887 Q119.5312 13.3887 120.0312 12.7168 Q120.5469 12.0293 120.5469 10.8574 Q120.5469 9.7012 120.0312 9.0137 Q119.5312 8.3262 118.6719 8.3262 ZM118.6719 7.4199 Q120.0781 7.4199 120.875 8.3418 Q121.6875 9.248 121.6875 10.8574 Q121.6875 12.4668 120.875 13.3887 Q120.0781 14.3105 118.6719 14.3105 Q117.2656 14.3105 116.4531 13.3887 Q115.6562 12.4668 115.6562 10.8574 Q115.6562 9.248 116.4531 8.3418 Q117.2656 7.4199 118.6719 7.4199 ZM129.5938 10.1699 L129.5938 14.1387 L128.5156 14.1387 L128.5156 10.2168 Q128.5156 9.2793 128.1406 8.8262 Q127.7812 8.3574 127.0625 8.3574 Q126.1875 8.3574 125.6719 8.9199 Q125.1719 9.4668 125.1719 10.4355 L125.1719 14.1387 L124.0938 14.1387 L124.0938 7.5762 L125.1719 7.5762 L125.1719 8.5918 Q125.5625 7.998 126.0781 7.7168 Q126.6094 7.4199 127.2969 7.4199 Q128.4219 7.4199 129 8.123 Q129.5938 8.8105 129.5938 10.1699 ZM133.2031 5.7168 L133.2031 7.5762 L135.4219 7.5762 L135.4219 8.4199 L133.2031 8.4199 L133.2031 11.9824 Q133.2031 12.7793 133.4219 13.0137 Q133.6406 13.2324 134.3125 13.2324 L135.4219 13.2324 L135.4219 14.1387 L134.3125 14.1387 Q133.0625 14.1387 132.5781 13.6699 Q132.1094 13.2012 132.1094 11.9824 L132.1094 8.4199 L131.3281 8.4199 L131.3281 7.5762 L132.1094 7.5762 L132.1094 5.7168 L133.2031 5.7168 Z" stroke="none" clip-path="url(#clipPath22)"/>
      <path d="M7.9375 23.5762 Q7.75 23.4824 7.5312 23.4355 Q7.3281 23.373 7.0625 23.373 Q6.1562 23.373 5.6562 23.9668 Q5.1719 24.5605 5.1719 25.6855 L5.1719 29.1387 L4.0938 29.1387 L4.0938 22.5762 L5.1719 22.5762 L5.1719 23.5918 Q5.5156 22.998 6.0625 22.7168 Q6.6094 22.4199 7.3906 22.4199 Q7.5 22.4199 7.625 22.4355 Q7.7656 22.4512 7.9219 22.4824 L7.9375 23.5762 ZM14.75 25.5918 L14.75 26.1074 L9.7812 26.1074 Q9.8594 27.2324 10.4531 27.8105 Q11.0625 28.3887 12.125 28.3887 Q12.75 28.3887 13.3281 28.248 Q13.9219 28.0918 14.5 27.7793 L14.5 28.8105 Q13.9062 29.0449 13.2969 29.1699 Q12.6875 29.3105 12.0625 29.3105 Q10.5 29.3105 9.5781 28.4043 Q8.6562 27.4824 8.6562 25.9199 Q8.6562 24.3105 9.5312 23.373 Q10.4062 22.4199 11.875 22.4199 Q13.2031 22.4199 13.9688 23.2793 Q14.75 24.123 14.75 25.5918 ZM13.6719 25.2637 Q13.6562 24.3887 13.1719 23.8574 Q12.6875 23.3262 11.8906 23.3262 Q10.9844 23.3262 10.4375 23.8418 Q9.9062 24.3574 9.8281 25.2793 L13.6719 25.2637 ZM21.4531 25.7793 Q21.4531 24.6074 20.9688 23.9668 Q20.4844 23.3262 19.6094 23.3262 Q18.75 23.3262 18.2656 23.9668 Q17.7812 24.6074 17.7812 25.7793 Q17.7812 26.9512 18.2656 27.5918 Q18.75 28.2324 19.6094 28.2324 Q20.4844 28.2324 20.9688 27.5918 Q21.4531 26.9512 21.4531 25.7793 ZM22.5312 28.3262 Q22.5312 29.998 21.7812 30.8105 Q21.0469 31.6387 19.5 31.6387 Q18.9375 31.6387 18.4219 31.5449 Q17.9219 31.4668 17.4531 31.2949 L17.4531 30.248 Q17.9219 30.498 18.3906 30.623 Q18.8594 30.748 19.3281 30.748 Q20.3906 30.748 20.9219 30.1855 Q21.4531 29.6387 21.4531 28.5137 L21.4531 27.9824 Q21.1094 28.5605 20.5938 28.8574 Q20.0781 29.1387 19.3438 29.1387 Q18.1406 29.1387 17.3906 28.2168 Q16.6562 27.2949 16.6562 25.7793 Q16.6562 24.2637 17.3906 23.3418 Q18.1406 22.4199 19.3438 22.4199 Q20.0781 22.4199 20.5938 22.7168 Q21.1094 22.998 21.4531 23.5762 L21.4531 22.5762 L22.5312 22.5762 L22.5312 28.3262 ZM28.9375 23.5762 Q28.75 23.4824 28.5312 23.4355 Q28.3281 23.373 28.0625 23.373 Q27.1562 23.373 26.6562 23.9668 Q26.1719 24.5605 26.1719 25.6855 L26.1719 29.1387 L25.0938 29.1387 L25.0938 22.5762 L26.1719 22.5762 L26.1719 23.5918 Q26.5156 22.998 27.0625 22.7168 Q27.6094 22.4199 28.3906 22.4199 Q28.5 22.4199 28.625 22.4355 Q28.7656 22.4512 28.9219 22.4824 L28.9375 23.5762 ZM32.6719 23.3262 Q31.8125 23.3262 31.2969 24.0137 Q30.7969 24.6855 30.7969 25.8574 Q30.7969 27.0449 31.2969 27.7168 Q31.7969 28.3887 32.6719 28.3887 Q33.5312 28.3887 34.0312 27.7168 Q34.5469 27.0293 34.5469 25.8574 Q34.5469 24.7012 34.0312 24.0137 Q33.5312 23.3262 32.6719 23.3262 ZM32.6719 22.4199 Q34.0781 22.4199 34.875 23.3418 Q35.6875 24.248 35.6875 25.8574 Q35.6875 27.4668 34.875 28.3887 Q34.0781 29.3105 32.6719 29.3105 Q31.2656 29.3105 30.4531 28.3887 Q29.6562 27.4668 29.6562 25.8574 Q29.6562 24.248 30.4531 23.3418 Q31.2656 22.4199 32.6719 22.4199 ZM38.0156 26.5449 L38.0156 22.5762 L39.0938 22.5762 L39.0938 26.5137 Q39.0938 27.4355 39.4531 27.9043 Q39.8281 28.373 40.5469 28.373 Q41.4219 28.373 41.9219 27.8262 Q42.4375 27.2637 42.4375 26.2949 L42.4375 22.5762 L43.5156 22.5762 L43.5156 29.1387 L42.4375 29.1387 L42.4375 28.123 Q42.0469 28.7324 41.5312 29.0293 Q41.0156 29.3105 40.3281 29.3105 Q39.1875 29.3105 38.5938 28.6074 Q38.0156 27.9043 38.0156 26.5449 ZM40.7344 22.4199 L40.7344 22.4199 ZM47.1719 28.1543 L47.1719 31.6387 L46.0938 31.6387 L46.0938 22.5762 L47.1719 22.5762 L47.1719 23.5762 Q47.5156 22.9824 48.0312 22.7012 Q48.5469 22.4199 49.2656 22.4199 Q50.4688 22.4199 51.2188 23.373 Q51.9688 24.3105 51.9688 25.8574 Q51.9688 27.4043 51.2188 28.3574 Q50.4688 29.3105 49.2656 29.3105 Q48.5469 29.3105 48.0312 29.0293 Q47.5156 28.7324 47.1719 28.1543 ZM50.8438 25.8574 Q50.8438 24.6699 50.3438 23.998 Q49.8594 23.3262 49.0156 23.3262 Q48.1562 23.3262 47.6562 23.998 Q47.1719 24.6699 47.1719 25.8574 Q47.1719 27.0449 47.6562 27.7324 Q48.1562 28.4043 49.0156 28.4043 Q49.8594 28.4043 50.3438 27.7324 Q50.8438 27.0449 50.8438 25.8574 ZM59.75 25.5918 L59.75 26.1074 L54.7812 26.1074 Q54.8594 27.2324 55.4531 27.8105 Q56.0625 28.3887 57.125 28.3887 Q57.75 28.3887 58.3281 28.248 Q58.9219 28.0918 59.5 27.7793 L59.5 28.8105 Q58.9062 29.0449 58.2969 29.1699 Q57.6875 29.3105 57.0625 29.3105 Q55.5 29.3105 54.5781 28.4043 Q53.6562 27.4824 53.6562 25.9199 Q53.6562 24.3105 54.5312 23.373 Q55.4062 22.4199 56.875 22.4199 Q58.2031 22.4199 58.9688 23.2793 Q59.75 24.123 59.75 25.5918 ZM58.6719 25.2637 Q58.6562 24.3887 58.1719 23.8574 Q57.6875 23.3262 56.8906 23.3262 Q55.9844 23.3262 55.4375 23.8418 Q54.9062 24.3574 54.8281 25.2793 L58.6719 25.2637 ZM57.625 19.5449 L58.7969 19.5449 L56.8906 21.748 L55.9844 21.748 L57.625 19.5449 ZM66.3125 22.7637 L66.3125 23.7949 Q65.8594 23.5605 65.3594 23.4512 Q64.875 23.3262 64.3438 23.3262 Q63.5469 23.3262 63.1406 23.5762 Q62.7344 23.8105 62.7344 24.3105 Q62.7344 24.6855 63.0156 24.9043 Q63.3125 25.1074 64.1875 25.2949 L64.5469 25.3887 Q65.7031 25.623 66.1875 26.0762 Q66.6719 26.5293 66.6719 27.3262 Q66.6719 28.248 65.9375 28.7793 Q65.2188 29.3105 63.9531 29.3105 Q63.4219 29.3105 62.8438 29.2012 Q62.2812 29.1074 61.6562 28.9043 L61.6562 27.7793 Q62.25 28.0918 62.8281 28.248 Q63.4062 28.4043 63.9844 28.4043 Q64.7344 28.4043 65.1406 28.1543 Q65.5625 27.8887 65.5625 27.4043 Q65.5625 26.9668 65.2656 26.7324 Q64.9688 26.498 63.9688 26.2793 L63.5938 26.2012 Q62.5938 25.9824 62.1406 25.5449 Q61.7031 25.1074 61.7031 24.3574 Q61.7031 23.4199 62.3594 22.9199 Q63.0156 22.4199 64.2188 22.4199 Q64.8125 22.4199 65.3438 22.5137 Q65.875 22.5918 66.3125 22.7637 ZM77.4531 23.5762 L77.4531 20.0137 L78.5312 20.0137 L78.5312 29.1387 L77.4531 29.1387 L77.4531 28.1543 Q77.1094 28.7324 76.5938 29.0293 Q76.0781 29.3105 75.3438 29.3105 Q74.1562 29.3105 73.4062 28.3574 Q72.6562 27.4043 72.6562 25.8574 Q72.6562 24.3105 73.4062 23.373 Q74.1562 22.4199 75.3438 22.4199 Q76.0781 22.4199 76.5938 22.7012 Q77.1094 22.9824 77.4531 23.5762 ZM73.7812 25.8574 Q73.7812 27.0449 74.2656 27.7324 Q74.75 28.4043 75.6094 28.4043 Q76.4688 28.4043 76.9531 27.7324 Q77.4531 27.0449 77.4531 25.8574 Q77.4531 24.6699 76.9531 23.998 Q76.4688 23.3262 75.6094 23.3262 Q74.75 23.3262 74.2656 23.998 Q73.7812 24.6699 73.7812 25.8574 ZM84.1094 25.8418 Q82.8125 25.8418 82.2969 26.1387 Q81.7969 26.4355 81.7969 27.1543 Q81.7969 27.7324 82.1719 28.0762 Q82.5625 28.4043 83.2031 28.4043 Q84.1094 28.4043 84.6406 27.7793 Q85.1875 27.1387 85.1875 26.0762 L85.1875 25.8418 L84.1094 25.8418 ZM86.2656 25.3887 L86.2656 29.1387 L85.1875 29.1387 L85.1875 28.1387 Q84.8125 28.7324 84.2656 29.0293 Q83.7188 29.3105 82.9219 29.3105 Q81.9062 29.3105 81.3125 28.748 Q80.7188 28.1699 80.7188 27.2324 Q80.7188 26.123 81.4531 25.5605 Q82.2031 24.998 83.6719 24.998 L85.1875 24.998 L85.1875 24.8887 Q85.1875 24.1387 84.6875 23.7324 Q84.2031 23.3262 83.3281 23.3262 Q82.7656 23.3262 82.2188 23.4668 Q81.6875 23.6074 81.2031 23.873 L81.2031 22.873 Q81.7969 22.6387 82.3438 22.5293 Q82.9062 22.4199 83.4375 22.4199 Q84.8594 22.4199 85.5625 23.1543 Q86.2656 23.8887 86.2656 25.3887 ZM94.5938 25.1699 L94.5938 29.1387 L93.5156 29.1387 L93.5156 25.2168 Q93.5156 24.2793 93.1406 23.8262 Q92.7812 23.3574 92.0625 23.3574 Q91.1875 23.3574 90.6719 23.9199 Q90.1719 24.4668 90.1719 25.4355 L90.1719 29.1387 L89.0938 29.1387 L89.0938 22.5762 L90.1719 22.5762 L90.1719 23.5918 Q90.5625 22.998 91.0781 22.7168 Q91.6094 22.4199 92.2969 22.4199 Q93.4219 22.4199 94 23.123 Q94.5938 23.8105 94.5938 25.1699 ZM101.3125 22.7637 L101.3125 23.7949 Q100.8594 23.5605 100.3594 23.4512 Q99.875 23.3262 99.3438 23.3262 Q98.5469 23.3262 98.1406 23.5762 Q97.7344 23.8105 97.7344 24.3105 Q97.7344 24.6855 98.0156 24.9043 Q98.3125 25.1074 99.1875 25.2949 L99.5469 25.3887 Q100.7031 25.623 101.1875 26.0762 Q101.6719 26.5293 101.6719 27.3262 Q101.6719 28.248 100.9375 28.7793 Q100.2188 29.3105 98.9531 29.3105 Q98.4219 29.3105 97.8438 29.2012 Q97.2812 29.1074 96.6562 28.9043 L96.6562 27.7793 Q97.25 28.0918 97.8281 28.248 Q98.4062 28.4043 98.9844 28.4043 Q99.7344 28.4043 100.1406 28.1543 Q100.5625 27.8887 100.5625 27.4043 Q100.5625 26.9668 100.2656 26.7324 Q99.9688 26.498 98.9688 26.2793 L98.5938 26.2012 Q97.5938 25.9824 97.1406 25.5449 Q96.7031 25.1074 96.7031 24.3574 Q96.7031 23.4199 97.3594 22.9199 Q98.0156 22.4199 99.2188 22.4199 Q99.8125 22.4199 100.3438 22.5137 Q100.875 22.5918 101.3125 22.7637 ZM108.0156 26.5449 L108.0156 22.5762 L109.0938 22.5762 L109.0938 26.5137 Q109.0938 27.4355 109.4531 27.9043 Q109.8281 28.373 110.5469 28.373 Q111.4219 28.373 111.9219 27.8262 Q112.4375 27.2637 112.4375 26.2949 L112.4375 22.5762 L113.5156 22.5762 L113.5156 29.1387 L112.4375 29.1387 L112.4375 28.123 Q112.0469 28.7324 111.5312 29.0293 Q111.0156 29.3105 110.3281 29.3105 Q109.1875 29.3105 108.5938 28.6074 Q108.0156 27.9043 108.0156 26.5449 ZM110.7344 22.4199 L110.7344 22.4199 ZM121.5938 25.1699 L121.5938 29.1387 L120.5156 29.1387 L120.5156 25.2168 Q120.5156 24.2793 120.1406 23.8262 Q119.7812 23.3574 119.0625 23.3574 Q118.1875 23.3574 117.6719 23.9199 Q117.1719 24.4668 117.1719 25.4355 L117.1719 29.1387 L116.0938 29.1387 L116.0938 22.5762 L117.1719 22.5762 L117.1719 23.5918 Q117.5625 22.998 118.0781 22.7168 Q118.6094 22.4199 119.2969 22.4199 Q120.4219 22.4199 121 23.123 Q121.5938 23.8105 121.5938 25.1699 ZM129.75 25.5918 L129.75 26.1074 L124.7812 26.1074 Q124.8594 27.2324 125.4531 27.8105 Q126.0625 28.3887 127.125 28.3887 Q127.75 28.3887 128.3281 28.248 Q128.9219 28.0918 129.5 27.7793 L129.5 28.8105 Q128.9062 29.0449 128.2969 29.1699 Q127.6875 29.3105 127.0625 29.3105 Q125.5 29.3105 124.5781 28.4043 Q123.6562 27.4824 123.6562 25.9199 Q123.6562 24.3105 124.5312 23.373 Q125.4062 22.4199 126.875 22.4199 Q128.2031 22.4199 128.9688 23.2793 Q129.75 24.123 129.75 25.5918 ZM128.6719 25.2637 Q128.6562 24.3887 128.1719 23.8574 Q127.6875 23.3262 126.8906 23.3262 Q125.9844 23.3262 125.4375 23.8418 Q124.9062 24.3574 124.8281 25.2793 L128.6719 25.2637 Z" clip-path="url(#clipPath22)" stroke="none"/>
      <path d="M9.2344 38.8418 Q9.6406 38.1074 10.2031 37.7637 Q10.7656 37.4199 11.5312 37.4199 Q12.5625 37.4199 13.1094 38.1387 Q13.6719 38.8574 13.6719 40.1699 L13.6719 44.1387 L12.5938 44.1387 L12.5938 40.2168 Q12.5938 39.2637 12.25 38.8105 Q11.9219 38.3574 11.2344 38.3574 Q10.3906 38.3574 9.9062 38.9199 Q9.4219 39.4668 9.4219 40.4355 L9.4219 44.1387 L8.3438 44.1387 L8.3438 40.2168 Q8.3438 39.2637 8 38.8105 Q7.6719 38.3574 6.9688 38.3574 Q6.1406 38.3574 5.6562 38.9199 Q5.1719 39.4668 5.1719 40.4355 L5.1719 44.1387 L4.0938 44.1387 L4.0938 37.5762 L5.1719 37.5762 L5.1719 38.5918 Q5.5469 37.998 6.0625 37.7168 Q6.5781 37.4199 7.2812 37.4199 Q8 37.4199 8.5 37.7793 Q9 38.1387 9.2344 38.8418 ZM20.75 40.5918 L20.75 41.1074 L15.7812 41.1074 Q15.8594 42.2324 16.4531 42.8105 Q17.0625 43.3887 18.125 43.3887 Q18.75 43.3887 19.3281 43.248 Q19.9219 43.0918 20.5 42.7793 L20.5 43.8105 Q19.9062 44.0449 19.2969 44.1699 Q18.6875 44.3105 18.0625 44.3105 Q16.5 44.3105 15.5781 43.4043 Q14.6562 42.4824 14.6562 40.9199 Q14.6562 39.3105 15.5312 38.373 Q16.4062 37.4199 17.875 37.4199 Q19.2031 37.4199 19.9688 38.2793 Q20.75 39.123 20.75 40.5918 ZM19.6719 40.2637 Q19.6562 39.3887 19.1719 38.8574 Q18.6875 38.3262 17.8906 38.3262 Q16.9844 38.3262 16.4375 38.8418 Q15.9062 39.3574 15.8281 40.2793 L19.6719 40.2637 ZM18.625 34.5449 L19.7969 34.5449 L17.8906 36.748 L16.9844 36.748 L18.625 34.5449 ZM24.2031 35.7168 L24.2031 37.5762 L26.4219 37.5762 L26.4219 38.4199 L24.2031 38.4199 L24.2031 41.9824 Q24.2031 42.7793 24.4219 43.0137 Q24.6406 43.2324 25.3125 43.2324 L26.4219 43.2324 L26.4219 44.1387 L25.3125 44.1387 Q24.0625 44.1387 23.5781 43.6699 Q23.1094 43.2012 23.1094 41.9824 L23.1094 38.4199 L22.3281 38.4199 L22.3281 37.5762 L23.1094 37.5762 L23.1094 35.7168 L24.2031 35.7168 ZM33.5938 40.1699 L33.5938 44.1387 L32.5156 44.1387 L32.5156 40.2168 Q32.5156 39.2793 32.1406 38.8262 Q31.7812 38.3574 31.0625 38.3574 Q30.1875 38.3574 29.6719 38.9199 Q29.1719 39.4668 29.1719 40.4355 L29.1719 44.1387 L28.0938 44.1387 L28.0938 35.0137 L29.1719 35.0137 L29.1719 38.5918 Q29.5625 37.998 30.0781 37.7168 Q30.6094 37.4199 31.2969 37.4199 Q32.4219 37.4199 33 38.123 Q33.5938 38.8105 33.5938 40.1699 ZM38.6719 38.3262 Q37.8125 38.3262 37.2969 39.0137 Q36.7969 39.6855 36.7969 40.8574 Q36.7969 42.0449 37.2969 42.7168 Q37.7969 43.3887 38.6719 43.3887 Q39.5312 43.3887 40.0312 42.7168 Q40.5469 42.0293 40.5469 40.8574 Q40.5469 39.7012 40.0312 39.0137 Q39.5312 38.3262 38.6719 38.3262 ZM38.6719 37.4199 Q40.0781 37.4199 40.875 38.3418 Q41.6875 39.248 41.6875 40.8574 Q41.6875 42.4668 40.875 43.3887 Q40.0781 44.3105 38.6719 44.3105 Q37.2656 44.3105 36.4531 43.3887 Q35.6562 42.4668 35.6562 40.8574 Q35.6562 39.248 36.4531 38.3418 Q37.2656 37.4199 38.6719 37.4199 ZM48.4531 38.5762 L48.4531 35.0137 L49.5312 35.0137 L49.5312 44.1387 L48.4531 44.1387 L48.4531 43.1543 Q48.1094 43.7324 47.5938 44.0293 Q47.0781 44.3105 46.3438 44.3105 Q45.1562 44.3105 44.4062 43.3574 Q43.6562 42.4043 43.6562 40.8574 Q43.6562 39.3105 44.4062 38.373 Q45.1562 37.4199 46.3438 37.4199 Q47.0781 37.4199 47.5938 37.7012 Q48.1094 37.9824 48.4531 38.5762 ZM44.7812 40.8574 Q44.7812 42.0449 45.2656 42.7324 Q45.75 43.4043 46.6094 43.4043 Q47.4688 43.4043 47.9531 42.7324 Q48.4531 42.0449 48.4531 40.8574 Q48.4531 39.6699 47.9531 38.998 Q47.4688 38.3262 46.6094 38.3262 Q45.75 38.3262 45.2656 38.998 Q44.7812 39.6699 44.7812 40.8574 ZM57.75 40.5918 L57.75 41.1074 L52.7812 41.1074 Q52.8594 42.2324 53.4531 42.8105 Q54.0625 43.3887 55.125 43.3887 Q55.75 43.3887 56.3281 43.248 Q56.9219 43.0918 57.5 42.7793 L57.5 43.8105 Q56.9062 44.0449 56.2969 44.1699 Q55.6875 44.3105 55.0625 44.3105 Q53.5 44.3105 52.5781 43.4043 Q51.6562 42.4824 51.6562 40.9199 Q51.6562 39.3105 52.5312 38.373 Q53.4062 37.4199 54.875 37.4199 Q56.2031 37.4199 56.9688 38.2793 Q57.75 39.123 57.75 40.5918 ZM56.6719 40.2637 Q56.6562 39.3887 56.1719 38.8574 Q55.6875 38.3262 54.8906 38.3262 Q53.9844 38.3262 53.4375 38.8418 Q52.9062 39.3574 52.8281 40.2793 L56.6719 40.2637 ZM68.4531 38.5762 L68.4531 35.0137 L69.5312 35.0137 L69.5312 44.1387 L68.4531 44.1387 L68.4531 43.1543 Q68.1094 43.7324 67.5938 44.0293 Q67.0781 44.3105 66.3438 44.3105 Q65.1562 44.3105 64.4062 43.3574 Q63.6562 42.4043 63.6562 40.8574 Q63.6562 39.3105 64.4062 38.373 Q65.1562 37.4199 66.3438 37.4199 Q67.0781 37.4199 67.5938 37.7012 Q68.1094 37.9824 68.4531 38.5762 ZM64.7812 40.8574 Q64.7812 42.0449 65.2656 42.7324 Q65.75 43.4043 66.6094 43.4043 Q67.4688 43.4043 67.9531 42.7324 Q68.4531 42.0449 68.4531 40.8574 Q68.4531 39.6699 67.9531 38.998 Q67.4688 38.3262 66.6094 38.3262 Q65.75 38.3262 65.2656 38.998 Q64.7812 39.6699 64.7812 40.8574 ZM77.75 40.5918 L77.75 41.1074 L72.7812 41.1074 Q72.8594 42.2324 73.4531 42.8105 Q74.0625 43.3887 75.125 43.3887 Q75.75 43.3887 76.3281 43.248 Q76.9219 43.0918 77.5 42.7793 L77.5 43.8105 Q76.9062 44.0449 76.2969 44.1699 Q75.6875 44.3105 75.0625 44.3105 Q73.5 44.3105 72.5781 43.4043 Q71.6562 42.4824 71.6562 40.9199 Q71.6562 39.3105 72.5312 38.373 Q73.4062 37.4199 74.875 37.4199 Q76.2031 37.4199 76.9688 38.2793 Q77.75 39.123 77.75 40.5918 ZM76.6719 40.2637 Q76.6562 39.3887 76.1719 38.8574 Q75.6875 38.3262 74.8906 38.3262 Q73.9844 38.3262 73.4375 38.8418 Q72.9062 39.3574 72.8281 40.2793 L76.6719 40.2637 ZM88.8594 37.8262 L88.8594 38.8418 Q88.3906 38.5762 87.9375 38.4512 Q87.4844 38.3262 87.0156 38.3262 Q85.9531 38.3262 85.375 38.998 Q84.7969 39.6543 84.7969 40.8574 Q84.7969 42.0605 85.375 42.7324 Q85.9531 43.3887 87.0156 43.3887 Q87.4844 43.3887 87.9375 43.2637 Q88.3906 43.1387 88.8594 42.8887 L88.8594 43.8887 Q88.4062 44.0918 87.9219 44.2012 Q87.4375 44.3105 86.8906 44.3105 Q85.4062 44.3105 84.5312 43.3887 Q83.6562 42.4512 83.6562 40.8574 Q83.6562 39.2637 84.5312 38.3418 Q85.4219 37.4199 86.9688 37.4199 Q87.4531 37.4199 87.9219 37.5293 Q88.4062 37.623 88.8594 37.8262 ZM91.125 35.0137 L92.2031 35.0137 L92.2031 44.1387 L91.125 44.1387 L91.125 35.0137 ZM97.1094 40.8418 Q95.8125 40.8418 95.2969 41.1387 Q94.7969 41.4355 94.7969 42.1543 Q94.7969 42.7324 95.1719 43.0762 Q95.5625 43.4043 96.2031 43.4043 Q97.1094 43.4043 97.6406 42.7793 Q98.1875 42.1387 98.1875 41.0762 L98.1875 40.8418 L97.1094 40.8418 ZM99.2656 40.3887 L99.2656 44.1387 L98.1875 44.1387 L98.1875 43.1387 Q97.8125 43.7324 97.2656 44.0293 Q96.7188 44.3105 95.9219 44.3105 Q94.9062 44.3105 94.3125 43.748 Q93.7188 43.1699 93.7188 42.2324 Q93.7188 41.123 94.4531 40.5605 Q95.2031 39.998 96.6719 39.998 L98.1875 39.998 L98.1875 39.8887 Q98.1875 39.1387 97.6875 38.7324 Q97.2031 38.3262 96.3281 38.3262 Q95.7656 38.3262 95.2188 38.4668 Q94.6875 38.6074 94.2031 38.873 L94.2031 37.873 Q94.7969 37.6387 95.3438 37.5293 Q95.9062 37.4199 96.4375 37.4199 Q97.8594 37.4199 98.5625 38.1543 Q99.2656 38.8887 99.2656 40.3887 ZM106.3125 37.7637 L106.3125 38.7949 Q105.8594 38.5605 105.3594 38.4512 Q104.875 38.3262 104.3438 38.3262 Q103.5469 38.3262 103.1406 38.5762 Q102.7344 38.8105 102.7344 39.3105 Q102.7344 39.6855 103.0156 39.9043 Q103.3125 40.1074 104.1875 40.2949 L104.5469 40.3887 Q105.7031 40.623 106.1875 41.0762 Q106.6719 41.5293 106.6719 42.3262 Q106.6719 43.248 105.9375 43.7793 Q105.2188 44.3105 103.9531 44.3105 Q103.4219 44.3105 102.8438 44.2012 Q102.2812 44.1074 101.6562 43.9043 L101.6562 42.7793 Q102.25 43.0918 102.8281 43.248 Q103.4062 43.4043 103.9844 43.4043 Q104.7344 43.4043 105.1406 43.1543 Q105.5625 42.8887 105.5625 42.4043 Q105.5625 41.9668 105.2656 41.7324 Q104.9688 41.498 103.9688 41.2793 L103.5938 41.2012 Q102.5938 40.9824 102.1406 40.5449 Q101.7031 40.1074 101.7031 39.3574 Q101.7031 38.4199 102.3594 37.9199 Q103.0156 37.4199 104.2188 37.4199 Q104.8125 37.4199 105.3438 37.5137 Q105.875 37.5918 106.3125 37.7637 ZM113.3125 37.7637 L113.3125 38.7949 Q112.8594 38.5605 112.3594 38.4512 Q111.875 38.3262 111.3438 38.3262 Q110.5469 38.3262 110.1406 38.5762 Q109.7344 38.8105 109.7344 39.3105 Q109.7344 39.6855 110.0156 39.9043 Q110.3125 40.1074 111.1875 40.2949 L111.5469 40.3887 Q112.7031 40.623 113.1875 41.0762 Q113.6719 41.5293 113.6719 42.3262 Q113.6719 43.248 112.9375 43.7793 Q112.2188 44.3105 110.9531 44.3105 Q110.4219 44.3105 109.8438 44.2012 Q109.2812 44.1074 108.6562 43.9043 L108.6562 42.7793 Q109.25 43.0918 109.8281 43.248 Q110.4062 43.4043 110.9844 43.4043 Q111.7344 43.4043 112.1406 43.1543 Q112.5625 42.8887 112.5625 42.4043 Q112.5625 41.9668 112.2656 41.7324 Q111.9688 41.498 110.9688 41.2793 L110.5938 41.2012 Q109.5938 40.9824 109.1406 40.5449 Q108.7031 40.1074 108.7031 39.3574 Q108.7031 38.4199 109.3594 37.9199 Q110.0156 37.4199 111.2188 37.4199 Q111.8125 37.4199 112.3438 37.5137 Q112.875 37.5918 113.3125 37.7637 ZM121.75 40.5918 L121.75 41.1074 L116.7812 41.1074 Q116.8594 42.2324 117.4531 42.8105 Q118.0625 43.3887 119.125 43.3887 Q119.75 43.3887 120.3281 43.248 Q120.9219 43.0918 121.5 42.7793 L121.5 43.8105 Q120.9062 44.0449 120.2969 44.1699 Q119.6875 44.3105 119.0625 44.3105 Q117.5 44.3105 116.5781 43.4043 Q115.6562 42.4824 115.6562 40.9199 Q115.6562 39.3105 116.5312 38.373 Q117.4062 37.4199 118.875 37.4199 Q120.2031 37.4199 120.9688 38.2793 Q121.75 39.123 121.75 40.5918 ZM120.6719 40.2637 Q120.6562 39.3887 120.1719 38.8574 Q119.6875 38.3262 118.8906 38.3262 Q117.9844 38.3262 117.4375 38.8418 Q116.9062 39.3574 116.8281 40.2793 L120.6719 40.2637 ZM124.2812 42.6543 L125.5156 42.6543 L125.5156 44.1387 L124.2812 44.1387 L124.2812 42.6543 Z" clip-path="url(#clipPath22)" stroke="none"/>
    </g>
    <g font-size="11px" transform="translate(1361,623)" fill-opacity="1" fill="rgb(86,180,233)" text-rendering="geometricPrecision" image-rendering="optimizeQuality" font-family="sans-serif" stroke="rgb(86,180,233)" stroke-opacity="1">
      <rect x="0" width="8" height="63" y="0" clip-path="url(#clipPath23)" stroke="none"/>
    </g>
    <g stroke-linecap="butt" font-size="11px" transform="translate(1361,623)" fill-opacity="1" fill="black" text-rendering="geometricPrecision" image-rendering="optimizeQuality" font-family="sans-serif" stroke-linejoin="round" stroke="black" stroke-opacity="1" stroke-miterlimit="0">
      <rect fill="none" x="0" width="8" height="63" y="0" clip-path="url(#clipPath23)"/>
    </g>
    <g font-size="11px" transform="translate(1118,662)" fill-opacity="1" fill="rgb(86,180,233)" text-rendering="geometricPrecision" image-rendering="optimizeQuality" font-family="sans-serif" stroke="rgb(86,180,233)" stroke-opacity="1">
      <rect x="0" width="8" height="13" y="0" clip-path="url(#clipPath24)" stroke="none"/>
    </g>
    <g stroke-linecap="butt" font-size="11px" transform="translate(1118,662)" fill-opacity="1" fill="black" text-rendering="geometricPrecision" image-rendering="optimizeQuality" font-family="sans-serif" stroke-linejoin="round" stroke="black" stroke-opacity="1" stroke-miterlimit="0">
      <rect fill="none" x="0" width="8" height="13" y="0" clip-path="url(#clipPath24)"/>
    </g>
    <g font-size="11px" transform="translate(1119,288)" fill-opacity="1" fill="rgb(86,180,233)" text-rendering="geometricPrecision" image-rendering="optimizeQuality" font-family="sans-serif" stroke="rgb(86,180,233)" stroke-opacity="1">
      <rect x="0" width="8" height="12" y="0" clip-path="url(#clipPath12)" stroke="none"/>
    </g>
    <g stroke-linecap="butt" font-size="11px" transform="translate(1119,288)" fill-opacity="1" fill="black" text-rendering="geometricPrecision" image-rendering="optimizeQuality" font-family="sans-serif" stroke-linejoin="round" stroke="black" stroke-opacity="1" stroke-miterlimit="0">
      <rect fill="none" x="0" width="8" height="12" y="0" clip-path="url(#clipPath12)"/>
    </g>
    <g fill-opacity="1" text-rendering="geometricPrecision" stroke="black" stroke-linecap="butt" transform="translate(497,190)" stroke-miterlimit="0" stroke-opacity="1" fill="black" stroke-dasharray="5,2" font-family="sans-serif" stroke-linejoin="bevel" font-size="11px" image-rendering="optimizeQuality">
      <line y2="67" fill="none" x1="0" clip-path="url(#clipPath27)" x2="795" y1="67"/>
    </g>
    <g font-size="11px" transform="translate(525,195)" fill-opacity="1" fill="black" text-rendering="geometricPrecision" image-rendering="optimizeQuality" font-family="sans-serif" stroke="black" stroke-opacity="1">
      <text fill="black" x="10" xml:space="preserve" y="11" clip-path="url(#clipPath28)" stroke="none">[genconf.utilisateurs.containsKey(email)]</text>
    </g>
    <g font-size="11px" transform="translate(476,12)" fill-opacity="1" fill="black" text-rendering="geometricPrecision" image-rendering="optimizeQuality" font-family="sans-serif" stroke="black" stroke-opacity="1">
      <text x="11" xml:space="preserve" y="11" clip-path="url(#clipPath29)" stroke="none">: Controleur</text>
    </g>
    <g font-size="11px" transform="translate(837,2)" fill-opacity="1" fill="black" text-rendering="geometricPrecision" image-rendering="optimizeQuality" font-family="sans-serif" stroke="black" stroke-opacity="1">
      <text x="9" xml:space="preserve" y="11" clip-path="url(#clipPath30)" stroke="none">genconf : GenEvent</text>
    </g>
    <g font-size="11px" transform="translate(1062,2)" fill-opacity="1" fill="black" text-rendering="geometricPrecision" image-rendering="optimizeQuality" font-family="sans-serif" stroke="black" stroke-opacity="1">
      <text x="10" xml:space="preserve" y="11" clip-path="url(#clipPath31)" stroke="none">admin : Utilisateur</text>
    </g>
    <g font-size="11px" transform="translate(1287,2)" fill-opacity="1" fill="black" text-rendering="geometricPrecision" image-rendering="optimizeQuality" font-family="sans-serif" stroke="black" stroke-opacity="1">
      <text x="31" xml:space="preserve" y="11" clip-path="url(#clipPath32)" stroke="none">evt : Evenement</text>
    </g>
    <g font-size="11px" transform="translate(2,12)" fill-opacity="1" fill="black" text-rendering="geometricPrecision" image-rendering="optimizeQuality" font-family="sans-serif" stroke="black" stroke-opacity="1">
      <text x="21" xml:space="preserve" y="11" clip-path="url(#clipPath33)" stroke="none">: IHM</text>
    </g>
    <g stroke-linecap="butt" font-size="11px" transform="translate(-8,44)" fill-opacity="1" fill="black" text-rendering="geometricPrecision" image-rendering="optimizeQuality" font-family="sans-serif" stroke-linejoin="round" stroke="black" stroke-opacity="1">
      <line y2="50" fill="none" x1="50" clip-path="url(#clipPath35)" x2="524" y1="50"/>
      <polygon points=" 524 50 512 44 512 56" clip-path="url(#clipPath35)" stroke="none"/>
      <polygon fill="none" points=" 524 50 512 44 512 56" clip-path="url(#clipPath35)"/>
    </g>
    <g stroke-linecap="butt" font-size="11px" transform="translate(468,97)" fill-opacity="1" fill="black" text-rendering="geometricPrecision" image-rendering="optimizeQuality" font-family="sans-serif" stroke-linejoin="round" stroke="black" stroke-opacity="1">
      <line y2="56" fill="none" x1="55" clip-path="url(#clipPath37)" x2="429" y1="56"/>
      <polygon points=" 429 56 417 50 417 62" clip-path="url(#clipPath37)" stroke="none"/>
      <polygon fill="none" points=" 429 56 417 50 417 62" clip-path="url(#clipPath37)"/>
    </g>
    <g stroke-linecap="butt" font-size="11px" transform="translate(-8,438)" fill-opacity="1" fill="black" text-rendering="geometricPrecision" image-rendering="optimizeQuality" font-family="sans-serif" stroke-linejoin="round" stroke="black" stroke-opacity="1">
      <line y2="50" fill="none" x1="524" clip-path="url(#clipPath38)" x2="50" y1="50"/>
      <polygon points=" 50 50 62 56 62 44" clip-path="url(#clipPath38)" stroke="none"/>
      <polygon fill="none" points=" 50 50 62 56 62 44" clip-path="url(#clipPath38)"/>
    </g>
    <g stroke-linecap="butt" font-size="11px" transform="translate(468,469)" fill-opacity="1" fill="black" text-rendering="geometricPrecision" image-rendering="optimizeQuality" font-family="sans-serif" stroke-linejoin="round" stroke="black" stroke-opacity="1">
      <line y2="56" fill="none" x1="55" clip-path="url(#clipPath39)" x2="429" y1="56"/>
      <polygon points=" 429 56 417 50 417 62" clip-path="url(#clipPath39)" stroke="none"/>
      <polygon fill="none" points=" 429 56 417 50 417 62" clip-path="url(#clipPath39)"/>
    </g>
    <g stroke-linecap="butt" font-size="11px" transform="translate(-14,633)" fill-opacity="1" fill="black" text-rendering="geometricPrecision" image-rendering="optimizeQuality" font-family="sans-serif" stroke-linejoin="round" stroke="black" stroke-opacity="1">
      <line y2="55" fill="none" x1="530" clip-path="url(#clipPath41)" x2="55" y1="55"/>
      <polygon points=" 55 55 67 61 67 49" clip-path="url(#clipPath41)" stroke="none"/>
      <polygon fill="none" points=" 55 55 67 61 67 49" clip-path="url(#clipPath41)"/>
    </g>
    <g fill-opacity="1" text-rendering="geometricPrecision" stroke="black" stroke-linecap="butt" transform="translate(468,184)" stroke-miterlimit="0" stroke-opacity="1" fill="black" stroke-dasharray="8,3" font-family="sans-serif" stroke-linejoin="round" font-size="11px" image-rendering="optimizeQuality">
      <line y2="55" fill="none" x1="429" clip-path="url(#clipPath42)" x2="55" y1="55"/>
      <line clip-path="url(#clipPath42)" fill="none" x1="55" x2="67" y1="55" y2="61" stroke-dasharray="none" stroke-miterlimit="10"/>
      <line clip-path="url(#clipPath42)" fill="none" x1="55" x2="67" y1="55" y2="49" stroke-dasharray="none" stroke-miterlimit="10"/>
    </g>
    <g fill-opacity="1" text-rendering="geometricPrecision" stroke="black" stroke-linecap="butt" transform="translate(468,324)" stroke-miterlimit="0" stroke-opacity="1" fill="black" stroke-dasharray="8,3" font-family="sans-serif" stroke-linejoin="round" font-size="11px" image-rendering="optimizeQuality">
      <line y2="55" fill="none" x1="429" clip-path="url(#clipPath43)" x2="55" y1="55"/>
      <line clip-path="url(#clipPath43)" fill="none" x1="55" x2="67" y1="55" y2="61" stroke-dasharray="none" stroke-miterlimit="10"/>
      <line clip-path="url(#clipPath43)" fill="none" x1="55" x2="67" y1="55" y2="49" stroke-dasharray="none" stroke-miterlimit="10"/>
    </g>
    <g stroke-linecap="butt" font-size="11px" transform="translate(849,289)" fill-opacity="1" fill="black" text-rendering="geometricPrecision" image-rendering="optimizeQuality" font-family="sans-serif" stroke-linejoin="round" stroke="black" stroke-opacity="1">
      <line y2="56" fill="none" x1="55" clip-path="url(#clipPath45)" x2="85" y1="56"/>
      <line y2="76" fill="none" x1="85" clip-path="url(#clipPath45)" x2="85" y1="56"/>
      <line y2="76" fill="none" x1="85" clip-path="url(#clipPath45)" x2="55" y1="76"/>
      <polygon points=" 55 76 67 82 67 70" clip-path="url(#clipPath45)" stroke="none"/>
      <polygon fill="none" points=" 55 76 67 82 67 70" clip-path="url(#clipPath45)"/>
    </g>
    <g stroke-linecap="butt" font-size="11px" transform="translate(849,234)" fill-opacity="1" fill="black" text-rendering="geometricPrecision" image-rendering="optimizeQuality" font-family="sans-serif" stroke-linejoin="round" stroke="black" stroke-opacity="1">
      <line y2="55" fill="none" x1="55" clip-path="url(#clipPath47)" x2="270" y1="55"/>
      <polygon points=" 270 55 258 49 258 61" clip-path="url(#clipPath47)" stroke="none"/>
      <polygon fill="none" points=" 270 55 258 49 258 61" clip-path="url(#clipPath47)"/>
    </g>
    <g stroke-linecap="butt" font-size="11px" transform="translate(849,477)" fill-opacity="1" fill="black" text-rendering="geometricPrecision" image-rendering="optimizeQuality" font-family="sans-serif" stroke-linejoin="round" stroke="black" stroke-opacity="1">
      <line y2="56" fill="none" x1="55" clip-path="url(#clipPath48)" x2="85" y1="56"/>
      <line y2="76" fill="none" x1="85" clip-path="url(#clipPath48)" x2="85" y1="56"/>
      <line y2="76" fill="none" x1="85" clip-path="url(#clipPath48)" x2="55" y1="76"/>
      <polygon points=" 55 76 67 82 67 70" clip-path="url(#clipPath48)" stroke="none"/>
      <polygon fill="none" points=" 55 76 67 82 67 70" clip-path="url(#clipPath48)"/>
    </g>
    <g stroke-linecap="butt" font-size="11px" transform="translate(849,522)" fill-opacity="1" fill="black" text-rendering="geometricPrecision" image-rendering="optimizeQuality" font-family="sans-serif" stroke-linejoin="round" stroke="black" stroke-opacity="1">
      <line y2="55" fill="none" x1="55" clip-path="url(#clipPath50)" x2="512" y1="55"/>
      <polygon points=" 512 55 500 49 500 61" clip-path="url(#clipPath50)" stroke="none"/>
      <polygon fill="none" points=" 512 55 500 49 500 61" clip-path="url(#clipPath50)"/>
    </g>
    <g stroke-linecap="butt" font-size="11px" transform="translate(849,566)" fill-opacity="1" fill="black" text-rendering="geometricPrecision" image-rendering="optimizeQuality" font-family="sans-serif" stroke-linejoin="round" stroke="black" stroke-opacity="1">
      <line y2="56" fill="none" x1="55" clip-path="url(#clipPath51)" x2="512" y1="56"/>
      <polygon points=" 512 56 500 50 500 62" clip-path="url(#clipPath51)" stroke="none"/>
      <polygon fill="none" points=" 512 56 500 50 500 62" clip-path="url(#clipPath51)"/>
    </g>
    <g stroke-linecap="butt" font-size="11px" transform="translate(906,522)" fill-opacity="1" fill="black" text-rendering="geometricPrecision" image-rendering="optimizeQuality" font-family="sans-serif" stroke-linejoin="round" stroke-dasharray="4" stroke="black" stroke-opacity="1">
      <line y2="55" fill="none" x1="55" clip-path="url(#clipPath53)" x2="55" y1="144"/>
    </g>
    <g stroke-linecap="butt" font-size="11px" transform="translate(889,566)" fill-opacity="1" fill="black" text-rendering="geometricPrecision" image-rendering="optimizeQuality" font-family="sans-serif" stroke-linejoin="round" stroke-dasharray="4" stroke="black" stroke-opacity="1">
      <line y2="56" fill="none" x1="55" clip-path="url(#clipPath55)" x2="55" y1="100"/>
    </g>
    <g stroke-linecap="butt" font-size="11px" transform="translate(1072,606)" fill-opacity="1" fill="black" text-rendering="geometricPrecision" image-rendering="optimizeQuality" font-family="sans-serif" stroke-linejoin="round" stroke="black" stroke-opacity="1">
      <line y2="56" fill="none" x1="289" clip-path="url(#clipPath57)" x2="56" y1="56"/>
      <polygon points=" 56 56 68 62 68 50" clip-path="url(#clipPath57)" stroke="none"/>
      <polygon fill="none" points=" 56 56 68 62 68 50" clip-path="url(#clipPath57)"/>
    </g>
    <g font-size="11px" transform="translate(1099,639)" fill-opacity="1" fill="black" text-rendering="geometricPrecision" image-rendering="optimizeQuality" font-family="sans-serif" stroke="black" stroke-opacity="1">
      <text fill="black" x="9" xml:space="preserve" y="11" clip-path="url(#clipPath58)" stroke="none">12: ajouteEvenementAdministre(evt = evt)</text>
    </g>
    <g font-size="11px" transform="translate(1004,602)" fill-opacity="1" fill="black" text-rendering="geometricPrecision" image-rendering="optimizeQuality" font-family="sans-serif" stroke="black" stroke-opacity="1">
      <text fill="black" x="11" xml:space="preserve" y="11" clip-path="url(#clipPath59)" stroke="none">11: ajouteAdministrateur(admin = admin)</text>
    </g>
    <g font-size="11px" transform="translate(1074,557)" fill-opacity="1" fill="black" text-rendering="geometricPrecision" image-rendering="optimizeQuality" font-family="sans-serif" stroke="black" stroke-opacity="1">
      <text fill="black" x="11" xml:space="preserve" y="11" clip-path="url(#clipPath60)" stroke="none">10: Evenement()</text>
    </g>
    <g font-size="11px" transform="translate(934,533)" fill-opacity="1" fill="black" text-rendering="geometricPrecision" image-rendering="optimizeQuality" font-family="sans-serif" stroke="black" stroke-opacity="1">
      <text fill="black" x="10" xml:space="preserve" y="11" clip-path="url(#clipPath61)" stroke="none">9: admin = utilisateurs.get(adminEmail)</text>
    </g>
    <g font-size="11px" transform="translate(932,268)" fill-opacity="1" fill="black" text-rendering="geometricPrecision" image-rendering="optimizeQuality" font-family="sans-serif" stroke="black" stroke-opacity="1">
      <text fill="black" x="10" xml:space="preserve" y="12" clip-path="url(#clipPath62)" stroke="none">4: admin = Utilisateur()</text>
    </g>
    <g font-size="11px" transform="translate(934,345)" fill-opacity="1" fill="black" text-rendering="geometricPrecision" image-rendering="optimizeQuality" font-family="sans-serif" stroke="black" stroke-opacity="1">
      <text fill="black" x="10" xml:space="preserve" y="11" clip-path="url(#clipPath63)" stroke="none">5: utilisateurs.put(email, admin)</text>
    </g>
    <g font-size="11px" transform="translate(680,359)" fill-opacity="1" fill="black" text-rendering="geometricPrecision" image-rendering="optimizeQuality" font-family="sans-serif" stroke="black" stroke-opacity="1">
      <text fill="black" x="10" xml:space="preserve" y="11" clip-path="url(#clipPath64)" stroke="none">6: true</text>
    </g>
    <g font-size="11px" transform="translate(677,219)" fill-opacity="1" fill="black" text-rendering="geometricPrecision" image-rendering="optimizeQuality" font-family="sans-serif" stroke="black" stroke-opacity="1">
      <text fill="black" x="10" xml:space="preserve" y="11" clip-path="url(#clipPath65)" stroke="none">3: false</text>
    </g>
    <g font-size="11px" transform="translate(62,667)" fill-opacity="1" fill="black" text-rendering="geometricPrecision" image-rendering="optimizeQuality" font-family="sans-serif" stroke="black" stroke-opacity="1">
      <text fill="black" x="10" xml:space="preserve" y="11" clip-path="url(#clipPath66)" stroke="none">13: informerUtilisateur(msg = "Nouvel vnement: " + , succes = true)</text>
    </g>
    <g font-size="11px" transform="translate(630,505)" fill-opacity="1" fill="black" text-rendering="geometricPrecision" image-rendering="optimizeQuality" font-family="sans-serif" stroke="black" stroke-opacity="1">
      <text fill="black" x="15" xml:space="preserve" y="11" clip-path="url(#clipPath67)" stroke="none">8: nouvelEvenement()</text>
    </g>
    <g font-size="11px" transform="translate(46,469)" fill-opacity="1" fill="black" text-rendering="geometricPrecision" image-rendering="optimizeQuality" font-family="sans-serif" stroke="black" stroke-opacity="1">
      <text fill="black" x="10" xml:space="preserve" y="11" clip-path="url(#clipPath68)" stroke="none">7: informerUtilisateur(msg = "Nouvelle utilisateur/trice: " + , succes = true)</text>
    </g>
    <g font-size="11px" transform="translate(576,133)" fill-opacity="1" fill="black" text-rendering="geometricPrecision" image-rendering="optimizeQuality" font-family="sans-serif" stroke="black" stroke-opacity="1">
      <text fill="black" x="10" xml:space="preserve" y="11" clip-path="url(#clipPath69)" stroke="none">2: estNouvelUtilisateur = ajouteUtilisateur()</text>
    </g>
    <g font-size="11px" transform="translate(176,74)" fill-opacity="1" fill="black" text-rendering="geometricPrecision" image-rendering="optimizeQuality" font-family="sans-serif" stroke="black" stroke-opacity="1">
      <text fill="black" x="10" xml:space="preserve" y="11" clip-path="url(#clipPath70)" stroke="none">1: creerEvenement(infos = infos)</text>
    </g>
  </g>
</svg>
